%TF.GenerationSoftware,KiCad,Pcbnew,9.0.3*%
%TF.CreationDate,2025-08-28T18:14:40+08:00*%
%TF.ProjectId,STM_Board,53544d5f-426f-4617-9264-2e6b69636164,rev?*%
%TF.SameCoordinates,Original*%
%TF.FileFunction,Copper,L1,Top*%
%TF.FilePolarity,Positive*%
%FSLAX46Y46*%
G04 Gerber Fmt 4.6, Leading zero omitted, Abs format (unit mm)*
G04 Created by KiCad (PCBNEW 9.0.3) date 2025-08-28 18:14:40*
%MOMM*%
%LPD*%
G01*
G04 APERTURE LIST*
G04 Aperture macros list*
%AMRoundRect*
0 Rectangle with rounded corners*
0 $1 Rounding radius*
0 $2 $3 $4 $5 $6 $7 $8 $9 X,Y pos of 4 corners*
0 Add a 4 corners polygon primitive as box body*
4,1,4,$2,$3,$4,$5,$6,$7,$8,$9,$2,$3,0*
0 Add four circle primitives for the rounded corners*
1,1,$1+$1,$2,$3*
1,1,$1+$1,$4,$5*
1,1,$1+$1,$6,$7*
1,1,$1+$1,$8,$9*
0 Add four rect primitives between the rounded corners*
20,1,$1+$1,$2,$3,$4,$5,0*
20,1,$1+$1,$4,$5,$6,$7,0*
20,1,$1+$1,$6,$7,$8,$9,0*
20,1,$1+$1,$8,$9,$2,$3,0*%
G04 Aperture macros list end*
%TA.AperFunction,SMDPad,CuDef*%
%ADD10RoundRect,0.300000X-0.700000X0.700000X-0.700000X-0.700000X0.700000X-0.700000X0.700000X0.700000X0*%
%TD*%
%TA.AperFunction,SMDPad,CuDef*%
%ADD11RoundRect,0.140000X0.170000X-0.140000X0.170000X0.140000X-0.170000X0.140000X-0.170000X-0.140000X0*%
%TD*%
%TA.AperFunction,SMDPad,CuDef*%
%ADD12RoundRect,0.218750X-0.256250X0.218750X-0.256250X-0.218750X0.256250X-0.218750X0.256250X0.218750X0*%
%TD*%
%TA.AperFunction,SMDPad,CuDef*%
%ADD13RoundRect,0.200000X-0.275000X0.200000X-0.275000X-0.200000X0.275000X-0.200000X0.275000X0.200000X0*%
%TD*%
%TA.AperFunction,SMDPad,CuDef*%
%ADD14RoundRect,0.150000X0.587500X0.150000X-0.587500X0.150000X-0.587500X-0.150000X0.587500X-0.150000X0*%
%TD*%
%TA.AperFunction,SMDPad,CuDef*%
%ADD15RoundRect,0.140000X-0.140000X-0.170000X0.140000X-0.170000X0.140000X0.170000X-0.140000X0.170000X0*%
%TD*%
%TA.AperFunction,SMDPad,CuDef*%
%ADD16RoundRect,0.300000X-0.700000X-0.700000X0.700000X-0.700000X0.700000X0.700000X-0.700000X0.700000X0*%
%TD*%
%TA.AperFunction,SMDPad,CuDef*%
%ADD17RoundRect,0.140000X-0.170000X0.140000X-0.170000X-0.140000X0.170000X-0.140000X0.170000X0.140000X0*%
%TD*%
%TA.AperFunction,SMDPad,CuDef*%
%ADD18R,1.200000X1.400000*%
%TD*%
%TA.AperFunction,SMDPad,CuDef*%
%ADD19RoundRect,0.087500X-0.207500X-0.087500X0.207500X-0.087500X0.207500X0.087500X-0.207500X0.087500X0*%
%TD*%
%TA.AperFunction,SMDPad,CuDef*%
%ADD20RoundRect,0.087500X-0.087500X-0.207500X0.087500X-0.207500X0.087500X0.207500X-0.087500X0.207500X0*%
%TD*%
%TA.AperFunction,SMDPad,CuDef*%
%ADD21RoundRect,0.250000X-0.475000X0.250000X-0.475000X-0.250000X0.475000X-0.250000X0.475000X0.250000X0*%
%TD*%
%TA.AperFunction,SMDPad,CuDef*%
%ADD22RoundRect,0.147500X-0.457500X-0.147500X0.457500X-0.147500X0.457500X0.147500X-0.457500X0.147500X0*%
%TD*%
%TA.AperFunction,SMDPad,CuDef*%
%ADD23RoundRect,0.200000X-0.200000X-0.275000X0.200000X-0.275000X0.200000X0.275000X-0.200000X0.275000X0*%
%TD*%
%TA.AperFunction,SMDPad,CuDef*%
%ADD24R,1.000000X0.750000*%
%TD*%
%TA.AperFunction,SMDPad,CuDef*%
%ADD25RoundRect,0.200000X0.200000X0.275000X-0.200000X0.275000X-0.200000X-0.275000X0.200000X-0.275000X0*%
%TD*%
%TA.AperFunction,SMDPad,CuDef*%
%ADD26RoundRect,0.300000X0.700000X-0.700000X0.700000X0.700000X-0.700000X0.700000X-0.700000X-0.700000X0*%
%TD*%
%TA.AperFunction,SMDPad,CuDef*%
%ADD27RoundRect,0.100000X0.575000X-0.100000X0.575000X0.100000X-0.575000X0.100000X-0.575000X-0.100000X0*%
%TD*%
%TA.AperFunction,HeatsinkPad*%
%ADD28O,1.900000X1.000000*%
%TD*%
%TA.AperFunction,SMDPad,CuDef*%
%ADD29R,1.900000X0.875000*%
%TD*%
%TA.AperFunction,HeatsinkPad*%
%ADD30O,1.250000X1.050000*%
%TD*%
%TA.AperFunction,SMDPad,CuDef*%
%ADD31RoundRect,0.250000X0.700000X-1.200000X0.700000X1.200000X-0.700000X1.200000X-0.700000X-1.200000X0*%
%TD*%
%TA.AperFunction,SMDPad,CuDef*%
%ADD32R,2.150000X1.000000*%
%TD*%
%TA.AperFunction,SMDPad,CuDef*%
%ADD33R,2.150000X3.250000*%
%TD*%
%TA.AperFunction,SMDPad,CuDef*%
%ADD34RoundRect,0.225000X0.250000X-0.225000X0.250000X0.225000X-0.250000X0.225000X-0.250000X-0.225000X0*%
%TD*%
%TA.AperFunction,SMDPad,CuDef*%
%ADD35RoundRect,0.075000X-0.700000X-0.075000X0.700000X-0.075000X0.700000X0.075000X-0.700000X0.075000X0*%
%TD*%
%TA.AperFunction,SMDPad,CuDef*%
%ADD36RoundRect,0.075000X-0.075000X-0.700000X0.075000X-0.700000X0.075000X0.700000X-0.075000X0.700000X0*%
%TD*%
%TA.AperFunction,ViaPad*%
%ADD37C,0.600000*%
%TD*%
%TA.AperFunction,Conductor*%
%ADD38C,0.200000*%
%TD*%
%TA.AperFunction,Conductor*%
%ADD39C,2.000000*%
%TD*%
G04 APERTURE END LIST*
D10*
%TO.P,J5,1,Pin_1*%
%TO.N,/STM32/BATT*%
X126950000Y-89450000D03*
%TO.P,J5,2,Pin_2*%
%TO.N,GND*%
X129450000Y-89450000D03*
%TO.P,J5,3,Pin_3*%
%TO.N,/STM32/S4*%
X131950000Y-89450000D03*
%TO.P,J5,4,Pin_4*%
%TO.N,GND*%
X134450000Y-89450000D03*
%TD*%
D11*
%TO.P,C20,1*%
%TO.N,GND*%
X150600000Y-89730000D03*
%TO.P,C20,2*%
%TO.N,/IMU1/3V3*%
X150600000Y-88770000D03*
%TD*%
D12*
%TO.P,D2,1,K*%
%TO.N,GND*%
X146194000Y-62912500D03*
%TO.P,D2,2,A*%
%TO.N,Net-(D2-A)*%
X146194000Y-64487500D03*
%TD*%
D13*
%TO.P,R6,1*%
%TO.N,Net-(D2-A)*%
X146100000Y-66050000D03*
%TO.P,R6,2*%
%TO.N,/LEDs/LED1*%
X146100000Y-67700000D03*
%TD*%
D14*
%TO.P,D1,1*%
%TO.N,/STM32/5V_USB1*%
X159600000Y-67150000D03*
%TO.P,D1,2*%
%TO.N,/STM32/BATT*%
X159600000Y-65250000D03*
%TO.P,D1,3*%
%TO.N,Net-(STM3V3-IN)*%
X157725000Y-66200000D03*
%TD*%
D15*
%TO.P,C7,1*%
%TO.N,Net-(U2-VCAP_1)*%
X148620000Y-83200000D03*
%TO.P,C7,2*%
%TO.N,GND*%
X149580000Y-83200000D03*
%TD*%
D16*
%TO.P,J21,1,Pin_1*%
%TO.N,GND*%
X127050000Y-63150000D03*
%TD*%
D17*
%TO.P,C3,1*%
%TO.N,/IMU1/3V3*%
X135850000Y-78145000D03*
%TO.P,C3,2*%
%TO.N,GND*%
X135850000Y-79105000D03*
%TD*%
D18*
%TO.P,Y2,1*%
%TO.N,Net-(U2-PH1)*%
X136850000Y-75125000D03*
%TO.P,Y2,2,GND*%
%TO.N,GND*%
X136850000Y-72925000D03*
%TO.P,Y2,3*%
%TO.N,Net-(U2-PH0)*%
X135250000Y-72925000D03*
%TO.P,Y2,4,GND__1*%
%TO.N,GND*%
X135250000Y-75125000D03*
%TD*%
D19*
%TO.P,U4,1,AP_SDO/AP_AD0*%
%TO.N,/STM32/AP_SDO*%
X144530000Y-86115000D03*
%TO.P,U4,2,RESV_2*%
%TO.N,unconnected-(U4-RESV_2-Pad2)*%
X144530000Y-86615000D03*
%TO.P,U4,3,RESV_3*%
%TO.N,unconnected-(U4-RESV_3-Pad3)*%
X144530000Y-87115000D03*
%TO.P,U4,4,INT1/INT*%
%TO.N,/STM32/INT1*%
X144530000Y-87615000D03*
D20*
%TO.P,U4,5,VDDIO*%
%TO.N,/IMU1/3V3*%
X145195000Y-87780000D03*
%TO.P,U4,6,GND*%
%TO.N,GND*%
X145695000Y-87780000D03*
%TO.P,U4,7,RESV_7*%
X146195000Y-87780000D03*
D19*
%TO.P,U4,8,VDD*%
%TO.N,/IMU1/3V3*%
X146860000Y-87615000D03*
%TO.P,U4,9,INT2/FSYNC/CLKIN*%
%TO.N,/STM32/INT2*%
X146860000Y-87115000D03*
%TO.P,U4,10,RESV_10*%
%TO.N,unconnected-(U4-RESV_10-Pad10)*%
X146860000Y-86615000D03*
%TO.P,U4,11,RESV_11*%
%TO.N,GND*%
X146860000Y-86115000D03*
D20*
%TO.P,U4,12,AP_CS*%
%TO.N,/STM32/AP_CS*%
X146195000Y-85950000D03*
%TO.P,U4,13,AP_SCL/AP_SCLK*%
%TO.N,/STM32/AP_SCLK*%
X145695000Y-85950000D03*
%TO.P,U4,14,AP_SDA/AP_SDIO/AP_SDI*%
%TO.N,/STM32/AP_SDI*%
X145195000Y-85950000D03*
%TD*%
D11*
%TO.P,C1,1*%
%TO.N,/IMU1/3V3*%
X153850000Y-70605000D03*
%TO.P,C1,2*%
%TO.N,GND*%
X153850000Y-69645000D03*
%TD*%
D21*
%TO.P,C8,1*%
%TO.N,/IMU1/3V3*%
X143195000Y-56500000D03*
%TO.P,C8,2*%
%TO.N,GND*%
X143195000Y-58400000D03*
%TD*%
D16*
%TO.P,J18,1,Pin_1*%
%TO.N,/STM32/BATT*%
X162650000Y-60150000D03*
%TO.P,J18,2,Pin_2*%
%TO.N,GND*%
X162650000Y-57650000D03*
%TD*%
D21*
%TO.P,C22,1*%
%TO.N,/IMU1/3V3*%
X142695000Y-88000000D03*
%TO.P,C22,2*%
%TO.N,GND*%
X142695000Y-89900000D03*
%TD*%
D22*
%TO.P,U6,1*%
%TO.N,GND*%
X133240000Y-67950000D03*
%TO.P,U6,2*%
%TO.N,/STM32/RX_ESP32_IN*%
X133240000Y-68900000D03*
%TO.P,U6,3*%
%TO.N,GND*%
X133240000Y-69850000D03*
%TO.P,U6,4*%
%TO.N,/STM32/RX_SBUS*%
X135750000Y-69850000D03*
%TO.P,U6,5*%
%TO.N,/IMU1/3V3*%
X135750000Y-67950000D03*
%TD*%
D10*
%TO.P,J3,1,Pin_1*%
%TO.N,/STM32/BATT*%
X155750000Y-52450000D03*
%TO.P,J3,2,Pin_2*%
%TO.N,GND*%
X158250000Y-52450000D03*
%TO.P,J3,3,Pin_3*%
%TO.N,/STM32/S2*%
X160750000Y-52450000D03*
%TO.P,J3,4,Pin_4*%
%TO.N,GND*%
X163250000Y-52450000D03*
%TD*%
D21*
%TO.P,CBATT1,1*%
%TO.N,Net-(STM3V3-IN)*%
X155195000Y-66000000D03*
%TO.P,CBATT1,2*%
%TO.N,GND*%
X155195000Y-67900000D03*
%TD*%
D23*
%TO.P,R1,1*%
%TO.N,Net-(R1-Pad1)*%
X138370000Y-57600000D03*
%TO.P,R1,2*%
%TO.N,GND*%
X140020000Y-57600000D03*
%TD*%
D24*
%TO.P,S2,A*%
%TO.N,/IMU1/3V3*%
X142862500Y-65275000D03*
%TO.P,S2,B*%
X136862500Y-65275000D03*
%TO.P,S2,C*%
%TO.N,Net-(R1-Pad1)*%
X142862500Y-61525000D03*
%TO.P,S2,D*%
X136862500Y-61525000D03*
%TD*%
D25*
%TO.P,R5,1*%
%TO.N,/STM32/5V_USB1*%
X153520000Y-84450000D03*
%TO.P,R5,2*%
%TO.N,Net-(U2-PC5)*%
X151870000Y-84450000D03*
%TD*%
D23*
%TO.P,R2,1*%
%TO.N,Net-(U2-PA12)*%
X155725000Y-73075000D03*
%TO.P,R2,2*%
%TO.N,/STM32/USB_N*%
X157375000Y-73075000D03*
%TD*%
D11*
%TO.P,C2,1*%
%TO.N,/IMU1/3V3*%
X152850000Y-70605000D03*
%TO.P,C2,2*%
%TO.N,GND*%
X152850000Y-69645000D03*
%TD*%
D26*
%TO.P,J2,1,Pin_1*%
%TO.N,/STM32/BATT*%
X134350000Y-52950000D03*
%TO.P,J2,2,Pin_2*%
%TO.N,GND*%
X131850000Y-52950000D03*
%TO.P,J2,3,Pin_3*%
%TO.N,/STM32/S1*%
X129350000Y-52950000D03*
%TO.P,J2,4,Pin_4*%
%TO.N,GND*%
X126850000Y-52950000D03*
%TD*%
D16*
%TO.P,J23,1,Pin_1*%
%TO.N,/STM32/RX_ESP32_IN*%
X126950000Y-65850000D03*
%TD*%
D17*
%TO.P,C4,1*%
%TO.N,/IMU1/3V3*%
X136850000Y-78145000D03*
%TO.P,C4,2*%
%TO.N,GND*%
X136850000Y-79105000D03*
%TD*%
D10*
%TO.P,J4,1,Pin_1*%
%TO.N,/STM32/BATT*%
X156030144Y-89018728D03*
%TO.P,J4,2,Pin_2*%
%TO.N,GND*%
X158530144Y-89018728D03*
%TO.P,J4,3,Pin_3*%
%TO.N,/STM32/S3*%
X161030144Y-89018728D03*
%TO.P,J4,4,Pin_4*%
%TO.N,GND*%
X163530144Y-89018728D03*
%TD*%
D27*
%TO.P,J1,1,VBUS*%
%TO.N,/STM32/5V_USB1*%
X161019000Y-72700000D03*
%TO.P,J1,2,D-*%
%TO.N,/STM32/USB_N*%
X161019000Y-73350000D03*
%TO.P,J1,3,D+*%
%TO.N,/STM32/USB_P*%
X161019000Y-74000000D03*
%TO.P,J1,4,ID*%
%TO.N,unconnected-(J1-ID-Pad4)*%
X161019000Y-74650000D03*
%TO.P,J1,5,GND*%
%TO.N,GND*%
X161019000Y-75300000D03*
D28*
%TO.P,J1,6,Shield*%
X163694000Y-78175000D03*
D29*
X163694000Y-77737500D03*
D30*
X160694000Y-76225000D03*
D31*
X163694000Y-74000000D03*
D30*
X160694000Y-71775000D03*
D29*
X163694000Y-70262500D03*
D28*
X163694000Y-69825000D03*
%TD*%
D23*
%TO.P,R3,1*%
%TO.N,Net-(U2-PA11)*%
X155725000Y-74575000D03*
%TO.P,R3,2*%
%TO.N,/STM32/USB_P*%
X157375000Y-74575000D03*
%TD*%
D32*
%TO.P,STM3V3,1,GND*%
%TO.N,GND*%
X151600000Y-59500000D03*
%TO.P,STM3V3,2,OUT*%
%TO.N,/IMU1/3V3*%
X151600000Y-57200000D03*
%TO.P,STM3V3,3,IN*%
%TO.N,Net-(STM3V3-IN)*%
X151600000Y-54900000D03*
D33*
%TO.P,STM3V3,4,OUT*%
%TO.N,/IMU1/3V3*%
X145800000Y-57200000D03*
%TD*%
D15*
%TO.P,C6,1*%
%TO.N,Net-(U2-VCAP_2)*%
X153025000Y-72625000D03*
%TO.P,C6,2*%
%TO.N,GND*%
X153985000Y-72625000D03*
%TD*%
D13*
%TO.P,R7,1*%
%TO.N,Net-(D3-A)*%
X144600000Y-66050000D03*
%TO.P,R7,2*%
%TO.N,/LEDs/LED2*%
X144600000Y-67700000D03*
%TD*%
%TO.P,R4,1*%
%TO.N,Net-(U2-PC5)*%
X150100000Y-84375000D03*
%TO.P,R4,2*%
%TO.N,GND*%
X150100000Y-86025000D03*
%TD*%
D34*
%TO.P,C21,1*%
%TO.N,GND*%
X149350000Y-89700000D03*
%TO.P,C21,2*%
%TO.N,/IMU1/3V3*%
X149350000Y-88150000D03*
%TD*%
D35*
%TO.P,U2,1,VBAT*%
%TO.N,/IMU1/3V3*%
X139675000Y-72125000D03*
%TO.P,U2,2,PC13*%
%TO.N,unconnected-(U2-PC13-Pad2)*%
X139675000Y-72625000D03*
%TO.P,U2,3,PC14*%
%TO.N,unconnected-(U2-PC14-Pad3)*%
X139675000Y-73125000D03*
%TO.P,U2,4,PC15*%
%TO.N,unconnected-(U2-PC15-Pad4)*%
X139675000Y-73625000D03*
%TO.P,U2,5,PH0*%
%TO.N,Net-(U2-PH0)*%
X139675000Y-74125000D03*
%TO.P,U2,6,PH1*%
%TO.N,Net-(U2-PH1)*%
X139675000Y-74625000D03*
%TO.P,U2,7,NRST*%
%TO.N,unconnected-(U2-NRST-Pad7)*%
X139675000Y-75125000D03*
%TO.P,U2,8,PC0*%
%TO.N,unconnected-(U2-PC0-Pad8)*%
X139675000Y-75625000D03*
%TO.P,U2,9,PC1*%
%TO.N,unconnected-(U2-PC1-Pad9)*%
X139675000Y-76125000D03*
%TO.P,U2,10,PC2*%
%TO.N,unconnected-(U2-PC2-Pad10)*%
X139675000Y-76625000D03*
%TO.P,U2,11,PC3*%
%TO.N,unconnected-(U2-PC3-Pad11)*%
X139675000Y-77125000D03*
%TO.P,U2,12,VSSA*%
%TO.N,GND*%
X139675000Y-77625000D03*
%TO.P,U2,13,VDDA*%
%TO.N,/IMU1/3V3*%
X139675000Y-78125000D03*
%TO.P,U2,14,PA0*%
%TO.N,unconnected-(U2-PA0-Pad14)*%
X139675000Y-78625000D03*
%TO.P,U2,15,PA1*%
%TO.N,/STM32/RX4*%
X139675000Y-79125000D03*
%TO.P,U2,16,PA2*%
%TO.N,/STM32/S4*%
X139675000Y-79625000D03*
D36*
%TO.P,U2,17,PA3*%
%TO.N,/STM32/S1*%
X141600000Y-81550000D03*
%TO.P,U2,18,VSS*%
%TO.N,GND*%
X142100000Y-81550000D03*
%TO.P,U2,19,VDD*%
%TO.N,/IMU1/3V3*%
X142600000Y-81550000D03*
%TO.P,U2,20,PA4*%
%TO.N,/STM32/AP_CS*%
X143100000Y-81550000D03*
%TO.P,U2,21,PA5*%
%TO.N,/STM32/AP_SCLK*%
X143600000Y-81550000D03*
%TO.P,U2,22,PA6*%
%TO.N,/STM32/AP_SDO*%
X144100000Y-81550000D03*
%TO.P,U2,23,PA7*%
%TO.N,/STM32/AP_SDI*%
X144600000Y-81550000D03*
%TO.P,U2,24,PC4*%
%TO.N,/STM32/INT2*%
X145100000Y-81550000D03*
%TO.P,U2,25,PC5*%
%TO.N,Net-(U2-PC5)*%
X145600000Y-81550000D03*
%TO.P,U2,26,PB0*%
%TO.N,/STM32/S2*%
X146100000Y-81550000D03*
%TO.P,U2,27,PB1*%
%TO.N,/STM32/S3*%
X146600000Y-81550000D03*
%TO.P,U2,28,PB2*%
%TO.N,/STM32/INT1*%
X147100000Y-81550000D03*
%TO.P,U2,29,PB10*%
%TO.N,unconnected-(U2-PB10-Pad29)*%
X147600000Y-81550000D03*
%TO.P,U2,30,PB11*%
%TO.N,unconnected-(U2-PB11-Pad30)*%
X148100000Y-81550000D03*
%TO.P,U2,31,VCAP_1*%
%TO.N,Net-(U2-VCAP_1)*%
X148600000Y-81550000D03*
%TO.P,U2,32,VDD*%
%TO.N,/IMU1/3V3*%
X149100000Y-81550000D03*
D35*
%TO.P,U2,33,PB12*%
%TO.N,unconnected-(U2-PB12-Pad33)*%
X151025000Y-79625000D03*
%TO.P,U2,34,PB13*%
%TO.N,unconnected-(U2-PB13-Pad34)*%
X151025000Y-79125000D03*
%TO.P,U2,35,PB14*%
%TO.N,unconnected-(U2-PB14-Pad35)*%
X151025000Y-78625000D03*
%TO.P,U2,36,PB15*%
%TO.N,unconnected-(U2-PB15-Pad36)*%
X151025000Y-78125000D03*
%TO.P,U2,37,PC6*%
%TO.N,unconnected-(U2-PC6-Pad37)*%
X151025000Y-77625000D03*
%TO.P,U2,38,PC7*%
%TO.N,unconnected-(U2-PC7-Pad38)*%
X151025000Y-77125000D03*
%TO.P,U2,39,PC8*%
%TO.N,unconnected-(U2-PC8-Pad39)*%
X151025000Y-76625000D03*
%TO.P,U2,40,PC9*%
%TO.N,unconnected-(U2-PC9-Pad40)*%
X151025000Y-76125000D03*
%TO.P,U2,41,PA8*%
%TO.N,unconnected-(U2-PA8-Pad41)*%
X151025000Y-75625000D03*
%TO.P,U2,42,PA9*%
%TO.N,unconnected-(U2-PA9-Pad42)*%
X151025000Y-75125000D03*
%TO.P,U2,43,PA10*%
%TO.N,unconnected-(U2-PA10-Pad43)*%
X151025000Y-74625000D03*
%TO.P,U2,44,PA11*%
%TO.N,Net-(U2-PA11)*%
X151025000Y-74125000D03*
%TO.P,U2,45,PA12*%
%TO.N,Net-(U2-PA12)*%
X151025000Y-73625000D03*
%TO.P,U2,46,PA13*%
%TO.N,unconnected-(U2-PA13-Pad46)*%
X151025000Y-73125000D03*
%TO.P,U2,47,VCAP_2*%
%TO.N,Net-(U2-VCAP_2)*%
X151025000Y-72625000D03*
%TO.P,U2,48,VDD*%
%TO.N,/IMU1/3V3*%
X151025000Y-72125000D03*
D36*
%TO.P,U2,49,PA14*%
%TO.N,unconnected-(U2-PA14-Pad49)*%
X149100000Y-70200000D03*
%TO.P,U2,50,PA15*%
%TO.N,unconnected-(U2-PA15-Pad50)*%
X148600000Y-70200000D03*
%TO.P,U2,51,PC10*%
%TO.N,unconnected-(U2-PC10-Pad51)*%
X148100000Y-70200000D03*
%TO.P,U2,52,PC11*%
%TO.N,unconnected-(U2-PC11-Pad52)*%
X147600000Y-70200000D03*
%TO.P,U2,53,PC12*%
%TO.N,unconnected-(U2-PC12-Pad53)*%
X147100000Y-70200000D03*
%TO.P,U2,54,PD2*%
%TO.N,/STM32/RX_SBUS*%
X146600000Y-70200000D03*
%TO.P,U2,55,PB3*%
%TO.N,unconnected-(U2-PB3-Pad55)*%
X146100000Y-70200000D03*
%TO.P,U2,56,PB4*%
%TO.N,/LEDs/LED1*%
X145600000Y-70200000D03*
%TO.P,U2,57,PB5*%
%TO.N,/LEDs/LED2*%
X145100000Y-70200000D03*
%TO.P,U2,58,PB6*%
%TO.N,unconnected-(U2-PB6-Pad58)*%
X144600000Y-70200000D03*
%TO.P,U2,59,PB7*%
%TO.N,unconnected-(U2-PB7-Pad59)*%
X144100000Y-70200000D03*
%TO.P,U2,60,BOOT0*%
%TO.N,/IMU1/3V3*%
X143600000Y-70200000D03*
%TO.P,U2,61,PB8*%
%TO.N,unconnected-(U2-PB8-Pad61)*%
X143100000Y-70200000D03*
%TO.P,U2,62,PB9*%
%TO.N,unconnected-(U2-PB9-Pad62)*%
X142600000Y-70200000D03*
%TO.P,U2,63,VSS*%
%TO.N,GND*%
X142100000Y-70200000D03*
%TO.P,U2,64,VDD*%
%TO.N,/IMU1/3V3*%
X141600000Y-70200000D03*
%TD*%
D11*
%TO.P,C10,1*%
%TO.N,GND*%
X137150000Y-69160000D03*
%TO.P,C10,2*%
%TO.N,/IMU1/3V3*%
X137150000Y-68200000D03*
%TD*%
D12*
%TO.P,D3,1,K*%
%TO.N,GND*%
X144594000Y-62912500D03*
%TO.P,D3,2,A*%
%TO.N,Net-(D3-A)*%
X144594000Y-64487500D03*
%TD*%
D11*
%TO.P,C5,1*%
%TO.N,/IMU1/3V3*%
X151850000Y-70605000D03*
%TO.P,C5,2*%
%TO.N,GND*%
X151850000Y-69645000D03*
%TD*%
D16*
%TO.P,J22,1,Pin_1*%
%TO.N,/STM32/RX4*%
X129350000Y-80350000D03*
%TD*%
D37*
%TO.N,GND*%
X159800000Y-75250000D03*
X163150000Y-57150000D03*
X135195000Y-76450000D03*
X162650000Y-57650000D03*
X127250000Y-53150000D03*
X162850000Y-52750000D03*
X140195000Y-82855000D03*
X134800000Y-79050000D03*
X129855231Y-88891616D03*
X134350000Y-70960000D03*
X137650000Y-77100000D03*
X147195000Y-85450000D03*
X150650000Y-87150000D03*
X126450000Y-53150000D03*
X144695000Y-61950000D03*
X149695000Y-59450000D03*
X129450000Y-63150000D03*
X159030144Y-89418728D03*
X131450000Y-52550000D03*
X128850000Y-88850000D03*
X139800000Y-59500000D03*
X157850000Y-52750000D03*
X129950000Y-89650000D03*
X146195000Y-88850000D03*
X132250000Y-52550000D03*
X161195000Y-79450000D03*
X142195000Y-68950000D03*
X163250000Y-58250000D03*
X158750000Y-52750000D03*
X146195000Y-61950000D03*
X133850000Y-88950000D03*
X163030144Y-88618728D03*
X163650000Y-51950000D03*
X162050000Y-58250000D03*
X134050000Y-89650000D03*
X138000000Y-68897646D03*
X134850000Y-88950000D03*
X157650000Y-51950000D03*
X161195000Y-68950000D03*
X144195000Y-89950000D03*
X131550000Y-53350000D03*
X127250000Y-52450000D03*
X132350000Y-53350000D03*
X129050000Y-89650000D03*
X163650000Y-52850000D03*
X162850000Y-54250000D03*
X162050000Y-57050000D03*
X152150000Y-68850000D03*
X162750000Y-52050000D03*
X151650000Y-89650000D03*
X163930144Y-88618728D03*
X158030144Y-88618728D03*
X136695000Y-71450000D03*
X158930144Y-88618728D03*
X134450000Y-66750000D03*
X163130144Y-89418728D03*
X134850000Y-89650000D03*
X153695000Y-67950000D03*
X158230144Y-89418728D03*
X126350000Y-52450000D03*
X158634304Y-51942746D03*
X153597500Y-71852500D03*
X163950000Y-89350000D03*
X151195000Y-82950000D03*
X143195000Y-59950000D03*
%TO.N,/IMU1/3V3*%
X147728550Y-87483550D03*
X151550000Y-88500000D03*
X141919265Y-83574265D03*
X142695000Y-86950000D03*
X151058626Y-70445000D03*
X149695000Y-57450000D03*
X134800000Y-78100000D03*
X135750000Y-67050000D03*
X143695000Y-54450000D03*
X150195000Y-81950000D03*
X140695000Y-68950000D03*
X138695000Y-70950000D03*
X140000000Y-65275000D03*
X145678152Y-86950000D03*
%TO.N,Net-(STM3V3-IN)*%
X150950000Y-64250000D03*
X148450000Y-55250000D03*
%TO.N,/STM32/BATT*%
X127450000Y-88850000D03*
X134750000Y-53350000D03*
X160950000Y-61650000D03*
X159650000Y-61750000D03*
X156050000Y-52250000D03*
X133850000Y-52550000D03*
X158250000Y-61700000D03*
X126450000Y-89650000D03*
X127450000Y-89650000D03*
X126450000Y-88850000D03*
X158850000Y-61700000D03*
X156430144Y-88618728D03*
X160350000Y-61700000D03*
X156350000Y-53050000D03*
X156430144Y-89418728D03*
X155350000Y-52850000D03*
X134850000Y-52550000D03*
X155530144Y-88618728D03*
X133950000Y-53350000D03*
X155630144Y-89318728D03*
X161550000Y-61750000D03*
X155350000Y-51850000D03*
%TO.N,/STM32/S3*%
X152195000Y-81950000D03*
X147195000Y-79450000D03*
%TO.N,Net-(U2-PC5)*%
X145963517Y-82822065D03*
X148775000Y-84375000D03*
%TO.N,/STM32/AP_CS*%
X146296000Y-84551000D03*
X142695000Y-83950000D03*
%TO.N,/STM32/AP_SCLK*%
X143195000Y-84950000D03*
X145200000Y-84450000D03*
%TO.N,/STM32/5V_USB1*%
X159100000Y-72700000D03*
X159100000Y-76200000D03*
%TO.N,/STM32/RX_SBUS*%
X137750000Y-69850000D03*
X145950000Y-71650000D03*
%TD*%
D38*
%TO.N,GND*%
X159850000Y-75300000D02*
X159800000Y-75250000D01*
X161019000Y-75300000D02*
X159850000Y-75300000D01*
X134350000Y-70960000D02*
X134350000Y-71050000D01*
X163250000Y-53850000D02*
X162850000Y-54250000D01*
X149420000Y-83200000D02*
X150445000Y-83200000D01*
X151955000Y-69700000D02*
X152150000Y-69505000D01*
X161195000Y-78450000D02*
X161195000Y-79450000D01*
X150600000Y-89730000D02*
X149380000Y-89730000D01*
X152150000Y-69505000D02*
X152150000Y-68850000D01*
X162622500Y-77022500D02*
X161195000Y-78450000D01*
X135250000Y-75125000D02*
X135250000Y-76395000D01*
X162422500Y-71177500D02*
X163775000Y-69825000D01*
X150600000Y-89730000D02*
X151570000Y-89730000D01*
X152850000Y-69645000D02*
X153850000Y-69645000D01*
X160775000Y-71775000D02*
X161825000Y-71775000D01*
X134855000Y-79105000D02*
X134800000Y-79050000D01*
X138000000Y-68897646D02*
X137412354Y-68897646D01*
X146195000Y-88950000D02*
X145695000Y-88450000D01*
X144600000Y-62045000D02*
X144695000Y-61950000D01*
X138175000Y-77625000D02*
X139675000Y-77625000D01*
X133240000Y-67950000D02*
X134440000Y-66750000D01*
X162422500Y-72647500D02*
X162422500Y-71177500D01*
X145695000Y-88450000D02*
X145695000Y-87780000D01*
X146120000Y-62912500D02*
X146120000Y-62025000D01*
X144600000Y-62912500D02*
X144600000Y-62045000D01*
X152150000Y-68850000D02*
X151975000Y-69025000D01*
X149380000Y-89730000D02*
X149350000Y-89700000D01*
X135250000Y-76395000D02*
X135195000Y-76450000D01*
X133240000Y-69850000D02*
X134350000Y-70960000D01*
X134450000Y-89450000D02*
X134450000Y-88850000D01*
X146195000Y-88850000D02*
X146195000Y-87780000D01*
X150650000Y-87150000D02*
X150100000Y-86600000D01*
X135850000Y-79105000D02*
X134855000Y-79105000D01*
X147195000Y-85780000D02*
X147195000Y-85450000D01*
X142100000Y-70200000D02*
X142100000Y-69045000D01*
X162172500Y-69927500D02*
X161195000Y-68950000D01*
X162622500Y-77022500D02*
X163775000Y-78175000D01*
X144195000Y-89950000D02*
X144145000Y-89900000D01*
X134440000Y-66750000D02*
X134450000Y-66750000D01*
X140195000Y-82855000D02*
X140790000Y-83450000D01*
X150100000Y-86600000D02*
X150100000Y-86025000D01*
X162172500Y-71427500D02*
X162422500Y-71177500D01*
X137650000Y-77100000D02*
X138175000Y-77625000D01*
X136850000Y-72925000D02*
X136850000Y-71605000D01*
X155195000Y-67900000D02*
X153745000Y-67900000D01*
X150445000Y-83200000D02*
X150695000Y-82950000D01*
X141195000Y-83450000D02*
X142100000Y-82545000D01*
X153745000Y-67900000D02*
X153695000Y-67950000D01*
X152850000Y-69805000D02*
X152745000Y-69700000D01*
X127050000Y-63150000D02*
X129450000Y-63150000D01*
X162622500Y-75152500D02*
X162622500Y-77022500D01*
X163775000Y-74000000D02*
X162422500Y-72647500D01*
X142100000Y-82545000D02*
X142100000Y-81550000D01*
X146120000Y-62025000D02*
X146195000Y-61950000D01*
X163775000Y-74000000D02*
X162622500Y-75152500D01*
X139800000Y-59500000D02*
X140020000Y-59280000D01*
X146860000Y-86115000D02*
X147195000Y-85780000D01*
X142100000Y-69045000D02*
X142195000Y-68950000D01*
X150695000Y-82950000D02*
X151195000Y-82950000D01*
X151850000Y-69645000D02*
X152850000Y-69645000D01*
X163250000Y-52450000D02*
X163250000Y-53850000D01*
X153597500Y-71852500D02*
X153825000Y-72080000D01*
X162172500Y-71427500D02*
X162172500Y-69927500D01*
X142695000Y-89900000D02*
X144145000Y-89900000D01*
X161825000Y-76225000D02*
X162622500Y-77022500D01*
X136850000Y-79105000D02*
X135850000Y-79105000D01*
X137412354Y-68897646D02*
X137150000Y-69160000D01*
X143195000Y-58400000D02*
X143195000Y-59950000D01*
X136850000Y-71605000D02*
X136695000Y-71450000D01*
X153825000Y-72080000D02*
X153825000Y-72625000D01*
X149745000Y-59500000D02*
X149695000Y-59450000D01*
X161825000Y-71775000D02*
X162172500Y-71427500D01*
X151570000Y-89730000D02*
X151650000Y-89650000D01*
X160775000Y-76225000D02*
X161825000Y-76225000D01*
X151600000Y-59500000D02*
X149745000Y-59500000D01*
X140790000Y-83450000D02*
X141195000Y-83450000D01*
X140020000Y-59280000D02*
X140020000Y-57600000D01*
X146195000Y-88850000D02*
X146195000Y-88950000D01*
%TO.N,/IMU1/3V3*%
X151850000Y-70605000D02*
X151218626Y-70605000D01*
X140695000Y-69295000D02*
X141600000Y-70200000D01*
X153850000Y-70605000D02*
X152850000Y-70605000D01*
X149945000Y-57200000D02*
X149695000Y-57450000D01*
X145195000Y-87433152D02*
X145678152Y-86950000D01*
X149500000Y-81950000D02*
X150195000Y-81950000D01*
X136000000Y-68200000D02*
X135750000Y-67950000D01*
X151600000Y-57200000D02*
X149945000Y-57200000D01*
X145195000Y-87780000D02*
X145195000Y-87433152D01*
X147597100Y-87615000D02*
X147728550Y-87483550D01*
X136850000Y-78145000D02*
X135850000Y-78145000D01*
X142600000Y-82855000D02*
X142600000Y-81550000D01*
X139675000Y-78125000D02*
X137030000Y-78125000D01*
X136862500Y-65275000D02*
X140000000Y-65275000D01*
X152850000Y-70605000D02*
X151850000Y-70605000D01*
X150600000Y-88770000D02*
X151280000Y-88770000D01*
X143195000Y-54950000D02*
X143695000Y-54450000D01*
X137150000Y-68200000D02*
X136000000Y-68200000D01*
X151218626Y-70605000D02*
X151058626Y-70445000D01*
X143195000Y-56500000D02*
X143195000Y-54950000D01*
X151280000Y-88770000D02*
X151550000Y-88500000D01*
X146860000Y-87615000D02*
X147597100Y-87615000D01*
X141919265Y-83574265D02*
X141919265Y-83535735D01*
X138695000Y-71145000D02*
X138695000Y-70950000D01*
X135850000Y-78145000D02*
X134845000Y-78145000D01*
X151850000Y-71300000D02*
X151850000Y-70605000D01*
X151025000Y-72125000D02*
X151850000Y-71300000D01*
X139675000Y-72125000D02*
X138695000Y-71145000D01*
X140695000Y-69295000D02*
X140695000Y-68950000D01*
X149980000Y-88150000D02*
X150600000Y-88770000D01*
X145800000Y-57200000D02*
X143895000Y-57200000D01*
X135750000Y-67950000D02*
X135750000Y-67050000D01*
X142695000Y-88000000D02*
X142695000Y-86950000D01*
X143600000Y-66012500D02*
X142862500Y-65275000D01*
X149350000Y-88150000D02*
X149980000Y-88150000D01*
X149100000Y-81550000D02*
X149500000Y-81950000D01*
X134845000Y-78145000D02*
X134800000Y-78100000D01*
X140000000Y-65275000D02*
X142862500Y-65275000D01*
X141919265Y-83535735D02*
X142600000Y-82855000D01*
X143895000Y-57200000D02*
X143195000Y-56500000D01*
X143600000Y-70200000D02*
X143600000Y-66012500D01*
%TO.N,Net-(U2-VCAP_2)*%
X153185000Y-72625000D02*
X151025000Y-72625000D01*
%TO.N,Net-(U2-VCAP_1)*%
X148600000Y-83020000D02*
X148600000Y-81550000D01*
X148780000Y-83200000D02*
X148600000Y-83020000D01*
%TO.N,Net-(STM3V3-IN)*%
X155195000Y-66000000D02*
X152700000Y-66000000D01*
X157725000Y-66200000D02*
X155395000Y-66200000D01*
X152700000Y-66000000D02*
X150950000Y-64250000D01*
X148800000Y-54900000D02*
X151600000Y-54900000D01*
X155395000Y-66200000D02*
X155195000Y-66000000D01*
X148450000Y-55250000D02*
X148800000Y-54900000D01*
D39*
%TO.N,/STM32/BATT*%
X159650000Y-61750000D02*
X159650000Y-65200000D01*
X159650000Y-65200000D02*
X159600000Y-65250000D01*
X161150000Y-61650000D02*
X162650000Y-60150000D01*
X161050000Y-61750000D02*
X159650000Y-61750000D01*
X159650000Y-61750000D02*
X158850000Y-61750000D01*
X160950000Y-61650000D02*
X161150000Y-61650000D01*
D38*
%TO.N,Net-(D2-A)*%
X146100000Y-66050000D02*
X146100000Y-64487500D01*
%TO.N,Net-(D3-A)*%
X144600000Y-66050000D02*
X144600000Y-64487500D01*
%TO.N,/STM32/USB_N*%
X157400000Y-73050000D02*
X157375000Y-73075000D01*
X161100000Y-73350000D02*
X157650000Y-73350000D01*
X157650000Y-73350000D02*
X157375000Y-73075000D01*
%TO.N,/STM32/USB_P*%
X157950000Y-74000000D02*
X157375000Y-74575000D01*
X161100000Y-74000000D02*
X157950000Y-74000000D01*
%TO.N,/STM32/S1*%
X141600000Y-71500000D02*
X129560000Y-59460000D01*
X129560000Y-59460000D02*
X129560000Y-52700000D01*
X141600000Y-81550000D02*
X141600000Y-71500000D01*
%TO.N,/STM32/S2*%
X149551000Y-71057824D02*
X149551000Y-63849000D01*
X146100000Y-81550000D02*
X146100000Y-74508824D01*
X154250000Y-58150000D02*
X157350000Y-55050000D01*
X149551000Y-63849000D02*
X154250000Y-59150000D01*
X154250000Y-59150000D02*
X154250000Y-58150000D01*
X157350000Y-55050000D02*
X160250000Y-55050000D01*
X160250000Y-55050000D02*
X160655000Y-54645000D01*
X160655000Y-54645000D02*
X160655000Y-52950000D01*
X146100000Y-74508824D02*
X149551000Y-71057824D01*
%TO.N,/STM32/S3*%
X152195000Y-81950000D02*
X152571000Y-82326000D01*
X157237416Y-85226000D02*
X161030144Y-89018728D01*
X146600000Y-81550000D02*
X146600000Y-80045000D01*
X152571000Y-84826000D02*
X152971000Y-85226000D01*
X161030144Y-89018728D02*
X161030144Y-88813728D01*
X146600000Y-80045000D02*
X147195000Y-79450000D01*
X152571000Y-82326000D02*
X152571000Y-84826000D01*
X152971000Y-85226000D02*
X157237416Y-85226000D01*
%TO.N,/STM32/S4*%
X139675000Y-81725000D02*
X131950000Y-89450000D01*
X139675000Y-79625000D02*
X139675000Y-81725000D01*
%TO.N,Net-(R1-Pad1)*%
X136862500Y-61525000D02*
X142862500Y-61525000D01*
X136862500Y-61525000D02*
X136862500Y-59107500D01*
X136862500Y-59107500D02*
X138370000Y-57600000D01*
%TO.N,Net-(U2-PA12)*%
X155725000Y-73075000D02*
X155175000Y-73625000D01*
X155175000Y-73625000D02*
X151025000Y-73625000D01*
%TO.N,Net-(U2-PA11)*%
X155275000Y-74125000D02*
X151025000Y-74125000D01*
X155725000Y-74575000D02*
X155275000Y-74125000D01*
%TO.N,Net-(U2-PC5)*%
X145649000Y-81550000D02*
X145600000Y-81550000D01*
X150100000Y-84375000D02*
X148775000Y-84375000D01*
X150100000Y-84375000D02*
X150100000Y-84200000D01*
X145963517Y-82822065D02*
X145600000Y-82458548D01*
X151795000Y-84375000D02*
X151870000Y-84450000D01*
X145600000Y-82458548D02*
X145600000Y-81550000D01*
X150100000Y-84375000D02*
X151795000Y-84375000D01*
%TO.N,/LEDs/LED1*%
X146100000Y-67700000D02*
X145600000Y-68200000D01*
X145600000Y-68200000D02*
X145600000Y-70200000D01*
%TO.N,/LEDs/LED2*%
X145100000Y-68200000D02*
X145100000Y-70200000D01*
X144600000Y-67700000D02*
X145100000Y-68200000D01*
%TO.N,/STM32/INT1*%
X148450000Y-85308238D02*
X148450000Y-85205000D01*
X144530000Y-88285000D02*
X145695000Y-89450000D01*
X144530000Y-87615000D02*
X144530000Y-88285000D01*
X148450000Y-87695000D02*
X148450000Y-86335710D01*
X146695000Y-89450000D02*
X148450000Y-87695000D01*
X145695000Y-89450000D02*
X146695000Y-89450000D01*
X148450000Y-85205000D02*
X147100000Y-83855000D01*
X148450000Y-86335710D02*
X148523000Y-86262710D01*
X147100000Y-83855000D02*
X147100000Y-81550000D01*
X148523000Y-86262710D02*
X148523000Y-85381238D01*
X148523000Y-85381238D02*
X148450000Y-85308238D01*
%TO.N,/STM32/INT2*%
X148195000Y-86126848D02*
X148195000Y-85517100D01*
X147206848Y-87115000D02*
X148195000Y-86126848D01*
X145100000Y-82855000D02*
X145100000Y-81550000D01*
X148195000Y-85517100D02*
X146127900Y-83450000D01*
X145695000Y-83450000D02*
X145100000Y-82855000D01*
X146127900Y-83450000D02*
X145695000Y-83450000D01*
X146860000Y-87115000D02*
X147206848Y-87115000D01*
%TO.N,Net-(U2-PH0)*%
X135550000Y-74125000D02*
X135250000Y-73825000D01*
X139675000Y-74125000D02*
X135550000Y-74125000D01*
X135250000Y-73825000D02*
X135250000Y-72925000D01*
%TO.N,/STM32/AP_CS*%
X146195000Y-85950000D02*
X146296000Y-85849000D01*
X143100000Y-83545000D02*
X143100000Y-81550000D01*
X142695000Y-83950000D02*
X143100000Y-83545000D01*
X146296000Y-85849000D02*
X146296000Y-84551000D01*
%TO.N,/STM32/AP_SCLK*%
X143600000Y-84545000D02*
X143600000Y-81550000D01*
X145695000Y-84945000D02*
X145695000Y-85950000D01*
X143195000Y-84950000D02*
X143600000Y-84545000D01*
X145200000Y-84450000D02*
X145695000Y-84945000D01*
%TO.N,Net-(U2-PH1)*%
X139675000Y-74625000D02*
X137350000Y-74625000D01*
X137350000Y-74625000D02*
X136850000Y-75125000D01*
%TO.N,/STM32/AP_SDO*%
X144530000Y-86115000D02*
X144100000Y-85685000D01*
X144100000Y-85685000D02*
X144100000Y-81550000D01*
%TO.N,/STM32/5V_USB1*%
X161100000Y-72700000D02*
X160425001Y-72700000D01*
X159100000Y-76200000D02*
X159100000Y-79795000D01*
X154445000Y-84450000D02*
X153520000Y-84450000D01*
X161100000Y-72700000D02*
X159100000Y-72700000D01*
X159100000Y-79795000D02*
X154445000Y-84450000D01*
X160425001Y-72700000D02*
X159600000Y-71874999D01*
X159600000Y-71874999D02*
X159600000Y-67150000D01*
%TO.N,/STM32/AP_SDI*%
X145195000Y-85950000D02*
X145195000Y-85450000D01*
X145195000Y-85450000D02*
X144600000Y-84855000D01*
X144600000Y-84855000D02*
X144600000Y-81550000D01*
%TO.N,/STM32/RX_ESP32_IN*%
X133240000Y-68900000D02*
X130000000Y-68900000D01*
X130000000Y-68900000D02*
X126950000Y-65850000D01*
%TO.N,/STM32/RX_SBUS*%
X146650000Y-70950000D02*
X146650000Y-70250000D01*
X137750000Y-69850000D02*
X135750000Y-69850000D01*
X146650000Y-70250000D02*
X146600000Y-70200000D01*
X145950000Y-71650000D02*
X146650000Y-70950000D01*
%TO.N,/STM32/RX4*%
X129350000Y-80350000D02*
X137744414Y-80350000D01*
X137744414Y-80350000D02*
X138969414Y-79125000D01*
X138969414Y-79125000D02*
X139675000Y-79125000D01*
%TD*%
M02*
