%TF.GenerationSoftware,KiCad,Pcbnew,9.0.3*%
%TF.CreationDate,2025-08-28T18:14:41+08:00*%
%TF.ProjectId,STM_Board,53544d5f-426f-4617-9264-2e6b69636164,rev?*%
%TF.SameCoordinates,Original*%
%TF.FileFunction,Paste,Top*%
%TF.FilePolarity,Positive*%
%FSLAX46Y46*%
G04 Gerber Fmt 4.6, Leading zero omitted, Abs format (unit mm)*
G04 Created by KiCad (PCBNEW 9.0.3) date 2025-08-28 18:14:41*
%MOMM*%
%LPD*%
G01*
G04 APERTURE LIST*
G04 Aperture macros list*
%AMRoundRect*
0 Rectangle with rounded corners*
0 $1 Rounding radius*
0 $2 $3 $4 $5 $6 $7 $8 $9 X,Y pos of 4 corners*
0 Add a 4 corners polygon primitive as box body*
4,1,4,$2,$3,$4,$5,$6,$7,$8,$9,$2,$3,0*
0 Add four circle primitives for the rounded corners*
1,1,$1+$1,$2,$3*
1,1,$1+$1,$4,$5*
1,1,$1+$1,$6,$7*
1,1,$1+$1,$8,$9*
0 Add four rect primitives between the rounded corners*
20,1,$1+$1,$2,$3,$4,$5,0*
20,1,$1+$1,$4,$5,$6,$7,0*
20,1,$1+$1,$6,$7,$8,$9,0*
20,1,$1+$1,$8,$9,$2,$3,0*%
G04 Aperture macros list end*
%ADD10RoundRect,0.300000X-0.700000X0.700000X-0.700000X-0.700000X0.700000X-0.700000X0.700000X0.700000X0*%
%ADD11RoundRect,0.140000X0.170000X-0.140000X0.170000X0.140000X-0.170000X0.140000X-0.170000X-0.140000X0*%
%ADD12RoundRect,0.218750X-0.256250X0.218750X-0.256250X-0.218750X0.256250X-0.218750X0.256250X0.218750X0*%
%ADD13RoundRect,0.200000X-0.275000X0.200000X-0.275000X-0.200000X0.275000X-0.200000X0.275000X0.200000X0*%
%ADD14RoundRect,0.150000X0.587500X0.150000X-0.587500X0.150000X-0.587500X-0.150000X0.587500X-0.150000X0*%
%ADD15RoundRect,0.140000X-0.140000X-0.170000X0.140000X-0.170000X0.140000X0.170000X-0.140000X0.170000X0*%
%ADD16RoundRect,0.300000X-0.700000X-0.700000X0.700000X-0.700000X0.700000X0.700000X-0.700000X0.700000X0*%
%ADD17RoundRect,0.140000X-0.170000X0.140000X-0.170000X-0.140000X0.170000X-0.140000X0.170000X0.140000X0*%
%ADD18R,1.200000X1.400000*%
%ADD19RoundRect,0.087500X-0.207500X-0.087500X0.207500X-0.087500X0.207500X0.087500X-0.207500X0.087500X0*%
%ADD20RoundRect,0.087500X-0.087500X-0.207500X0.087500X-0.207500X0.087500X0.207500X-0.087500X0.207500X0*%
%ADD21RoundRect,0.250000X-0.475000X0.250000X-0.475000X-0.250000X0.475000X-0.250000X0.475000X0.250000X0*%
%ADD22RoundRect,0.147500X-0.457500X-0.147500X0.457500X-0.147500X0.457500X0.147500X-0.457500X0.147500X0*%
%ADD23RoundRect,0.200000X-0.200000X-0.275000X0.200000X-0.275000X0.200000X0.275000X-0.200000X0.275000X0*%
%ADD24R,1.000000X0.750000*%
%ADD25RoundRect,0.200000X0.200000X0.275000X-0.200000X0.275000X-0.200000X-0.275000X0.200000X-0.275000X0*%
%ADD26RoundRect,0.300000X0.700000X-0.700000X0.700000X0.700000X-0.700000X0.700000X-0.700000X-0.700000X0*%
%ADD27R,0.850000X0.300000*%
%ADD28RoundRect,0.100000X0.575000X-0.100000X0.575000X0.100000X-0.575000X0.100000X-0.575000X-0.100000X0*%
%ADD29RoundRect,0.250000X0.700000X-1.200000X0.700000X1.200000X-0.700000X1.200000X-0.700000X-1.200000X0*%
%ADD30R,2.150000X1.000000*%
%ADD31R,2.150000X3.250000*%
%ADD32RoundRect,0.225000X0.250000X-0.225000X0.250000X0.225000X-0.250000X0.225000X-0.250000X-0.225000X0*%
%ADD33RoundRect,0.075000X-0.700000X-0.075000X0.700000X-0.075000X0.700000X0.075000X-0.700000X0.075000X0*%
%ADD34RoundRect,0.075000X-0.075000X-0.700000X0.075000X-0.700000X0.075000X0.700000X-0.075000X0.700000X0*%
G04 APERTURE END LIST*
D10*
%TO.C,J5*%
X126950000Y-89450000D03*
X129450000Y-89450000D03*
X131950000Y-89450000D03*
X134450000Y-89450000D03*
%TD*%
D11*
%TO.C,C20*%
X150600000Y-89730000D03*
X150600000Y-88770000D03*
%TD*%
D12*
%TO.C,D2*%
X146194000Y-62912500D03*
X146194000Y-64487500D03*
%TD*%
D13*
%TO.C,R6*%
X146100000Y-66050000D03*
X146100000Y-67700000D03*
%TD*%
D14*
%TO.C,D1*%
X159600000Y-67150000D03*
X159600000Y-65250000D03*
X157725000Y-66200000D03*
%TD*%
D15*
%TO.C,C7*%
X148620000Y-83200000D03*
X149580000Y-83200000D03*
%TD*%
D16*
%TO.C,J21*%
X127050000Y-63150000D03*
%TD*%
D17*
%TO.C,C3*%
X135850000Y-78145000D03*
X135850000Y-79105000D03*
%TD*%
D18*
%TO.C,Y2*%
X136850000Y-75125000D03*
X136850000Y-72925000D03*
X135250000Y-72925000D03*
X135250000Y-75125000D03*
%TD*%
D19*
%TO.C,U4*%
X144530000Y-86115000D03*
X144530000Y-86615000D03*
X144530000Y-87115000D03*
X144530000Y-87615000D03*
D20*
X145195000Y-87780000D03*
X145695000Y-87780000D03*
X146195000Y-87780000D03*
D19*
X146860000Y-87615000D03*
X146860000Y-87115000D03*
X146860000Y-86615000D03*
X146860000Y-86115000D03*
D20*
X146195000Y-85950000D03*
X145695000Y-85950000D03*
X145195000Y-85950000D03*
%TD*%
D11*
%TO.C,C1*%
X153850000Y-70605000D03*
X153850000Y-69645000D03*
%TD*%
D21*
%TO.C,C8*%
X143195000Y-56500000D03*
X143195000Y-58400000D03*
%TD*%
D16*
%TO.C,J18*%
X162650000Y-60150000D03*
X162650000Y-57650000D03*
%TD*%
D21*
%TO.C,C22*%
X142695000Y-88000000D03*
X142695000Y-89900000D03*
%TD*%
D22*
%TO.C,U6*%
X133240000Y-67950000D03*
X133240000Y-68900000D03*
X133240000Y-69850000D03*
X135750000Y-69850000D03*
X135750000Y-67950000D03*
%TD*%
D10*
%TO.C,J3*%
X155750000Y-52450000D03*
X158250000Y-52450000D03*
X160750000Y-52450000D03*
X163250000Y-52450000D03*
%TD*%
D21*
%TO.C,CBATT1*%
X155195000Y-66000000D03*
X155195000Y-67900000D03*
%TD*%
D23*
%TO.C,R1*%
X138370000Y-57600000D03*
X140020000Y-57600000D03*
%TD*%
D24*
%TO.C,S2*%
X142862500Y-65275000D03*
X136862500Y-65275000D03*
X142862500Y-61525000D03*
X136862500Y-61525000D03*
%TD*%
D25*
%TO.C,R5*%
X153520000Y-84450000D03*
X151870000Y-84450000D03*
%TD*%
D23*
%TO.C,R2*%
X155725000Y-73075000D03*
X157375000Y-73075000D03*
%TD*%
D11*
%TO.C,C2*%
X152850000Y-70605000D03*
X152850000Y-69645000D03*
%TD*%
D26*
%TO.C,J2*%
X134350000Y-52950000D03*
X131850000Y-52950000D03*
X129350000Y-52950000D03*
X126850000Y-52950000D03*
%TD*%
D16*
%TO.C,J23*%
X126950000Y-65850000D03*
%TD*%
D17*
%TO.C,C4*%
X136850000Y-78145000D03*
X136850000Y-79105000D03*
%TD*%
D10*
%TO.C,J4*%
X156030144Y-89018728D03*
X158530144Y-89018728D03*
X161030144Y-89018728D03*
X163530144Y-89018728D03*
%TD*%
D27*
%TO.C,J1*%
X163694000Y-77500000D03*
X163694000Y-70500000D03*
D28*
X161019000Y-72700000D03*
X161019000Y-73350000D03*
X161019000Y-74000000D03*
X161019000Y-74650000D03*
X161019000Y-75300000D03*
D29*
X163694000Y-74000000D03*
%TD*%
D23*
%TO.C,R3*%
X155725000Y-74575000D03*
X157375000Y-74575000D03*
%TD*%
D30*
%TO.C,STM3V3*%
X151600000Y-59500000D03*
X151600000Y-57200000D03*
X151600000Y-54900000D03*
D31*
X145800000Y-57200000D03*
%TD*%
D15*
%TO.C,C6*%
X153025000Y-72625000D03*
X153985000Y-72625000D03*
%TD*%
D13*
%TO.C,R7*%
X144600000Y-66050000D03*
X144600000Y-67700000D03*
%TD*%
%TO.C,R4*%
X150100000Y-84375000D03*
X150100000Y-86025000D03*
%TD*%
D32*
%TO.C,C21*%
X149350000Y-89700000D03*
X149350000Y-88150000D03*
%TD*%
D33*
%TO.C,U2*%
X139675000Y-72125000D03*
X139675000Y-72625000D03*
X139675000Y-73125000D03*
X139675000Y-73625000D03*
X139675000Y-74125000D03*
X139675000Y-74625000D03*
X139675000Y-75125000D03*
X139675000Y-75625000D03*
X139675000Y-76125000D03*
X139675000Y-76625000D03*
X139675000Y-77125000D03*
X139675000Y-77625000D03*
X139675000Y-78125000D03*
X139675000Y-78625000D03*
X139675000Y-79125000D03*
X139675000Y-79625000D03*
D34*
X141600000Y-81550000D03*
X142100000Y-81550000D03*
X142600000Y-81550000D03*
X143100000Y-81550000D03*
X143600000Y-81550000D03*
X144100000Y-81550000D03*
X144600000Y-81550000D03*
X145100000Y-81550000D03*
X145600000Y-81550000D03*
X146100000Y-81550000D03*
X146600000Y-81550000D03*
X147100000Y-81550000D03*
X147600000Y-81550000D03*
X148100000Y-81550000D03*
X148600000Y-81550000D03*
X149100000Y-81550000D03*
D33*
X151025000Y-79625000D03*
X151025000Y-79125000D03*
X151025000Y-78625000D03*
X151025000Y-78125000D03*
X151025000Y-77625000D03*
X151025000Y-77125000D03*
X151025000Y-76625000D03*
X151025000Y-76125000D03*
X151025000Y-75625000D03*
X151025000Y-75125000D03*
X151025000Y-74625000D03*
X151025000Y-74125000D03*
X151025000Y-73625000D03*
X151025000Y-73125000D03*
X151025000Y-72625000D03*
X151025000Y-72125000D03*
D34*
X149100000Y-70200000D03*
X148600000Y-70200000D03*
X148100000Y-70200000D03*
X147600000Y-70200000D03*
X147100000Y-70200000D03*
X146600000Y-70200000D03*
X146100000Y-70200000D03*
X145600000Y-70200000D03*
X145100000Y-70200000D03*
X144600000Y-70200000D03*
X144100000Y-70200000D03*
X143600000Y-70200000D03*
X143100000Y-70200000D03*
X142600000Y-70200000D03*
X142100000Y-70200000D03*
X141600000Y-70200000D03*
%TD*%
D11*
%TO.C,C10*%
X137150000Y-69160000D03*
X137150000Y-68200000D03*
%TD*%
D12*
%TO.C,D3*%
X144594000Y-62912500D03*
X144594000Y-64487500D03*
%TD*%
D11*
%TO.C,C5*%
X151850000Y-70605000D03*
X151850000Y-69645000D03*
%TD*%
D16*
%TO.C,J22*%
X129350000Y-80350000D03*
%TD*%
M02*
