%TF.GenerationSoftware,KiCad,Pcbnew,9.0.3*%
%TF.CreationDate,2025-08-28T18:14:41+08:00*%
%TF.ProjectId,STM_Board,53544d5f-426f-4617-9264-2e6b69636164,rev?*%
%TF.SameCoordinates,Original*%
%TF.FileFunction,Legend,Top*%
%TF.FilePolarity,Positive*%
%FSLAX46Y46*%
G04 Gerber Fmt 4.6, Leading zero omitted, Abs format (unit mm)*
G04 Created by KiCad (PCBNEW 9.0.3) date 2025-08-28 18:14:41*
%MOMM*%
%LPD*%
G01*
G04 APERTURE LIST*
%ADD10C,0.100000*%
%ADD11C,0.150000*%
%ADD12C,0.120000*%
%ADD13C,0.127000*%
%ADD14C,0.200000*%
%ADD15C,0.203200*%
G04 APERTURE END LIST*
D10*
X136992580Y-89116666D02*
X136278295Y-89116666D01*
X136278295Y-89116666D02*
X136135438Y-89069047D01*
X136135438Y-89069047D02*
X136040200Y-88973809D01*
X136040200Y-88973809D02*
X135992580Y-88830952D01*
X135992580Y-88830952D02*
X135992580Y-88735714D01*
X136992580Y-90069047D02*
X136992580Y-89592857D01*
X136992580Y-89592857D02*
X136516390Y-89545238D01*
X136516390Y-89545238D02*
X136564009Y-89592857D01*
X136564009Y-89592857D02*
X136611628Y-89688095D01*
X136611628Y-89688095D02*
X136611628Y-89926190D01*
X136611628Y-89926190D02*
X136564009Y-90021428D01*
X136564009Y-90021428D02*
X136516390Y-90069047D01*
X136516390Y-90069047D02*
X136421152Y-90116666D01*
X136421152Y-90116666D02*
X136183057Y-90116666D01*
X136183057Y-90116666D02*
X136087819Y-90069047D01*
X136087819Y-90069047D02*
X136040200Y-90021428D01*
X136040200Y-90021428D02*
X135992580Y-89926190D01*
X135992580Y-89926190D02*
X135992580Y-89688095D01*
X135992580Y-89688095D02*
X136040200Y-89592857D01*
X136040200Y-89592857D02*
X136087819Y-89545238D01*
D11*
X148078819Y-64438094D02*
X147078819Y-64438094D01*
X147078819Y-64438094D02*
X147078819Y-64199999D01*
X147078819Y-64199999D02*
X147126438Y-64057142D01*
X147126438Y-64057142D02*
X147221676Y-63961904D01*
X147221676Y-63961904D02*
X147316914Y-63914285D01*
X147316914Y-63914285D02*
X147507390Y-63866666D01*
X147507390Y-63866666D02*
X147650247Y-63866666D01*
X147650247Y-63866666D02*
X147840723Y-63914285D01*
X147840723Y-63914285D02*
X147935961Y-63961904D01*
X147935961Y-63961904D02*
X148031200Y-64057142D01*
X148031200Y-64057142D02*
X148078819Y-64199999D01*
X148078819Y-64199999D02*
X148078819Y-64438094D01*
X147174057Y-63485713D02*
X147126438Y-63438094D01*
X147126438Y-63438094D02*
X147078819Y-63342856D01*
X147078819Y-63342856D02*
X147078819Y-63104761D01*
X147078819Y-63104761D02*
X147126438Y-63009523D01*
X147126438Y-63009523D02*
X147174057Y-62961904D01*
X147174057Y-62961904D02*
X147269295Y-62914285D01*
X147269295Y-62914285D02*
X147364533Y-62914285D01*
X147364533Y-62914285D02*
X147507390Y-62961904D01*
X147507390Y-62961904D02*
X148078819Y-63533332D01*
X148078819Y-63533332D02*
X148078819Y-62914285D01*
X147984819Y-67041666D02*
X147508628Y-67374999D01*
X147984819Y-67613094D02*
X146984819Y-67613094D01*
X146984819Y-67613094D02*
X146984819Y-67232142D01*
X146984819Y-67232142D02*
X147032438Y-67136904D01*
X147032438Y-67136904D02*
X147080057Y-67089285D01*
X147080057Y-67089285D02*
X147175295Y-67041666D01*
X147175295Y-67041666D02*
X147318152Y-67041666D01*
X147318152Y-67041666D02*
X147413390Y-67089285D01*
X147413390Y-67089285D02*
X147461009Y-67136904D01*
X147461009Y-67136904D02*
X147508628Y-67232142D01*
X147508628Y-67232142D02*
X147508628Y-67613094D01*
X146984819Y-66184523D02*
X146984819Y-66374999D01*
X146984819Y-66374999D02*
X147032438Y-66470237D01*
X147032438Y-66470237D02*
X147080057Y-66517856D01*
X147080057Y-66517856D02*
X147222914Y-66613094D01*
X147222914Y-66613094D02*
X147413390Y-66660713D01*
X147413390Y-66660713D02*
X147794342Y-66660713D01*
X147794342Y-66660713D02*
X147889580Y-66613094D01*
X147889580Y-66613094D02*
X147937200Y-66565475D01*
X147937200Y-66565475D02*
X147984819Y-66470237D01*
X147984819Y-66470237D02*
X147984819Y-66279761D01*
X147984819Y-66279761D02*
X147937200Y-66184523D01*
X147937200Y-66184523D02*
X147889580Y-66136904D01*
X147889580Y-66136904D02*
X147794342Y-66089285D01*
X147794342Y-66089285D02*
X147556247Y-66089285D01*
X147556247Y-66089285D02*
X147461009Y-66136904D01*
X147461009Y-66136904D02*
X147413390Y-66184523D01*
X147413390Y-66184523D02*
X147365771Y-66279761D01*
X147365771Y-66279761D02*
X147365771Y-66470237D01*
X147365771Y-66470237D02*
X147413390Y-66565475D01*
X147413390Y-66565475D02*
X147461009Y-66613094D01*
X147461009Y-66613094D02*
X147556247Y-66660713D01*
X157924405Y-69054819D02*
X157924405Y-68054819D01*
X157924405Y-68054819D02*
X158162500Y-68054819D01*
X158162500Y-68054819D02*
X158305357Y-68102438D01*
X158305357Y-68102438D02*
X158400595Y-68197676D01*
X158400595Y-68197676D02*
X158448214Y-68292914D01*
X158448214Y-68292914D02*
X158495833Y-68483390D01*
X158495833Y-68483390D02*
X158495833Y-68626247D01*
X158495833Y-68626247D02*
X158448214Y-68816723D01*
X158448214Y-68816723D02*
X158400595Y-68911961D01*
X158400595Y-68911961D02*
X158305357Y-69007200D01*
X158305357Y-69007200D02*
X158162500Y-69054819D01*
X158162500Y-69054819D02*
X157924405Y-69054819D01*
X159448214Y-69054819D02*
X158876786Y-69054819D01*
X159162500Y-69054819D02*
X159162500Y-68054819D01*
X159162500Y-68054819D02*
X159067262Y-68197676D01*
X159067262Y-68197676D02*
X158972024Y-68292914D01*
X158972024Y-68292914D02*
X158876786Y-68340533D01*
D10*
X126240476Y-60707419D02*
X126240476Y-61421704D01*
X126240476Y-61421704D02*
X126192857Y-61564561D01*
X126192857Y-61564561D02*
X126097619Y-61659800D01*
X126097619Y-61659800D02*
X125954762Y-61707419D01*
X125954762Y-61707419D02*
X125859524Y-61707419D01*
X126669048Y-60802657D02*
X126716667Y-60755038D01*
X126716667Y-60755038D02*
X126811905Y-60707419D01*
X126811905Y-60707419D02*
X127050000Y-60707419D01*
X127050000Y-60707419D02*
X127145238Y-60755038D01*
X127145238Y-60755038D02*
X127192857Y-60802657D01*
X127192857Y-60802657D02*
X127240476Y-60897895D01*
X127240476Y-60897895D02*
X127240476Y-60993133D01*
X127240476Y-60993133D02*
X127192857Y-61135990D01*
X127192857Y-61135990D02*
X126621429Y-61707419D01*
X126621429Y-61707419D02*
X127240476Y-61707419D01*
X128192857Y-61707419D02*
X127621429Y-61707419D01*
X127907143Y-61707419D02*
X127907143Y-60707419D01*
X127907143Y-60707419D02*
X127811905Y-60850276D01*
X127811905Y-60850276D02*
X127716667Y-60945514D01*
X127716667Y-60945514D02*
X127621429Y-60993133D01*
D11*
X134048809Y-76888628D02*
X134048809Y-77364819D01*
X133715476Y-76364819D02*
X134048809Y-76888628D01*
X134048809Y-76888628D02*
X134382142Y-76364819D01*
X134667857Y-76460057D02*
X134715476Y-76412438D01*
X134715476Y-76412438D02*
X134810714Y-76364819D01*
X134810714Y-76364819D02*
X135048809Y-76364819D01*
X135048809Y-76364819D02*
X135144047Y-76412438D01*
X135144047Y-76412438D02*
X135191666Y-76460057D01*
X135191666Y-76460057D02*
X135239285Y-76555295D01*
X135239285Y-76555295D02*
X135239285Y-76650533D01*
X135239285Y-76650533D02*
X135191666Y-76793390D01*
X135191666Y-76793390D02*
X134620238Y-77364819D01*
X134620238Y-77364819D02*
X135239285Y-77364819D01*
D10*
X163807419Y-59859523D02*
X164521704Y-59859523D01*
X164521704Y-59859523D02*
X164664561Y-59907142D01*
X164664561Y-59907142D02*
X164759800Y-60002380D01*
X164759800Y-60002380D02*
X164807419Y-60145237D01*
X164807419Y-60145237D02*
X164807419Y-60240475D01*
X164807419Y-58859523D02*
X164807419Y-59430951D01*
X164807419Y-59145237D02*
X163807419Y-59145237D01*
X163807419Y-59145237D02*
X163950276Y-59240475D01*
X163950276Y-59240475D02*
X164045514Y-59335713D01*
X164045514Y-59335713D02*
X164093133Y-59430951D01*
X164235990Y-58288094D02*
X164188371Y-58383332D01*
X164188371Y-58383332D02*
X164140752Y-58430951D01*
X164140752Y-58430951D02*
X164045514Y-58478570D01*
X164045514Y-58478570D02*
X163997895Y-58478570D01*
X163997895Y-58478570D02*
X163902657Y-58430951D01*
X163902657Y-58430951D02*
X163855038Y-58383332D01*
X163855038Y-58383332D02*
X163807419Y-58288094D01*
X163807419Y-58288094D02*
X163807419Y-58097618D01*
X163807419Y-58097618D02*
X163855038Y-58002380D01*
X163855038Y-58002380D02*
X163902657Y-57954761D01*
X163902657Y-57954761D02*
X163997895Y-57907142D01*
X163997895Y-57907142D02*
X164045514Y-57907142D01*
X164045514Y-57907142D02*
X164140752Y-57954761D01*
X164140752Y-57954761D02*
X164188371Y-58002380D01*
X164188371Y-58002380D02*
X164235990Y-58097618D01*
X164235990Y-58097618D02*
X164235990Y-58288094D01*
X164235990Y-58288094D02*
X164283609Y-58383332D01*
X164283609Y-58383332D02*
X164331228Y-58430951D01*
X164331228Y-58430951D02*
X164426466Y-58478570D01*
X164426466Y-58478570D02*
X164616942Y-58478570D01*
X164616942Y-58478570D02*
X164712180Y-58430951D01*
X164712180Y-58430951D02*
X164759800Y-58383332D01*
X164759800Y-58383332D02*
X164807419Y-58288094D01*
X164807419Y-58288094D02*
X164807419Y-58097618D01*
X164807419Y-58097618D02*
X164759800Y-58002380D01*
X164759800Y-58002380D02*
X164712180Y-57954761D01*
X164712180Y-57954761D02*
X164616942Y-57907142D01*
X164616942Y-57907142D02*
X164426466Y-57907142D01*
X164426466Y-57907142D02*
X164331228Y-57954761D01*
X164331228Y-57954761D02*
X164283609Y-58002380D01*
X164283609Y-58002380D02*
X164235990Y-58097618D01*
D11*
X134640476Y-65712295D02*
X134640476Y-66359914D01*
X134640476Y-66359914D02*
X134678571Y-66436104D01*
X134678571Y-66436104D02*
X134716666Y-66474200D01*
X134716666Y-66474200D02*
X134792857Y-66512295D01*
X134792857Y-66512295D02*
X134945238Y-66512295D01*
X134945238Y-66512295D02*
X135021428Y-66474200D01*
X135021428Y-66474200D02*
X135059523Y-66436104D01*
X135059523Y-66436104D02*
X135097619Y-66359914D01*
X135097619Y-66359914D02*
X135097619Y-65712295D01*
X135821428Y-65712295D02*
X135669047Y-65712295D01*
X135669047Y-65712295D02*
X135592856Y-65750390D01*
X135592856Y-65750390D02*
X135554761Y-65788485D01*
X135554761Y-65788485D02*
X135478571Y-65902771D01*
X135478571Y-65902771D02*
X135440475Y-66055152D01*
X135440475Y-66055152D02*
X135440475Y-66359914D01*
X135440475Y-66359914D02*
X135478571Y-66436104D01*
X135478571Y-66436104D02*
X135516666Y-66474200D01*
X135516666Y-66474200D02*
X135592856Y-66512295D01*
X135592856Y-66512295D02*
X135745237Y-66512295D01*
X135745237Y-66512295D02*
X135821428Y-66474200D01*
X135821428Y-66474200D02*
X135859523Y-66436104D01*
X135859523Y-66436104D02*
X135897618Y-66359914D01*
X135897618Y-66359914D02*
X135897618Y-66169438D01*
X135897618Y-66169438D02*
X135859523Y-66093247D01*
X135859523Y-66093247D02*
X135821428Y-66055152D01*
X135821428Y-66055152D02*
X135745237Y-66017057D01*
X135745237Y-66017057D02*
X135592856Y-66017057D01*
X135592856Y-66017057D02*
X135516666Y-66055152D01*
X135516666Y-66055152D02*
X135478571Y-66093247D01*
X135478571Y-66093247D02*
X135440475Y-66169438D01*
D10*
X159316666Y-53707419D02*
X159316666Y-54421704D01*
X159316666Y-54421704D02*
X159283333Y-54564561D01*
X159283333Y-54564561D02*
X159216666Y-54659800D01*
X159216666Y-54659800D02*
X159116666Y-54707419D01*
X159116666Y-54707419D02*
X159050000Y-54707419D01*
X159583333Y-53707419D02*
X160016666Y-53707419D01*
X160016666Y-53707419D02*
X159783333Y-54088371D01*
X159783333Y-54088371D02*
X159883333Y-54088371D01*
X159883333Y-54088371D02*
X159949999Y-54135990D01*
X159949999Y-54135990D02*
X159983333Y-54183609D01*
X159983333Y-54183609D02*
X160016666Y-54278847D01*
X160016666Y-54278847D02*
X160016666Y-54516942D01*
X160016666Y-54516942D02*
X159983333Y-54612180D01*
X159983333Y-54612180D02*
X159949999Y-54659800D01*
X159949999Y-54659800D02*
X159883333Y-54707419D01*
X159883333Y-54707419D02*
X159683333Y-54707419D01*
X159683333Y-54707419D02*
X159616666Y-54659800D01*
X159616666Y-54659800D02*
X159583333Y-54612180D01*
D11*
X139028333Y-56624819D02*
X138695000Y-56148628D01*
X138456905Y-56624819D02*
X138456905Y-55624819D01*
X138456905Y-55624819D02*
X138837857Y-55624819D01*
X138837857Y-55624819D02*
X138933095Y-55672438D01*
X138933095Y-55672438D02*
X138980714Y-55720057D01*
X138980714Y-55720057D02*
X139028333Y-55815295D01*
X139028333Y-55815295D02*
X139028333Y-55958152D01*
X139028333Y-55958152D02*
X138980714Y-56053390D01*
X138980714Y-56053390D02*
X138933095Y-56101009D01*
X138933095Y-56101009D02*
X138837857Y-56148628D01*
X138837857Y-56148628D02*
X138456905Y-56148628D01*
X139980714Y-56624819D02*
X139409286Y-56624819D01*
X139695000Y-56624819D02*
X139695000Y-55624819D01*
X139695000Y-55624819D02*
X139599762Y-55767676D01*
X139599762Y-55767676D02*
X139504524Y-55862914D01*
X139504524Y-55862914D02*
X139409286Y-55910533D01*
X139925595Y-67442200D02*
X140068452Y-67489819D01*
X140068452Y-67489819D02*
X140306547Y-67489819D01*
X140306547Y-67489819D02*
X140401785Y-67442200D01*
X140401785Y-67442200D02*
X140449404Y-67394580D01*
X140449404Y-67394580D02*
X140497023Y-67299342D01*
X140497023Y-67299342D02*
X140497023Y-67204104D01*
X140497023Y-67204104D02*
X140449404Y-67108866D01*
X140449404Y-67108866D02*
X140401785Y-67061247D01*
X140401785Y-67061247D02*
X140306547Y-67013628D01*
X140306547Y-67013628D02*
X140116071Y-66966009D01*
X140116071Y-66966009D02*
X140020833Y-66918390D01*
X140020833Y-66918390D02*
X139973214Y-66870771D01*
X139973214Y-66870771D02*
X139925595Y-66775533D01*
X139925595Y-66775533D02*
X139925595Y-66680295D01*
X139925595Y-66680295D02*
X139973214Y-66585057D01*
X139973214Y-66585057D02*
X140020833Y-66537438D01*
X140020833Y-66537438D02*
X140116071Y-66489819D01*
X140116071Y-66489819D02*
X140354166Y-66489819D01*
X140354166Y-66489819D02*
X140497023Y-66537438D01*
X140877976Y-66585057D02*
X140925595Y-66537438D01*
X140925595Y-66537438D02*
X141020833Y-66489819D01*
X141020833Y-66489819D02*
X141258928Y-66489819D01*
X141258928Y-66489819D02*
X141354166Y-66537438D01*
X141354166Y-66537438D02*
X141401785Y-66585057D01*
X141401785Y-66585057D02*
X141449404Y-66680295D01*
X141449404Y-66680295D02*
X141449404Y-66775533D01*
X141449404Y-66775533D02*
X141401785Y-66918390D01*
X141401785Y-66918390D02*
X140830357Y-67489819D01*
X140830357Y-67489819D02*
X141449404Y-67489819D01*
X152528333Y-86334819D02*
X152195000Y-85858628D01*
X151956905Y-86334819D02*
X151956905Y-85334819D01*
X151956905Y-85334819D02*
X152337857Y-85334819D01*
X152337857Y-85334819D02*
X152433095Y-85382438D01*
X152433095Y-85382438D02*
X152480714Y-85430057D01*
X152480714Y-85430057D02*
X152528333Y-85525295D01*
X152528333Y-85525295D02*
X152528333Y-85668152D01*
X152528333Y-85668152D02*
X152480714Y-85763390D01*
X152480714Y-85763390D02*
X152433095Y-85811009D01*
X152433095Y-85811009D02*
X152337857Y-85858628D01*
X152337857Y-85858628D02*
X151956905Y-85858628D01*
X153433095Y-85334819D02*
X152956905Y-85334819D01*
X152956905Y-85334819D02*
X152909286Y-85811009D01*
X152909286Y-85811009D02*
X152956905Y-85763390D01*
X152956905Y-85763390D02*
X153052143Y-85715771D01*
X153052143Y-85715771D02*
X153290238Y-85715771D01*
X153290238Y-85715771D02*
X153385476Y-85763390D01*
X153385476Y-85763390D02*
X153433095Y-85811009D01*
X153433095Y-85811009D02*
X153480714Y-85906247D01*
X153480714Y-85906247D02*
X153480714Y-86144342D01*
X153480714Y-86144342D02*
X153433095Y-86239580D01*
X153433095Y-86239580D02*
X153385476Y-86287200D01*
X153385476Y-86287200D02*
X153290238Y-86334819D01*
X153290238Y-86334819D02*
X153052143Y-86334819D01*
X153052143Y-86334819D02*
X152956905Y-86287200D01*
X152956905Y-86287200D02*
X152909286Y-86239580D01*
X156383333Y-72099819D02*
X156050000Y-71623628D01*
X155811905Y-72099819D02*
X155811905Y-71099819D01*
X155811905Y-71099819D02*
X156192857Y-71099819D01*
X156192857Y-71099819D02*
X156288095Y-71147438D01*
X156288095Y-71147438D02*
X156335714Y-71195057D01*
X156335714Y-71195057D02*
X156383333Y-71290295D01*
X156383333Y-71290295D02*
X156383333Y-71433152D01*
X156383333Y-71433152D02*
X156335714Y-71528390D01*
X156335714Y-71528390D02*
X156288095Y-71576009D01*
X156288095Y-71576009D02*
X156192857Y-71623628D01*
X156192857Y-71623628D02*
X155811905Y-71623628D01*
X156764286Y-71195057D02*
X156811905Y-71147438D01*
X156811905Y-71147438D02*
X156907143Y-71099819D01*
X156907143Y-71099819D02*
X157145238Y-71099819D01*
X157145238Y-71099819D02*
X157240476Y-71147438D01*
X157240476Y-71147438D02*
X157288095Y-71195057D01*
X157288095Y-71195057D02*
X157335714Y-71290295D01*
X157335714Y-71290295D02*
X157335714Y-71385533D01*
X157335714Y-71385533D02*
X157288095Y-71528390D01*
X157288095Y-71528390D02*
X156716667Y-72099819D01*
X156716667Y-72099819D02*
X157335714Y-72099819D01*
D10*
X130216666Y-54307419D02*
X130216666Y-55021704D01*
X130216666Y-55021704D02*
X130183333Y-55164561D01*
X130183333Y-55164561D02*
X130116666Y-55259800D01*
X130116666Y-55259800D02*
X130016666Y-55307419D01*
X130016666Y-55307419D02*
X129950000Y-55307419D01*
X130516666Y-54402657D02*
X130549999Y-54355038D01*
X130549999Y-54355038D02*
X130616666Y-54307419D01*
X130616666Y-54307419D02*
X130783333Y-54307419D01*
X130783333Y-54307419D02*
X130849999Y-54355038D01*
X130849999Y-54355038D02*
X130883333Y-54402657D01*
X130883333Y-54402657D02*
X130916666Y-54497895D01*
X130916666Y-54497895D02*
X130916666Y-54593133D01*
X130916666Y-54593133D02*
X130883333Y-54735990D01*
X130883333Y-54735990D02*
X130483333Y-55307419D01*
X130483333Y-55307419D02*
X130916666Y-55307419D01*
X126140476Y-67507419D02*
X126140476Y-68221704D01*
X126140476Y-68221704D02*
X126092857Y-68364561D01*
X126092857Y-68364561D02*
X125997619Y-68459800D01*
X125997619Y-68459800D02*
X125854762Y-68507419D01*
X125854762Y-68507419D02*
X125759524Y-68507419D01*
X126569048Y-67602657D02*
X126616667Y-67555038D01*
X126616667Y-67555038D02*
X126711905Y-67507419D01*
X126711905Y-67507419D02*
X126950000Y-67507419D01*
X126950000Y-67507419D02*
X127045238Y-67555038D01*
X127045238Y-67555038D02*
X127092857Y-67602657D01*
X127092857Y-67602657D02*
X127140476Y-67697895D01*
X127140476Y-67697895D02*
X127140476Y-67793133D01*
X127140476Y-67793133D02*
X127092857Y-67935990D01*
X127092857Y-67935990D02*
X126521429Y-68507419D01*
X126521429Y-68507419D02*
X127140476Y-68507419D01*
X127473810Y-67507419D02*
X128092857Y-67507419D01*
X128092857Y-67507419D02*
X127759524Y-67888371D01*
X127759524Y-67888371D02*
X127902381Y-67888371D01*
X127902381Y-67888371D02*
X127997619Y-67935990D01*
X127997619Y-67935990D02*
X128045238Y-67983609D01*
X128045238Y-67983609D02*
X128092857Y-68078847D01*
X128092857Y-68078847D02*
X128092857Y-68316942D01*
X128092857Y-68316942D02*
X128045238Y-68412180D01*
X128045238Y-68412180D02*
X127997619Y-68459800D01*
X127997619Y-68459800D02*
X127902381Y-68507419D01*
X127902381Y-68507419D02*
X127616667Y-68507419D01*
X127616667Y-68507419D02*
X127521429Y-68459800D01*
X127521429Y-68459800D02*
X127473810Y-68412180D01*
X163296810Y-86476147D02*
X163296810Y-87190432D01*
X163296810Y-87190432D02*
X163249191Y-87333289D01*
X163249191Y-87333289D02*
X163153953Y-87428528D01*
X163153953Y-87428528D02*
X163011096Y-87476147D01*
X163011096Y-87476147D02*
X162915858Y-87476147D01*
X164201572Y-86809480D02*
X164201572Y-87476147D01*
X163963477Y-86428528D02*
X163725382Y-87142813D01*
X163725382Y-87142813D02*
X164344429Y-87142813D01*
D11*
X158348819Y-74333333D02*
X159063104Y-74333333D01*
X159063104Y-74333333D02*
X159205961Y-74380952D01*
X159205961Y-74380952D02*
X159301200Y-74476190D01*
X159301200Y-74476190D02*
X159348819Y-74619047D01*
X159348819Y-74619047D02*
X159348819Y-74714285D01*
X159348819Y-73333333D02*
X159348819Y-73904761D01*
X159348819Y-73619047D02*
X158348819Y-73619047D01*
X158348819Y-73619047D02*
X158491676Y-73714285D01*
X158491676Y-73714285D02*
X158586914Y-73809523D01*
X158586914Y-73809523D02*
X158634533Y-73904761D01*
X145973717Y-61932396D02*
X146116641Y-61980037D01*
X146116641Y-61980037D02*
X146354849Y-61980037D01*
X146354849Y-61980037D02*
X146450132Y-61932396D01*
X146450132Y-61932396D02*
X146497773Y-61884754D01*
X146497773Y-61884754D02*
X146545415Y-61789471D01*
X146545415Y-61789471D02*
X146545415Y-61694188D01*
X146545415Y-61694188D02*
X146497773Y-61598905D01*
X146497773Y-61598905D02*
X146450132Y-61551263D01*
X146450132Y-61551263D02*
X146354849Y-61503622D01*
X146354849Y-61503622D02*
X146164283Y-61455980D01*
X146164283Y-61455980D02*
X146069000Y-61408339D01*
X146069000Y-61408339D02*
X146021358Y-61360697D01*
X146021358Y-61360697D02*
X145973717Y-61265414D01*
X145973717Y-61265414D02*
X145973717Y-61170131D01*
X145973717Y-61170131D02*
X146021358Y-61074848D01*
X146021358Y-61074848D02*
X146069000Y-61027207D01*
X146069000Y-61027207D02*
X146164283Y-60979565D01*
X146164283Y-60979565D02*
X146402490Y-60979565D01*
X146402490Y-60979565D02*
X146545415Y-61027207D01*
X146831264Y-60979565D02*
X147402962Y-60979565D01*
X147117113Y-61980037D02*
X147117113Y-60979565D01*
X147736452Y-61980037D02*
X147736452Y-60979565D01*
X147736452Y-60979565D02*
X148069943Y-61694188D01*
X148069943Y-61694188D02*
X148403433Y-60979565D01*
X148403433Y-60979565D02*
X148403433Y-61980037D01*
X148784566Y-60979565D02*
X149403906Y-60979565D01*
X149403906Y-60979565D02*
X149070415Y-61360697D01*
X149070415Y-61360697D02*
X149213340Y-61360697D01*
X149213340Y-61360697D02*
X149308623Y-61408339D01*
X149308623Y-61408339D02*
X149356264Y-61455980D01*
X149356264Y-61455980D02*
X149403906Y-61551263D01*
X149403906Y-61551263D02*
X149403906Y-61789471D01*
X149403906Y-61789471D02*
X149356264Y-61884754D01*
X149356264Y-61884754D02*
X149308623Y-61932396D01*
X149308623Y-61932396D02*
X149213340Y-61980037D01*
X149213340Y-61980037D02*
X148927491Y-61980037D01*
X148927491Y-61980037D02*
X148832208Y-61932396D01*
X148832208Y-61932396D02*
X148784566Y-61884754D01*
X149689755Y-60979565D02*
X150023245Y-61980037D01*
X150023245Y-61980037D02*
X150356736Y-60979565D01*
X150594943Y-60979565D02*
X151214283Y-60979565D01*
X151214283Y-60979565D02*
X150880792Y-61360697D01*
X150880792Y-61360697D02*
X151023717Y-61360697D01*
X151023717Y-61360697D02*
X151119000Y-61408339D01*
X151119000Y-61408339D02*
X151166641Y-61455980D01*
X151166641Y-61455980D02*
X151214283Y-61551263D01*
X151214283Y-61551263D02*
X151214283Y-61789471D01*
X151214283Y-61789471D02*
X151166641Y-61884754D01*
X151166641Y-61884754D02*
X151119000Y-61932396D01*
X151119000Y-61932396D02*
X151023717Y-61980037D01*
X151023717Y-61980037D02*
X150737868Y-61980037D01*
X150737868Y-61980037D02*
X150642585Y-61932396D01*
X150642585Y-61932396D02*
X150594943Y-61884754D01*
X152359580Y-89567857D02*
X152407200Y-89615476D01*
X152407200Y-89615476D02*
X152454819Y-89758333D01*
X152454819Y-89758333D02*
X152454819Y-89853571D01*
X152454819Y-89853571D02*
X152407200Y-89996428D01*
X152407200Y-89996428D02*
X152311961Y-90091666D01*
X152311961Y-90091666D02*
X152216723Y-90139285D01*
X152216723Y-90139285D02*
X152026247Y-90186904D01*
X152026247Y-90186904D02*
X151883390Y-90186904D01*
X151883390Y-90186904D02*
X151692914Y-90139285D01*
X151692914Y-90139285D02*
X151597676Y-90091666D01*
X151597676Y-90091666D02*
X151502438Y-89996428D01*
X151502438Y-89996428D02*
X151454819Y-89853571D01*
X151454819Y-89853571D02*
X151454819Y-89758333D01*
X151454819Y-89758333D02*
X151502438Y-89615476D01*
X151502438Y-89615476D02*
X151550057Y-89567857D01*
X151550057Y-89186904D02*
X151502438Y-89139285D01*
X151502438Y-89139285D02*
X151454819Y-89044047D01*
X151454819Y-89044047D02*
X151454819Y-88805952D01*
X151454819Y-88805952D02*
X151502438Y-88710714D01*
X151502438Y-88710714D02*
X151550057Y-88663095D01*
X151550057Y-88663095D02*
X151645295Y-88615476D01*
X151645295Y-88615476D02*
X151740533Y-88615476D01*
X151740533Y-88615476D02*
X151883390Y-88663095D01*
X151883390Y-88663095D02*
X152454819Y-89234523D01*
X152454819Y-89234523D02*
X152454819Y-88615476D01*
X152454819Y-87663095D02*
X152454819Y-88234523D01*
X152454819Y-87948809D02*
X151454819Y-87948809D01*
X151454819Y-87948809D02*
X151597676Y-88044047D01*
X151597676Y-88044047D02*
X151692914Y-88139285D01*
X151692914Y-88139285D02*
X151740533Y-88234523D01*
D10*
X128540476Y-77807419D02*
X128540476Y-78521704D01*
X128540476Y-78521704D02*
X128492857Y-78664561D01*
X128492857Y-78664561D02*
X128397619Y-78759800D01*
X128397619Y-78759800D02*
X128254762Y-78807419D01*
X128254762Y-78807419D02*
X128159524Y-78807419D01*
X128969048Y-77902657D02*
X129016667Y-77855038D01*
X129016667Y-77855038D02*
X129111905Y-77807419D01*
X129111905Y-77807419D02*
X129350000Y-77807419D01*
X129350000Y-77807419D02*
X129445238Y-77855038D01*
X129445238Y-77855038D02*
X129492857Y-77902657D01*
X129492857Y-77902657D02*
X129540476Y-77997895D01*
X129540476Y-77997895D02*
X129540476Y-78093133D01*
X129540476Y-78093133D02*
X129492857Y-78235990D01*
X129492857Y-78235990D02*
X128921429Y-78807419D01*
X128921429Y-78807419D02*
X129540476Y-78807419D01*
X129921429Y-77902657D02*
X129969048Y-77855038D01*
X129969048Y-77855038D02*
X130064286Y-77807419D01*
X130064286Y-77807419D02*
X130302381Y-77807419D01*
X130302381Y-77807419D02*
X130397619Y-77855038D01*
X130397619Y-77855038D02*
X130445238Y-77902657D01*
X130445238Y-77902657D02*
X130492857Y-77997895D01*
X130492857Y-77997895D02*
X130492857Y-78093133D01*
X130492857Y-78093133D02*
X130445238Y-78235990D01*
X130445238Y-78235990D02*
X129873810Y-78807419D01*
X129873810Y-78807419D02*
X130492857Y-78807419D01*
D12*
%TO.C,C20*%
X150240000Y-89357836D02*
X150240000Y-89142164D01*
X150960000Y-89357836D02*
X150960000Y-89142164D01*
%TO.C,D2*%
X145459000Y-62215000D02*
X145459000Y-64500000D01*
X146929000Y-62215000D02*
X145459000Y-62215000D01*
X146929000Y-64500000D02*
X146929000Y-62215000D01*
%TO.C,R6*%
X145577500Y-66637742D02*
X145577500Y-67112258D01*
X146622500Y-66637742D02*
X146622500Y-67112258D01*
%TO.C,D1*%
X158662500Y-64640000D02*
X158012500Y-64640000D01*
X158662500Y-64640000D02*
X159312500Y-64640000D01*
X158662500Y-67760000D02*
X158012500Y-67760000D01*
X158662500Y-67760000D02*
X159312500Y-67760000D01*
X160065000Y-68040000D02*
X159585000Y-68040000D01*
X159825000Y-67710000D01*
X160065000Y-68040000D01*
G36*
X160065000Y-68040000D02*
G01*
X159585000Y-68040000D01*
X159825000Y-67710000D01*
X160065000Y-68040000D01*
G37*
%TO.C,C7*%
X148992164Y-82840000D02*
X149207836Y-82840000D01*
X148992164Y-83560000D02*
X149207836Y-83560000D01*
%TO.C,C3*%
X135490000Y-78517164D02*
X135490000Y-78732836D01*
X136210000Y-78517164D02*
X136210000Y-78732836D01*
D13*
%TO.C,Y2*%
X134800000Y-74105000D02*
X134800000Y-73945000D01*
X137300000Y-74105000D02*
X137300000Y-73945000D01*
D14*
X138300000Y-75125000D02*
G75*
G02*
X138100000Y-75125000I-100000J0D01*
G01*
X138100000Y-75125000D02*
G75*
G02*
X138300000Y-75125000I100000J0D01*
G01*
D13*
%TO.C,U4*%
X144195000Y-85615000D02*
X144705000Y-85615000D01*
X144195000Y-88115000D02*
X144705000Y-88115000D01*
X146685000Y-85615000D02*
X147195000Y-85615000D01*
X147195000Y-88115000D02*
X146685000Y-88115000D01*
D14*
X143795000Y-86065000D02*
G75*
G02*
X143595000Y-86065000I-100000J0D01*
G01*
X143595000Y-86065000D02*
G75*
G02*
X143795000Y-86065000I100000J0D01*
G01*
D12*
%TO.C,C1*%
X153490000Y-70232836D02*
X153490000Y-70017164D01*
X154210000Y-70232836D02*
X154210000Y-70017164D01*
%TO.C,C8*%
X142460000Y-57188748D02*
X142460000Y-57711252D01*
X143930000Y-57188748D02*
X143930000Y-57711252D01*
%TO.C,C22*%
X141960000Y-88688748D02*
X141960000Y-89211252D01*
X143430000Y-88688748D02*
X143430000Y-89211252D01*
D13*
%TO.C,U6*%
X134165000Y-67450000D02*
X134825000Y-67450000D01*
X134825000Y-70350000D02*
X134165000Y-70350000D01*
X135295000Y-68565000D02*
X135295000Y-69235000D01*
D14*
X132185000Y-67850000D02*
G75*
G02*
X131985000Y-67850000I-100000J0D01*
G01*
X131985000Y-67850000D02*
G75*
G02*
X132185000Y-67850000I100000J0D01*
G01*
D12*
%TO.C,CBATT1*%
X154460000Y-66688748D02*
X154460000Y-67211252D01*
X155930000Y-66688748D02*
X155930000Y-67211252D01*
%TO.C,R1*%
X138957742Y-57077500D02*
X139432258Y-57077500D01*
X138957742Y-58122500D02*
X139432258Y-58122500D01*
D13*
%TO.C,S2*%
X137312500Y-62220000D02*
X137312500Y-64580000D01*
X137612500Y-60850000D02*
X142112500Y-60850000D01*
X137612500Y-65950000D02*
X142112500Y-65950000D01*
X142412500Y-64580000D02*
X142412500Y-62220000D01*
D14*
X144212500Y-65275000D02*
G75*
G02*
X144012500Y-65275000I-100000J0D01*
G01*
X144012500Y-65275000D02*
G75*
G02*
X144212500Y-65275000I100000J0D01*
G01*
D12*
%TO.C,R5*%
X152932258Y-83927500D02*
X152457742Y-83927500D01*
X152932258Y-84972500D02*
X152457742Y-84972500D01*
%TO.C,R2*%
X156312742Y-72552500D02*
X156787258Y-72552500D01*
X156312742Y-73597500D02*
X156787258Y-73597500D01*
%TO.C,C2*%
X152490000Y-70232836D02*
X152490000Y-70017164D01*
X153210000Y-70232836D02*
X153210000Y-70017164D01*
%TO.C,C4*%
X136490000Y-78517164D02*
X136490000Y-78732836D01*
X137210000Y-78517164D02*
X137210000Y-78732836D01*
%TO.C,J1*%
X160424000Y-70130000D02*
X162494000Y-70130000D01*
X160424000Y-71000000D02*
X160424000Y-70130000D01*
X160424000Y-77870000D02*
X160424000Y-77000000D01*
X160424000Y-77870000D02*
X162494000Y-77870000D01*
X160084000Y-72700000D02*
X159614000Y-73040000D01*
X159614000Y-72360000D01*
X160084000Y-72700000D01*
G36*
X160084000Y-72700000D02*
G01*
X159614000Y-73040000D01*
X159614000Y-72360000D01*
X160084000Y-72700000D01*
G37*
%TO.C,R3*%
X156312742Y-74052500D02*
X156787258Y-74052500D01*
X156312742Y-75097500D02*
X156787258Y-75097500D01*
D15*
%TO.C,STM3V3*%
X147200000Y-53950000D02*
X150200000Y-53950000D01*
X147200000Y-60450000D02*
X147200000Y-53950000D01*
X150200000Y-53950000D02*
X150200000Y-60450000D01*
X150200000Y-60450000D02*
X147200000Y-60450000D01*
D13*
X152002000Y-60883000D02*
G75*
G02*
X151748000Y-60883000I-127000J0D01*
G01*
X151748000Y-60883000D02*
G75*
G02*
X152002000Y-60883000I127000J0D01*
G01*
D12*
%TO.C,C6*%
X153397164Y-72265000D02*
X153612836Y-72265000D01*
X153397164Y-72985000D02*
X153612836Y-72985000D01*
%TO.C,R7*%
X144077500Y-66637742D02*
X144077500Y-67112258D01*
X145122500Y-66637742D02*
X145122500Y-67112258D01*
%TO.C,R4*%
X149577500Y-84962742D02*
X149577500Y-85437258D01*
X150622500Y-84962742D02*
X150622500Y-85437258D01*
%TO.C,C21*%
X148840000Y-89065580D02*
X148840000Y-88784420D01*
X149860000Y-89065580D02*
X149860000Y-88784420D01*
%TO.C,U2*%
X140240000Y-70765000D02*
X140240000Y-71715000D01*
X140240000Y-80985000D02*
X140240000Y-80035000D01*
X141190000Y-70765000D02*
X140240000Y-70765000D01*
X141190000Y-80985000D02*
X140240000Y-80985000D01*
X149510000Y-70765000D02*
X150460000Y-70765000D01*
X149510000Y-80985000D02*
X150460000Y-80985000D01*
X150460000Y-70765000D02*
X150460000Y-71715000D01*
X150460000Y-80985000D02*
X150460000Y-80035000D01*
X139625000Y-71715000D02*
X139285000Y-71245000D01*
X139965000Y-71245000D01*
X139625000Y-71715000D01*
G36*
X139625000Y-71715000D02*
G01*
X139285000Y-71245000D01*
X139965000Y-71245000D01*
X139625000Y-71715000D01*
G37*
%TO.C,C10*%
X136790000Y-68787836D02*
X136790000Y-68572164D01*
X137510000Y-68787836D02*
X137510000Y-68572164D01*
%TO.C,D3*%
X143859000Y-62215000D02*
X143859000Y-64500000D01*
X145329000Y-62215000D02*
X143859000Y-62215000D01*
X145329000Y-64500000D02*
X145329000Y-62215000D01*
%TO.C,C5*%
X151490000Y-70232836D02*
X151490000Y-70017164D01*
X152210000Y-70232836D02*
X152210000Y-70017164D01*
%TD*%
M02*
