M48
; DRILL file {KiCad 9.0.3} date 2025-08-28T18:14:43+0800
; FORMAT={-:-/ absolute / metric / decimal}
; #@! TF.CreationDate,2025-08-28T18:14:43+08:00
; #@! TF.GenerationSoftware,Kicad,Pcbnew,9.0.3
; #@! TF.FileFunction,Plated,1,4,PTH
FMAT,2
METRIC
; #@! TA.AperFunction,Plated,PTH,ViaDrill
T1C0.300
; #@! TA.AperFunction,Plated,PTH,ComponentDrill
T2C0.600
; #@! TA.AperFunction,Plated,PTH,ComponentDrill
T3C0.650
%
G90
G05
T1
X126.35Y-52.45
X126.45Y-53.15
X126.45Y-88.85
X126.45Y-89.65
X127.25Y-52.45
X127.25Y-53.15
X127.45Y-88.85
X127.45Y-89.65
X128.85Y-88.85
X129.05Y-89.65
X129.45Y-63.15
X129.855Y-88.892
X129.95Y-89.65
X131.45Y-52.55
X131.55Y-53.35
X132.25Y-52.55
X132.35Y-53.35
X133.85Y-52.55
X133.85Y-88.95
X133.95Y-53.35
X134.05Y-89.65
X134.35Y-70.96
X134.45Y-66.75
X134.75Y-53.35
X134.8Y-78.1
X134.8Y-79.05
X134.85Y-52.55
X134.85Y-88.95
X134.85Y-89.65
X135.195Y-76.45
X135.75Y-67.05
X136.695Y-71.45
X137.65Y-77.1
X137.75Y-69.85
X138.0Y-68.898
X138.695Y-70.95
X139.8Y-59.5
X140.0Y-65.275
X140.195Y-82.855
X140.695Y-68.95
X141.919Y-83.574
X142.195Y-68.95
X142.695Y-83.95
X142.695Y-86.95
X143.195Y-59.95
X143.195Y-84.95
X143.695Y-54.45
X144.195Y-89.95
X144.695Y-61.95
X145.2Y-84.45
X145.678Y-86.95
X145.95Y-71.65
X145.964Y-82.822
X146.195Y-61.95
X146.195Y-88.85
X146.296Y-84.551
X147.195Y-79.45
X147.195Y-85.45
X147.729Y-87.484
X148.45Y-55.25
X148.775Y-84.375
X149.695Y-57.45
X149.695Y-59.45
X150.195Y-81.95
X150.65Y-87.15
X150.95Y-64.25
X151.059Y-70.445
X151.195Y-82.95
X151.55Y-88.5
X151.65Y-89.65
X152.15Y-68.85
X152.195Y-81.95
X153.597Y-71.852
X153.695Y-67.95
X155.35Y-51.85
X155.35Y-52.85
X155.53Y-88.619
X155.63Y-89.319
X156.05Y-52.25
X156.35Y-53.05
X156.43Y-88.619
X156.43Y-89.419
X157.65Y-51.95
X157.85Y-52.75
X158.03Y-88.619
X158.23Y-89.419
X158.25Y-61.7
X158.634Y-51.943
X158.75Y-52.75
X158.85Y-61.7
X158.93Y-88.619
X159.03Y-89.419
X159.1Y-72.7
X159.1Y-76.2
X159.65Y-61.75
X159.8Y-75.25
X160.35Y-61.7
X160.95Y-61.65
X161.195Y-68.95
X161.195Y-79.45
X161.55Y-61.75
X162.05Y-57.05
X162.05Y-58.25
X162.65Y-57.65
X162.75Y-52.05
X162.85Y-52.75
X162.85Y-54.25
X163.03Y-88.619
X163.13Y-89.419
X163.15Y-57.15
X163.25Y-58.25
X163.65Y-51.95
X163.65Y-52.85
X163.93Y-88.619
X163.95Y-89.35
T2
G00X163.344Y-69.825
M15
G01X164.044Y-69.825
M16
G05
G00X163.344Y-78.175
M15
G01X164.044Y-78.175
M16
G05
T3
G00X160.594Y-71.775
M15
G01X160.794Y-71.775
M16
G05
G00X160.594Y-76.225
M15
G01X160.794Y-76.225
M16
G05
M30
