%TF.GenerationSoftware,KiCad,Pcbnew,9.0.3*%
%TF.CreationDate,2025-08-28T21:38:12+08:00*%
%TF.ProjectId,ESP32_Board,45535033-325f-4426-9f61-72642e6b6963,rev?*%
%TF.SameCoordinates,Original*%
%TF.FileFunction,Soldermask,Top*%
%TF.FilePolarity,Negative*%
%FSLAX46Y46*%
G04 Gerber Fmt 4.6, Leading zero omitted, Abs format (unit mm)*
G04 Created by KiCad (PCBNEW 9.0.3) date 2025-08-28 21:38:12*
%MOMM*%
%LPD*%
G01*
G04 APERTURE LIST*
G04 Aperture macros list*
%AMRoundRect*
0 Rectangle with rounded corners*
0 $1 Rounding radius*
0 $2 $3 $4 $5 $6 $7 $8 $9 X,Y pos of 4 corners*
0 Add a 4 corners polygon primitive as box body*
4,1,4,$2,$3,$4,$5,$6,$7,$8,$9,$2,$3,0*
0 Add four circle primitives for the rounded corners*
1,1,$1+$1,$2,$3*
1,1,$1+$1,$4,$5*
1,1,$1+$1,$6,$7*
1,1,$1+$1,$8,$9*
0 Add four rect primitives between the rounded corners*
20,1,$1+$1,$2,$3,$4,$5,0*
20,1,$1+$1,$4,$5,$6,$7,0*
20,1,$1+$1,$6,$7,$8,$9,0*
20,1,$1+$1,$8,$9,$2,$3,0*%
G04 Aperture macros list end*
%ADD10C,0.010000*%
%ADD11RoundRect,0.102000X-0.375000X0.500000X-0.375000X-0.500000X0.375000X-0.500000X0.375000X0.500000X0*%
%ADD12RoundRect,0.102000X0.375000X-0.500000X0.375000X0.500000X-0.375000X0.500000X-0.375000X-0.500000X0*%
%ADD13RoundRect,0.140000X-0.170000X0.140000X-0.170000X-0.140000X0.170000X-0.140000X0.170000X0.140000X0*%
%ADD14RoundRect,0.140000X0.170000X-0.140000X0.170000X0.140000X-0.170000X0.140000X-0.170000X-0.140000X0*%
%ADD15R,1.000000X1.000000*%
%ADD16C,1.000000*%
%ADD17RoundRect,0.250000X-0.250000X-0.475000X0.250000X-0.475000X0.250000X0.475000X-0.250000X0.475000X0*%
%ADD18RoundRect,0.250000X0.475000X-0.250000X0.475000X0.250000X-0.475000X0.250000X-0.475000X-0.250000X0*%
%ADD19RoundRect,0.200000X0.200000X0.275000X-0.200000X0.275000X-0.200000X-0.275000X0.200000X-0.275000X0*%
%ADD20R,1.500000X0.900000*%
%ADD21R,0.900000X1.500000*%
%ADD22C,0.600000*%
%ADD23R,3.900000X3.900000*%
%ADD24RoundRect,0.300000X-0.700000X-0.700000X0.700000X-0.700000X0.700000X0.700000X-0.700000X0.700000X0*%
%ADD25R,0.625000X0.250000*%
%ADD26R,0.700000X0.450000*%
%ADD27R,0.575000X0.450000*%
%ADD28R,1.650000X0.400000*%
%ADD29R,0.700000X1.825000*%
%ADD30R,1.500000X2.000000*%
%ADD31R,2.000000X1.350000*%
%ADD32O,1.700000X1.350000*%
%ADD33O,1.500000X1.100000*%
%ADD34R,2.500000X1.430000*%
%ADD35RoundRect,0.250000X0.250000X0.475000X-0.250000X0.475000X-0.250000X-0.475000X0.250000X-0.475000X0*%
%ADD36RoundRect,0.300000X0.700000X0.700000X-0.700000X0.700000X-0.700000X-0.700000X0.700000X-0.700000X0*%
%ADD37RoundRect,0.102000X-1.075000X-0.500000X1.075000X-0.500000X1.075000X0.500000X-1.075000X0.500000X0*%
%ADD38RoundRect,0.102000X-1.075000X-1.625000X1.075000X-1.625000X1.075000X1.625000X-1.075000X1.625000X0*%
%ADD39RoundRect,0.218750X0.218750X0.256250X-0.218750X0.256250X-0.218750X-0.256250X0.218750X-0.256250X0*%
%ADD40RoundRect,0.200000X-0.275000X0.200000X-0.275000X-0.200000X0.275000X-0.200000X0.275000X0.200000X0*%
%ADD41RoundRect,0.150000X0.150000X-0.587500X0.150000X0.587500X-0.150000X0.587500X-0.150000X-0.587500X0*%
%ADD42RoundRect,0.102000X-0.500000X1.075000X-0.500000X-1.075000X0.500000X-1.075000X0.500000X1.075000X0*%
%ADD43RoundRect,0.102000X-1.625000X1.075000X-1.625000X-1.075000X1.625000X-1.075000X1.625000X1.075000X0*%
G04 APERTURE END LIST*
D10*
%TO.C,U7*%
X126262500Y-70975000D02*
X125687500Y-70975000D01*
X125687500Y-70625000D01*
X126262500Y-70625000D01*
X126262500Y-70975000D01*
G36*
X126262500Y-70975000D02*
G01*
X125687500Y-70975000D01*
X125687500Y-70625000D01*
X126262500Y-70625000D01*
X126262500Y-70975000D01*
G37*
X126262500Y-71475000D02*
X125687500Y-71475000D01*
X125687500Y-71125000D01*
X126262500Y-71125000D01*
X126262500Y-71475000D01*
G36*
X126262500Y-71475000D02*
G01*
X125687500Y-71475000D01*
X125687500Y-71125000D01*
X126262500Y-71125000D01*
X126262500Y-71475000D01*
G37*
X126262500Y-71975000D02*
X125687500Y-71975000D01*
X125687500Y-71625000D01*
X126262500Y-71625000D01*
X126262500Y-71975000D01*
G36*
X126262500Y-71975000D02*
G01*
X125687500Y-71975000D01*
X125687500Y-71625000D01*
X126262500Y-71625000D01*
X126262500Y-71975000D01*
G37*
X126262500Y-72475000D02*
X125687500Y-72475000D01*
X125687500Y-72125000D01*
X126262500Y-72125000D01*
X126262500Y-72475000D01*
G36*
X126262500Y-72475000D02*
G01*
X125687500Y-72475000D01*
X125687500Y-72125000D01*
X126262500Y-72125000D01*
X126262500Y-72475000D01*
G37*
X126812500Y-70925000D02*
X126462500Y-70925000D01*
X126462500Y-70350000D01*
X126812500Y-70350000D01*
X126812500Y-70925000D01*
G36*
X126812500Y-70925000D02*
G01*
X126462500Y-70925000D01*
X126462500Y-70350000D01*
X126812500Y-70350000D01*
X126812500Y-70925000D01*
G37*
X126812500Y-72750000D02*
X126462500Y-72750000D01*
X126462500Y-72175000D01*
X126812500Y-72175000D01*
X126812500Y-72750000D01*
G36*
X126812500Y-72750000D02*
G01*
X126462500Y-72750000D01*
X126462500Y-72175000D01*
X126812500Y-72175000D01*
X126812500Y-72750000D01*
G37*
X127312500Y-70925000D02*
X126962500Y-70925000D01*
X126962500Y-70350000D01*
X127312500Y-70350000D01*
X127312500Y-70925000D01*
G36*
X127312500Y-70925000D02*
G01*
X126962500Y-70925000D01*
X126962500Y-70350000D01*
X127312500Y-70350000D01*
X127312500Y-70925000D01*
G37*
X127312500Y-72750000D02*
X126962500Y-72750000D01*
X126962500Y-72175000D01*
X127312500Y-72175000D01*
X127312500Y-72750000D01*
G36*
X127312500Y-72750000D02*
G01*
X126962500Y-72750000D01*
X126962500Y-72175000D01*
X127312500Y-72175000D01*
X127312500Y-72750000D01*
G37*
X127812500Y-70925000D02*
X127462500Y-70925000D01*
X127462500Y-70350000D01*
X127812500Y-70350000D01*
X127812500Y-70925000D01*
G36*
X127812500Y-70925000D02*
G01*
X127462500Y-70925000D01*
X127462500Y-70350000D01*
X127812500Y-70350000D01*
X127812500Y-70925000D01*
G37*
X127812500Y-72750000D02*
X127462500Y-72750000D01*
X127462500Y-72175000D01*
X127812500Y-72175000D01*
X127812500Y-72750000D01*
G36*
X127812500Y-72750000D02*
G01*
X127462500Y-72750000D01*
X127462500Y-72175000D01*
X127812500Y-72175000D01*
X127812500Y-72750000D01*
G37*
X128587500Y-70975000D02*
X128012500Y-70975000D01*
X128012500Y-70625000D01*
X128587500Y-70625000D01*
X128587500Y-70975000D01*
G36*
X128587500Y-70975000D02*
G01*
X128012500Y-70975000D01*
X128012500Y-70625000D01*
X128587500Y-70625000D01*
X128587500Y-70975000D01*
G37*
X128587500Y-71475000D02*
X128012500Y-71475000D01*
X128012500Y-71125000D01*
X128587500Y-71125000D01*
X128587500Y-71475000D01*
G36*
X128587500Y-71475000D02*
G01*
X128012500Y-71475000D01*
X128012500Y-71125000D01*
X128587500Y-71125000D01*
X128587500Y-71475000D01*
G37*
X128587500Y-71975000D02*
X128012500Y-71975000D01*
X128012500Y-71625000D01*
X128587500Y-71625000D01*
X128587500Y-71975000D01*
G36*
X128587500Y-71975000D02*
G01*
X128012500Y-71975000D01*
X128012500Y-71625000D01*
X128587500Y-71625000D01*
X128587500Y-71975000D01*
G37*
X128587500Y-72475000D02*
X128012500Y-72475000D01*
X128012500Y-72125000D01*
X128587500Y-72125000D01*
X128587500Y-72475000D01*
G36*
X128587500Y-72475000D02*
G01*
X128012500Y-72475000D01*
X128012500Y-72125000D01*
X128587500Y-72125000D01*
X128587500Y-72475000D01*
G37*
%TD*%
D11*
%TO.C,S2*%
X134325000Y-75900000D03*
X134325000Y-81900000D03*
X130575000Y-75900000D03*
X130575000Y-81900000D03*
%TD*%
D12*
%TO.C,S1*%
X100075000Y-55512500D03*
X100075000Y-49512500D03*
X103825000Y-55512500D03*
X103825000Y-49512500D03*
%TD*%
D13*
%TO.C,C23*%
X128000000Y-68040000D03*
X128000000Y-69000000D03*
%TD*%
D14*
%TO.C,C14*%
X104500000Y-58930000D03*
X104500000Y-57970000D03*
%TD*%
D13*
%TO.C,C13*%
X128350000Y-78920000D03*
X128350000Y-79880000D03*
%TD*%
%TO.C,C12*%
X105500000Y-53020000D03*
X105500000Y-53980000D03*
%TD*%
%TO.C,C9*%
X126975000Y-68040000D03*
X126975000Y-69000000D03*
%TD*%
D15*
%TO.C,J8*%
X97500000Y-59730000D03*
D16*
X97500000Y-61000000D03*
X97500000Y-62270000D03*
%TD*%
D17*
%TO.C,C11*%
X103050000Y-87000000D03*
X104950000Y-87000000D03*
%TD*%
D18*
%TO.C,C19*%
X103000000Y-72900000D03*
X103000000Y-71000000D03*
%TD*%
D15*
%TO.C,J7*%
X97500000Y-84730000D03*
D16*
X97500000Y-86000000D03*
X97500000Y-87270000D03*
%TD*%
D19*
%TO.C,R8*%
X131025000Y-50900000D03*
X129375000Y-50900000D03*
%TD*%
D15*
%TO.C,J11*%
X97500000Y-54500000D03*
D16*
X97500000Y-55770000D03*
X97500000Y-57040000D03*
%TD*%
D15*
%TO.C,J19*%
X123400000Y-86700000D03*
D16*
X122130000Y-86700000D03*
X120860000Y-86700000D03*
X119590000Y-86700000D03*
%TD*%
D19*
%TO.C,R11*%
X104825000Y-67000000D03*
X103175000Y-67000000D03*
%TD*%
D20*
%TO.C,U1*%
X107500000Y-50150000D03*
X107500000Y-51420000D03*
X107500000Y-52690000D03*
X107500000Y-53960000D03*
X107500000Y-55230000D03*
X107500000Y-56500000D03*
X107500000Y-57770000D03*
X107500000Y-59040000D03*
X107500000Y-60310000D03*
X107500000Y-61580000D03*
X107500000Y-62850000D03*
X107500000Y-64120000D03*
X107500000Y-65390000D03*
X107500000Y-66660000D03*
D21*
X109265000Y-67910000D03*
X110535000Y-67910000D03*
X111805000Y-67910000D03*
X113075000Y-67910000D03*
X114345000Y-67910000D03*
X115615000Y-67910000D03*
X116885000Y-67910000D03*
X118155000Y-67910000D03*
X119425000Y-67910000D03*
X120695000Y-67910000D03*
X121965000Y-67910000D03*
X123235000Y-67910000D03*
D20*
X125000000Y-66660000D03*
X125000000Y-65390000D03*
X125000000Y-64120000D03*
X125000000Y-62850000D03*
X125000000Y-61580000D03*
X125000000Y-60310000D03*
X125000000Y-59040000D03*
X125000000Y-57770000D03*
X125000000Y-56500000D03*
X125000000Y-55230000D03*
X125000000Y-53960000D03*
X125000000Y-52690000D03*
X125000000Y-51420000D03*
X125000000Y-50150000D03*
D22*
X113350000Y-57170000D03*
X113350000Y-58570000D03*
X114050000Y-56470000D03*
X114050000Y-57870000D03*
X114050000Y-59270000D03*
X114750000Y-57170000D03*
D23*
X114750000Y-57870000D03*
D22*
X114750000Y-58570000D03*
X115450000Y-56470000D03*
X115450000Y-57870000D03*
X115450000Y-59270000D03*
X116150000Y-57170000D03*
X116150000Y-58570000D03*
%TD*%
D19*
%TO.C,R10*%
X104825000Y-65500000D03*
X103175000Y-65500000D03*
%TD*%
D15*
%TO.C,J14*%
X130800000Y-63380000D03*
D16*
X130800000Y-62110000D03*
X130800000Y-60840000D03*
X130800000Y-59570000D03*
X130800000Y-58300000D03*
X130800000Y-57030000D03*
%TD*%
D15*
%TO.C,J13*%
X130800000Y-65840000D03*
D16*
X130800000Y-67110000D03*
X130800000Y-68380000D03*
X130800000Y-69650000D03*
X130800000Y-70920000D03*
X130800000Y-72190000D03*
X130800000Y-73460000D03*
%TD*%
D24*
%TO.C,GND1*%
X134300000Y-53400000D03*
%TD*%
D25*
%TO.C,U5*%
X101700000Y-60500000D03*
X101700000Y-61000000D03*
D26*
X101737500Y-61500000D03*
D25*
X101700000Y-62000000D03*
X101700000Y-62500000D03*
X102475000Y-62500000D03*
X102475000Y-62000000D03*
D27*
X102500000Y-61500000D03*
D25*
X102475000Y-61000000D03*
X102475000Y-60500000D03*
%TD*%
D28*
%TO.C,J6*%
X100580000Y-66350000D03*
X100580000Y-67000000D03*
X100580000Y-67650000D03*
X100580000Y-68300000D03*
X100580000Y-68950000D03*
D29*
X99380000Y-64700000D03*
D30*
X100680000Y-64800000D03*
D31*
X98630000Y-64920000D03*
D32*
X97700000Y-64920000D03*
D33*
X100700000Y-65230000D03*
D34*
X97430000Y-66690000D03*
X97430000Y-68610000D03*
D33*
X100700000Y-70070000D03*
D32*
X97700000Y-70380000D03*
D31*
X98630000Y-70400000D03*
D30*
X100700000Y-70550000D03*
D29*
X99380000Y-70650000D03*
%TD*%
D15*
%TO.C,J10*%
X97500000Y-49500000D03*
D16*
X97500000Y-50770000D03*
X97500000Y-52040000D03*
%TD*%
D15*
%TO.C,J12*%
X134300000Y-67070000D03*
D16*
X134300000Y-68340000D03*
X134300000Y-69610000D03*
X134300000Y-70880000D03*
X134300000Y-72150000D03*
X134300000Y-73420000D03*
%TD*%
D35*
%TO.C,C17*%
X111500000Y-78000000D03*
X109600000Y-78000000D03*
%TD*%
D36*
%TO.C,J20*%
X97700000Y-79200000D03*
X97700000Y-81700000D03*
%TD*%
D15*
%TO.C,J15*%
X134300000Y-64650000D03*
D16*
X134300000Y-63380000D03*
X134300000Y-62110000D03*
X134300000Y-60840000D03*
X134300000Y-59570000D03*
X134300000Y-58300000D03*
X134300000Y-57030000D03*
%TD*%
D37*
%TO.C,ESP3V3*%
X105600000Y-70700000D03*
X105600000Y-73000000D03*
X105600000Y-75300000D03*
D38*
X111400000Y-73000000D03*
%TD*%
D17*
%TO.C,C15*%
X100600000Y-58450000D03*
X102500000Y-58450000D03*
%TD*%
D15*
%TO.C,J9*%
X97500000Y-73000000D03*
D16*
X97500000Y-74270000D03*
X97500000Y-75540000D03*
%TD*%
D39*
%TO.C,D4*%
X133987500Y-51000000D03*
X132412500Y-51000000D03*
%TD*%
D40*
%TO.C,R12*%
X105500000Y-50175000D03*
X105500000Y-51825000D03*
%TD*%
D41*
%TO.C,D6*%
X100050000Y-75937500D03*
X101950000Y-75937500D03*
X101000000Y-74062500D03*
%TD*%
D15*
%TO.C,J16*%
X127290000Y-86700000D03*
D16*
X128560000Y-86700000D03*
X129830000Y-86700000D03*
X131100000Y-86700000D03*
X132370000Y-86700000D03*
X133640000Y-86700000D03*
%TD*%
D19*
%TO.C,R9*%
X131025000Y-49400000D03*
X129375000Y-49400000D03*
%TD*%
D42*
%TO.C,U3*%
X106100000Y-78500000D03*
X103800000Y-78500000D03*
X101500000Y-78500000D03*
D43*
X103800000Y-84300000D03*
%TD*%
D17*
%TO.C,C20*%
X109550000Y-80000000D03*
X111450000Y-80000000D03*
%TD*%
D39*
%TO.C,D5*%
X133987500Y-49400000D03*
X132412500Y-49400000D03*
%TD*%
D15*
%TO.C,J17*%
X109950000Y-86700000D03*
D16*
X111220000Y-86700000D03*
X112490000Y-86700000D03*
X113760000Y-86700000D03*
X115030000Y-86700000D03*
X116300000Y-86700000D03*
%TD*%
D24*
%TO.C,TX_SBUS1*%
X130700000Y-53200000D03*
%TD*%
M02*
