%TF.GenerationSoftware,KiCad,Pcbnew,9.0.3*%
%TF.CreationDate,2025-08-28T21:38:12+08:00*%
%TF.ProjectId,ESP32_Board,45535033-325f-4426-9f61-72642e6b6963,rev?*%
%TF.SameCoordinates,Original*%
%TF.FileFunction,Soldermask,Bot*%
%TF.FilePolarity,Negative*%
%FSLAX46Y46*%
G04 Gerber Fmt 4.6, Leading zero omitted, Abs format (unit mm)*
G04 Created by KiCad (PCBNEW 9.0.3) date 2025-08-28 21:38:12*
%MOMM*%
%LPD*%
G01*
G04 APERTURE LIST*
%ADD10R,1.000000X1.000000*%
%ADD11C,1.000000*%
%ADD12O,1.700000X1.350000*%
%ADD13O,1.500000X1.100000*%
G04 APERTURE END LIST*
D10*
%TO.C,J8*%
X97500000Y-59730000D03*
D11*
X97500000Y-61000000D03*
X97500000Y-62270000D03*
%TD*%
D10*
%TO.C,J7*%
X97500000Y-84730000D03*
D11*
X97500000Y-86000000D03*
X97500000Y-87270000D03*
%TD*%
D10*
%TO.C,J11*%
X97500000Y-54500000D03*
D11*
X97500000Y-55770000D03*
X97500000Y-57040000D03*
%TD*%
D10*
%TO.C,J19*%
X123400000Y-86700000D03*
D11*
X122130000Y-86700000D03*
X120860000Y-86700000D03*
X119590000Y-86700000D03*
%TD*%
D10*
%TO.C,J14*%
X130800000Y-63380000D03*
D11*
X130800000Y-62110000D03*
X130800000Y-60840000D03*
X130800000Y-59570000D03*
X130800000Y-58300000D03*
X130800000Y-57030000D03*
%TD*%
D10*
%TO.C,J13*%
X130800000Y-65840000D03*
D11*
X130800000Y-67110000D03*
X130800000Y-68380000D03*
X130800000Y-69650000D03*
X130800000Y-70920000D03*
X130800000Y-72190000D03*
X130800000Y-73460000D03*
%TD*%
D12*
%TO.C,J6*%
X97700000Y-64920000D03*
D13*
X100700000Y-65230000D03*
X100700000Y-70070000D03*
D12*
X97700000Y-70380000D03*
%TD*%
D10*
%TO.C,J10*%
X97500000Y-49500000D03*
D11*
X97500000Y-50770000D03*
X97500000Y-52040000D03*
%TD*%
D10*
%TO.C,J12*%
X134300000Y-67070000D03*
D11*
X134300000Y-68340000D03*
X134300000Y-69610000D03*
X134300000Y-70880000D03*
X134300000Y-72150000D03*
X134300000Y-73420000D03*
%TD*%
D10*
%TO.C,J15*%
X134300000Y-64650000D03*
D11*
X134300000Y-63380000D03*
X134300000Y-62110000D03*
X134300000Y-60840000D03*
X134300000Y-59570000D03*
X134300000Y-58300000D03*
X134300000Y-57030000D03*
%TD*%
D10*
%TO.C,J9*%
X97500000Y-73000000D03*
D11*
X97500000Y-74270000D03*
X97500000Y-75540000D03*
%TD*%
D10*
%TO.C,J16*%
X127290000Y-86700000D03*
D11*
X128560000Y-86700000D03*
X129830000Y-86700000D03*
X131100000Y-86700000D03*
X132370000Y-86700000D03*
X133640000Y-86700000D03*
%TD*%
D10*
%TO.C,J17*%
X109950000Y-86700000D03*
D11*
X111220000Y-86700000D03*
X112490000Y-86700000D03*
X113760000Y-86700000D03*
X115030000Y-86700000D03*
X116300000Y-86700000D03*
%TD*%
M02*
