%TF.GenerationSoftware,KiCad,Pcbnew,9.0.3*%
%TF.CreationDate,2025-08-28T21:38:12+08:00*%
%TF.ProjectId,ESP32_Board,45535033-325f-4426-9f61-72642e6b6963,rev?*%
%TF.SameCoordinates,Original*%
%TF.FileFunction,Copper,L4,Bot*%
%TF.FilePolarity,Positive*%
%FSLAX46Y46*%
G04 Gerber Fmt 4.6, Leading zero omitted, Abs format (unit mm)*
G04 Created by KiCad (PCBNEW 9.0.3) date 2025-08-28 21:38:12*
%MOMM*%
%LPD*%
G01*
G04 APERTURE LIST*
%TA.AperFunction,ComponentPad*%
%ADD10R,1.000000X1.000000*%
%TD*%
%TA.AperFunction,ComponentPad*%
%ADD11C,1.000000*%
%TD*%
%TA.AperFunction,HeatsinkPad*%
%ADD12C,0.600000*%
%TD*%
%TA.AperFunction,HeatsinkPad*%
%ADD13O,1.700000X1.350000*%
%TD*%
%TA.AperFunction,HeatsinkPad*%
%ADD14O,1.500000X1.100000*%
%TD*%
%TA.AperFunction,ViaPad*%
%ADD15C,0.600000*%
%TD*%
%TA.AperFunction,Conductor*%
%ADD16C,0.200000*%
%TD*%
G04 APERTURE END LIST*
D10*
%TO.P,J8,1,Pin_1*%
%TO.N,/ESP32/US2*%
X97500000Y-59730000D03*
D11*
%TO.P,J8,2,Pin_2*%
%TO.N,/ESP32/5V*%
X97500000Y-61000000D03*
%TO.P,J8,3,Pin_3*%
%TO.N,GND*%
X97500000Y-62270000D03*
%TD*%
D10*
%TO.P,J7,1,Pin_1*%
%TO.N,/ESP32/US1*%
X97500000Y-84730000D03*
D11*
%TO.P,J7,2,Pin_2*%
%TO.N,/ESP32/5V*%
X97500000Y-86000000D03*
%TO.P,J7,3,Pin_3*%
%TO.N,GND*%
X97500000Y-87270000D03*
%TD*%
D10*
%TO.P,J11,1,Pin_1*%
%TO.N,/ESP32/US5*%
X97500000Y-54500000D03*
D11*
%TO.P,J11,2,Pin_2*%
%TO.N,/ESP32/5V*%
X97500000Y-55770000D03*
%TO.P,J11,3,Pin_3*%
%TO.N,GND*%
X97500000Y-57040000D03*
%TD*%
D10*
%TO.P,J19,1,Pin_1*%
%TO.N,/ESP32/TX*%
X123400000Y-86700000D03*
D11*
%TO.P,J19,2,Pin_2*%
%TO.N,/ESP32/RX*%
X122130000Y-86700000D03*
%TO.P,J19,3,Pin_3*%
%TO.N,/ESP32/3V3*%
X120860000Y-86700000D03*
%TO.P,J19,4,Pin_4*%
%TO.N,GND*%
X119590000Y-86700000D03*
%TD*%
D12*
%TO.P,U1,41,GND*%
%TO.N,GND*%
X113350000Y-57170000D03*
X113350000Y-58570000D03*
X114050000Y-56470000D03*
X114050000Y-57870000D03*
X114050000Y-59270000D03*
X114750000Y-57170000D03*
X114750000Y-58570000D03*
X115450000Y-56470000D03*
X115450000Y-57870000D03*
X115450000Y-59270000D03*
X116150000Y-57170000D03*
X116150000Y-58570000D03*
%TD*%
D10*
%TO.P,J14,1,Pin_1*%
%TO.N,/ESP32/SDA2*%
X130800000Y-63380000D03*
D11*
%TO.P,J14,2,Pin_2*%
%TO.N,/ESP32/SCL2*%
X130800000Y-62110000D03*
%TO.P,J14,3,Pin_3*%
%TO.N,/ESP32/RESET*%
X130800000Y-60840000D03*
%TO.P,J14,4,Pin_4*%
%TO.N,/ESP32/PENA*%
X130800000Y-59570000D03*
%TO.P,J14,5,Pin_5*%
%TO.N,/ESP32/3V3*%
X130800000Y-58300000D03*
%TO.P,J14,6,Pin_6*%
%TO.N,GND*%
X130800000Y-57030000D03*
%TD*%
D10*
%TO.P,J13,1,Pin_1*%
%TO.N,/ESP32/LPN*%
X130800000Y-65840000D03*
D11*
%TO.P,J13,2,Pin_2*%
%TO.N,/ESP32/SDA1*%
X130800000Y-67110000D03*
%TO.P,J13,3,Pin_3*%
%TO.N,/ESP32/SCL1*%
X130800000Y-68380000D03*
%TO.P,J13,4,Pin_4*%
%TO.N,/ESP32/RESET*%
X130800000Y-69650000D03*
%TO.P,J13,5,Pin_5*%
%TO.N,/ESP32/PENA*%
X130800000Y-70920000D03*
%TO.P,J13,6,Pin_6*%
%TO.N,/ESP32/3V3*%
X130800000Y-72190000D03*
%TO.P,J13,7,Pin_7*%
%TO.N,GND*%
X130800000Y-73460000D03*
%TD*%
D13*
%TO.P,J6,6,Shield*%
%TO.N,GND*%
X97700000Y-64920000D03*
D14*
X100700000Y-65230000D03*
X100700000Y-70070000D03*
D13*
X97700000Y-70380000D03*
%TD*%
D10*
%TO.P,J10,1,Pin_1*%
%TO.N,/ESP32/US4*%
X97500000Y-49500000D03*
D11*
%TO.P,J10,2,Pin_2*%
%TO.N,/ESP32/5V*%
X97500000Y-50770000D03*
%TO.P,J10,3,Pin_3*%
%TO.N,GND*%
X97500000Y-52040000D03*
%TD*%
D10*
%TO.P,J12,1,Pin_1*%
%TO.N,/ESP32/SDA1*%
X134300000Y-67070000D03*
D11*
%TO.P,J12,2,Pin_2*%
%TO.N,/ESP32/SCL1*%
X134300000Y-68340000D03*
%TO.P,J12,3,Pin_3*%
%TO.N,/ESP32/RESET*%
X134300000Y-69610000D03*
%TO.P,J12,4,Pin_4*%
%TO.N,/ESP32/PENA*%
X134300000Y-70880000D03*
%TO.P,J12,5,Pin_5*%
%TO.N,/ESP32/3V3*%
X134300000Y-72150000D03*
%TO.P,J12,6,Pin_6*%
%TO.N,GND*%
X134300000Y-73420000D03*
%TD*%
D10*
%TO.P,J15,1,Pin_1*%
%TO.N,/ESP32/LPN*%
X134300000Y-64650000D03*
D11*
%TO.P,J15,2,Pin_2*%
%TO.N,/ESP32/SDA2*%
X134300000Y-63380000D03*
%TO.P,J15,3,Pin_3*%
%TO.N,/ESP32/SCL2*%
X134300000Y-62110000D03*
%TO.P,J15,4,Pin_4*%
%TO.N,/ESP32/RESET*%
X134300000Y-60840000D03*
%TO.P,J15,5,Pin_5*%
%TO.N,/ESP32/PENA*%
X134300000Y-59570000D03*
%TO.P,J15,6,Pin_6*%
%TO.N,/ESP32/3V3*%
X134300000Y-58300000D03*
%TO.P,J15,7,Pin_7*%
%TO.N,GND*%
X134300000Y-57030000D03*
%TD*%
D10*
%TO.P,J9,1,Pin_1*%
%TO.N,/ESP32/US3*%
X97500000Y-73000000D03*
D11*
%TO.P,J9,2,Pin_2*%
%TO.N,/ESP32/5V*%
X97500000Y-74270000D03*
%TO.P,J9,3,Pin_3*%
%TO.N,GND*%
X97500000Y-75540000D03*
%TD*%
D10*
%TO.P,J16,1,Pin_1*%
%TO.N,/ESP32/SDCS*%
X127290000Y-86700000D03*
D11*
%TO.P,J16,2,Pin_2*%
%TO.N,/ESP32/SDCLK*%
X128560000Y-86700000D03*
%TO.P,J16,3,Pin_3*%
%TO.N,/ESP32/SDMOSI*%
X129830000Y-86700000D03*
%TO.P,J16,4,Pin_4*%
%TO.N,/ESP32/SDMISO*%
X131100000Y-86700000D03*
%TO.P,J16,5,Pin_5*%
%TO.N,/ESP32/3V3*%
X132370000Y-86700000D03*
%TO.P,J16,6,Pin_6*%
%TO.N,GND*%
X133640000Y-86700000D03*
%TD*%
D10*
%TO.P,J17,1,Pin_1*%
%TO.N,/ESP32/CS1*%
X109950000Y-86700000D03*
D11*
%TO.P,J17,2,Pin_2*%
%TO.N,/ESP32/MOSI1*%
X111220000Y-86700000D03*
%TO.P,J17,3,Pin_3*%
%TO.N,/ESP32/CLK1*%
X112490000Y-86700000D03*
%TO.P,J17,4,Pin_4*%
%TO.N,/ESP32/MISO1*%
X113760000Y-86700000D03*
%TO.P,J17,5,Pin_5*%
%TO.N,/ESP32/3V3*%
X115030000Y-86700000D03*
%TO.P,J17,6,Pin_6*%
%TO.N,GND*%
X116300000Y-86700000D03*
%TD*%
D15*
%TO.N,/ESP32/3V3*%
X128900000Y-74050000D03*
X128100000Y-69850000D03*
%TO.N,GND*%
X99850342Y-86673686D03*
X134325000Y-78800000D03*
X128850000Y-80950000D03*
X100850000Y-52900000D03*
X105000000Y-57450000D03*
X102500000Y-57450000D03*
%TO.N,/ESP32/3V3*%
X100500000Y-57450000D03*
%TO.N,GND*%
X117800000Y-84900000D03*
X127775000Y-67420000D03*
X132500000Y-73460000D03*
X134800000Y-50900000D03*
X134800000Y-53000000D03*
X106000000Y-87500000D03*
X105550000Y-54973000D03*
X133800000Y-53900000D03*
X134700000Y-53800000D03*
X99500000Y-68950000D03*
X112500000Y-79000000D03*
X101000000Y-61500000D03*
X126950000Y-69800000D03*
X134900000Y-49400000D03*
X98200000Y-81300000D03*
X132600000Y-57030000D03*
X108000000Y-70500000D03*
X108000000Y-78500000D03*
X119650000Y-84950000D03*
X97200000Y-82100000D03*
X97200000Y-81300000D03*
X109000000Y-50000000D03*
X103500000Y-70000000D03*
X126975000Y-67420000D03*
X133800000Y-53000000D03*
X126500000Y-50000000D03*
X98100000Y-82100000D03*
X133600000Y-84400000D03*
%TO.N,/ESP32/5V*%
X103500000Y-82500000D03*
X105000000Y-79000000D03*
%TO.N,/ESP32/3V3*%
X105000000Y-58950000D03*
X108500000Y-73000000D03*
X116600000Y-84800000D03*
X125975000Y-69100000D03*
X105500000Y-49400000D03*
X132500000Y-58300000D03*
X120800000Y-84800000D03*
X132500000Y-72150000D03*
X131600000Y-84300000D03*
%TO.N,/ESP32/US1*%
X115100000Y-66500000D03*
%TO.N,/ESP32/US3*%
X104500000Y-60500000D03*
X99500000Y-73000000D03*
%TO.N,/ESP32/US4*%
X109000000Y-53500000D03*
%TO.N,/ESP32/PENA*%
X132505000Y-70920000D03*
%TO.N,/ESP32/SCL1*%
X111900000Y-66400000D03*
%TO.N,/ESP32/SDA1*%
X109900000Y-64000000D03*
%TO.N,/ESP32/LPN*%
X127300000Y-56500000D03*
%TO.N,/ESP32/SDA2*%
X112300000Y-61100000D03*
X126700000Y-61100000D03*
%TO.N,/ESP32/SCL2*%
X126450000Y-59750000D03*
X109500000Y-57900000D03*
%TO.N,/ESP32/TX*%
X116000125Y-65096000D03*
%TO.N,/ESP32/RX*%
X115977354Y-65822646D03*
%TO.N,/ESP32/SDCS*%
X118900000Y-66600000D03*
%TO.N,/ESP32/AP_SCLK2*%
X127000000Y-74300000D03*
X122000000Y-64900000D03*
%TO.N,/ESP32/SDCLK*%
X120800000Y-70500000D03*
%TO.N,/ESP32/AP_SDI2*%
X122300000Y-63800000D03*
X127800000Y-73700000D03*
%TO.N,/ESP32/AP_CS2*%
X121600000Y-66000000D03*
X125900000Y-74200000D03*
%TO.N,/ESP32/5V_USB2*%
X99400000Y-66400000D03*
X103000000Y-76000000D03*
X100500000Y-62500000D03*
%TD*%
D16*
%TO.N,/ESP32/RESET*%
X131590000Y-60840000D02*
X130800000Y-60840000D01*
X132000000Y-61250000D02*
X131590000Y-60840000D01*
X132000000Y-68450000D02*
X132000000Y-61250000D01*
X130800000Y-69650000D02*
X132000000Y-68450000D01*
%TO.N,/ESP32/PENA*%
X133350000Y-70000000D02*
X132505000Y-70845000D01*
X133350000Y-60520000D02*
X133350000Y-70000000D01*
X134300000Y-59570000D02*
X133350000Y-60520000D01*
%TO.N,/ESP32/US1*%
X115100000Y-66500000D02*
X115100000Y-67900000D01*
X115100000Y-67900000D02*
X98500000Y-84500000D01*
X98500000Y-84500000D02*
X97730000Y-84500000D01*
X97730000Y-84500000D02*
X97500000Y-84730000D01*
%TO.N,/ESP32/US3*%
X99500000Y-73000000D02*
X104200000Y-68300000D01*
X104200000Y-60800000D02*
X104500000Y-60500000D01*
X104200000Y-68300000D02*
X104200000Y-60800000D01*
%TO.N,/ESP32/US4*%
X109000000Y-53500000D02*
X105500000Y-50000000D01*
X99000000Y-50000000D02*
X98500000Y-49500000D01*
X98500000Y-49500000D02*
X97500000Y-49500000D01*
X105500000Y-50000000D02*
X99000000Y-50000000D01*
%TO.N,/ESP32/SCL1*%
X115028000Y-63272000D02*
X111900000Y-66400000D01*
X130800000Y-68380000D02*
X125692000Y-63272000D01*
X125692000Y-63272000D02*
X115028000Y-63272000D01*
%TO.N,/ESP32/SDA1*%
X111200000Y-62700000D02*
X109900000Y-64000000D01*
X130092894Y-67110000D02*
X125682894Y-62700000D01*
X130800000Y-67110000D02*
X130092894Y-67110000D01*
X125682894Y-62700000D02*
X111200000Y-62700000D01*
%TO.N,/ESP32/LPN*%
X128200000Y-57200000D02*
X127500000Y-56500000D01*
X130800000Y-65840000D02*
X128200000Y-63240000D01*
X127500000Y-56500000D02*
X127300000Y-56500000D01*
X128200000Y-63240000D02*
X128200000Y-57200000D01*
%TO.N,/ESP32/SDA2*%
X126700000Y-61100000D02*
X112300000Y-61100000D01*
%TO.N,/ESP32/SCL2*%
X126450000Y-59750000D02*
X126402000Y-59798000D01*
X126402000Y-59798000D02*
X111398000Y-59798000D01*
X111398000Y-59798000D02*
X109500000Y-57900000D01*
%TO.N,/ESP32/TX*%
X118200000Y-67300000D02*
X118200000Y-78700000D01*
X116000125Y-65100125D02*
X118200000Y-67300000D01*
X116000125Y-65096000D02*
X116000125Y-65100125D01*
X123400000Y-83900000D02*
X123400000Y-86700000D01*
X118200000Y-78700000D02*
X123400000Y-83900000D01*
%TO.N,/ESP32/RX*%
X117400000Y-79200000D02*
X122130000Y-83930000D01*
X122130000Y-83930000D02*
X122130000Y-86700000D01*
X117400000Y-67200000D02*
X117400000Y-79200000D01*
X116022646Y-65822646D02*
X117400000Y-67200000D01*
X115977354Y-65822646D02*
X116022646Y-65822646D01*
%TO.N,/ESP32/SDCS*%
X118900000Y-78310000D02*
X127290000Y-86700000D01*
X118900000Y-66600000D02*
X118900000Y-78310000D01*
%TO.N,/ESP32/AP_SCLK2*%
X126200000Y-73500000D02*
X124400000Y-73500000D01*
X122900000Y-72000000D02*
X122900000Y-65800000D01*
X127000000Y-74300000D02*
X126200000Y-73500000D01*
X124400000Y-73500000D02*
X122900000Y-72000000D01*
X122900000Y-65800000D02*
X122000000Y-64900000D01*
%TO.N,/ESP32/SDCLK*%
X128560000Y-86700000D02*
X128560000Y-86260000D01*
X120800000Y-78500000D02*
X120800000Y-70500000D01*
X128560000Y-86260000D02*
X120800000Y-78500000D01*
%TO.N,/ESP32/AP_SDI2*%
X126900000Y-73700000D02*
X123500000Y-70300000D01*
X123500000Y-65000000D02*
X122300000Y-63800000D01*
X123500000Y-70300000D02*
X123500000Y-65000000D01*
X127800000Y-73700000D02*
X126900000Y-73700000D01*
%TO.N,/ESP32/AP_CS2*%
X124000000Y-74200000D02*
X121400000Y-71600000D01*
X125900000Y-74200000D02*
X124000000Y-74200000D01*
X121400000Y-66200000D02*
X121600000Y-66000000D01*
X121400000Y-71600000D02*
X121400000Y-66200000D01*
%TO.N,/ESP32/5V_USB2*%
X99400000Y-66400000D02*
X99400000Y-63600000D01*
X98899971Y-69899971D02*
X98899971Y-66900029D01*
X98899000Y-69900942D02*
X98899971Y-69899971D01*
X99400000Y-63600000D02*
X100500000Y-62500000D01*
X98899000Y-69900943D02*
X98899971Y-69899971D01*
X98899000Y-73399000D02*
X98899000Y-69900942D01*
X98899971Y-66900029D02*
X99400000Y-66400000D01*
X101500000Y-76000000D02*
X98899000Y-73399000D01*
X103000000Y-76000000D02*
X101500000Y-76000000D01*
%TD*%
M02*
