%TF.GenerationSoftware,KiCad,Pcbnew,9.0.3*%
%TF.CreationDate,2025-08-28T21:38:12+08:00*%
%TF.ProjectId,ESP32_Board,45535033-325f-4426-9f61-72642e6b6963,rev?*%
%TF.SameCoordinates,Original*%
%TF.FileFunction,Paste,Top*%
%TF.FilePolarity,Positive*%
%FSLAX46Y46*%
G04 Gerber Fmt 4.6, Leading zero omitted, Abs format (unit mm)*
G04 Created by KiCad (PCBNEW 9.0.3) date 2025-08-28 21:38:12*
%MOMM*%
%LPD*%
G01*
G04 APERTURE LIST*
G04 Aperture macros list*
%AMRoundRect*
0 Rectangle with rounded corners*
0 $1 Rounding radius*
0 $2 $3 $4 $5 $6 $7 $8 $9 X,Y pos of 4 corners*
0 Add a 4 corners polygon primitive as box body*
4,1,4,$2,$3,$4,$5,$6,$7,$8,$9,$2,$3,0*
0 Add four circle primitives for the rounded corners*
1,1,$1+$1,$2,$3*
1,1,$1+$1,$4,$5*
1,1,$1+$1,$6,$7*
1,1,$1+$1,$8,$9*
0 Add four rect primitives between the rounded corners*
20,1,$1+$1,$2,$3,$4,$5,0*
20,1,$1+$1,$4,$5,$6,$7,0*
20,1,$1+$1,$6,$7,$8,$9,0*
20,1,$1+$1,$8,$9,$2,$3,0*%
G04 Aperture macros list end*
%ADD10R,0.750000X1.000000*%
%ADD11RoundRect,0.140000X-0.170000X0.140000X-0.170000X-0.140000X0.170000X-0.140000X0.170000X0.140000X0*%
%ADD12RoundRect,0.140000X0.170000X-0.140000X0.170000X0.140000X-0.170000X0.140000X-0.170000X-0.140000X0*%
%ADD13RoundRect,0.250000X-0.250000X-0.475000X0.250000X-0.475000X0.250000X0.475000X-0.250000X0.475000X0*%
%ADD14RoundRect,0.250000X0.475000X-0.250000X0.475000X0.250000X-0.475000X0.250000X-0.475000X-0.250000X0*%
%ADD15RoundRect,0.200000X0.200000X0.275000X-0.200000X0.275000X-0.200000X-0.275000X0.200000X-0.275000X0*%
%ADD16R,0.900000X0.900000*%
%ADD17R,1.500000X0.900000*%
%ADD18R,0.900000X1.500000*%
%ADD19RoundRect,0.300000X-0.700000X-0.700000X0.700000X-0.700000X0.700000X0.700000X-0.700000X0.700000X0*%
%ADD20R,0.625000X0.250000*%
%ADD21R,0.700000X0.450000*%
%ADD22R,0.575000X0.450000*%
%ADD23R,1.650000X0.400000*%
%ADD24R,0.700000X1.825000*%
%ADD25R,1.500000X2.000000*%
%ADD26R,2.000000X1.350000*%
%ADD27R,2.500000X1.430000*%
%ADD28RoundRect,0.250000X0.250000X0.475000X-0.250000X0.475000X-0.250000X-0.475000X0.250000X-0.475000X0*%
%ADD29RoundRect,0.300000X0.700000X0.700000X-0.700000X0.700000X-0.700000X-0.700000X0.700000X-0.700000X0*%
%ADD30R,2.150000X1.000000*%
%ADD31R,2.150000X3.250000*%
%ADD32R,0.475000X0.250000*%
%ADD33R,0.250000X0.475000*%
%ADD34RoundRect,0.218750X0.218750X0.256250X-0.218750X0.256250X-0.218750X-0.256250X0.218750X-0.256250X0*%
%ADD35RoundRect,0.200000X-0.275000X0.200000X-0.275000X-0.200000X0.275000X-0.200000X0.275000X0.200000X0*%
%ADD36RoundRect,0.150000X0.150000X-0.587500X0.150000X0.587500X-0.150000X0.587500X-0.150000X-0.587500X0*%
%ADD37R,1.000000X2.150000*%
%ADD38R,3.250000X2.150000*%
G04 APERTURE END LIST*
D10*
%TO.C,S2*%
X134325000Y-75900000D03*
X134325000Y-81900000D03*
X130575000Y-75900000D03*
X130575000Y-81900000D03*
%TD*%
%TO.C,S1*%
X100075000Y-55512500D03*
X100075000Y-49512500D03*
X103825000Y-55512500D03*
X103825000Y-49512500D03*
%TD*%
D11*
%TO.C,C23*%
X128000000Y-68040000D03*
X128000000Y-69000000D03*
%TD*%
D12*
%TO.C,C14*%
X104500000Y-58930000D03*
X104500000Y-57970000D03*
%TD*%
D11*
%TO.C,C13*%
X128350000Y-78920000D03*
X128350000Y-79880000D03*
%TD*%
%TO.C,C12*%
X105500000Y-53020000D03*
X105500000Y-53980000D03*
%TD*%
%TO.C,C9*%
X126975000Y-68040000D03*
X126975000Y-69000000D03*
%TD*%
D13*
%TO.C,C11*%
X103050000Y-87000000D03*
X104950000Y-87000000D03*
%TD*%
D14*
%TO.C,C19*%
X103000000Y-72900000D03*
X103000000Y-71000000D03*
%TD*%
D15*
%TO.C,R8*%
X131025000Y-50900000D03*
X129375000Y-50900000D03*
%TD*%
%TO.C,R11*%
X104825000Y-67000000D03*
X103175000Y-67000000D03*
%TD*%
D16*
%TO.C,U1*%
X113345606Y-59270000D03*
X113350000Y-56470000D03*
X113350000Y-57870000D03*
X114745606Y-59270000D03*
X114750000Y-56470000D03*
X114750000Y-57870000D03*
X116145606Y-59270000D03*
X116150000Y-56470000D03*
X116150000Y-57870000D03*
D17*
X107500000Y-50150000D03*
X107500000Y-51420000D03*
X107500000Y-52690000D03*
X107500000Y-53960000D03*
X107500000Y-55230000D03*
X107500000Y-56500000D03*
X107500000Y-57770000D03*
X107500000Y-59040000D03*
X107500000Y-60310000D03*
X107500000Y-61580000D03*
X107500000Y-62850000D03*
X107500000Y-64120000D03*
X107500000Y-65390000D03*
X107500000Y-66660000D03*
D18*
X109265000Y-67910000D03*
X110535000Y-67910000D03*
X111805000Y-67910000D03*
X113075000Y-67910000D03*
X114345000Y-67910000D03*
X115615000Y-67910000D03*
X116885000Y-67910000D03*
X118155000Y-67910000D03*
X119425000Y-67910000D03*
X120695000Y-67910000D03*
X121965000Y-67910000D03*
X123235000Y-67910000D03*
D17*
X125000000Y-66660000D03*
X125000000Y-65390000D03*
X125000000Y-64120000D03*
X125000000Y-62850000D03*
X125000000Y-61580000D03*
X125000000Y-60310000D03*
X125000000Y-59040000D03*
X125000000Y-57770000D03*
X125000000Y-56500000D03*
X125000000Y-55230000D03*
X125000000Y-53960000D03*
X125000000Y-52690000D03*
X125000000Y-51420000D03*
X125000000Y-50150000D03*
%TD*%
D15*
%TO.C,R10*%
X104825000Y-65500000D03*
X103175000Y-65500000D03*
%TD*%
D19*
%TO.C,GND1*%
X134300000Y-53400000D03*
%TD*%
D20*
%TO.C,U5*%
X101700000Y-60500000D03*
X101700000Y-61000000D03*
D21*
X101737500Y-61500000D03*
D20*
X101700000Y-62000000D03*
X101700000Y-62500000D03*
X102475000Y-62500000D03*
X102475000Y-62000000D03*
D22*
X102500000Y-61500000D03*
D20*
X102475000Y-61000000D03*
X102475000Y-60500000D03*
%TD*%
D23*
%TO.C,J6*%
X100580000Y-66350000D03*
X100580000Y-67000000D03*
X100580000Y-67650000D03*
X100580000Y-68300000D03*
X100580000Y-68950000D03*
D24*
X99380000Y-64700000D03*
D25*
X100680000Y-64800000D03*
D26*
X98630000Y-64920000D03*
D27*
X97430000Y-66690000D03*
X97430000Y-68610000D03*
D26*
X98630000Y-70400000D03*
D25*
X100700000Y-70550000D03*
D24*
X99380000Y-70650000D03*
%TD*%
D28*
%TO.C,C17*%
X111500000Y-78000000D03*
X109600000Y-78000000D03*
%TD*%
D29*
%TO.C,J20*%
X97700000Y-79200000D03*
X97700000Y-81700000D03*
%TD*%
D30*
%TO.C,ESP3V3*%
X105600000Y-70700000D03*
X105600000Y-73000000D03*
X105600000Y-75300000D03*
D31*
X111400000Y-73000000D03*
%TD*%
D32*
%TO.C,U7*%
X128300000Y-72300000D03*
X128300000Y-71800000D03*
X128300000Y-71300000D03*
X128300000Y-70800000D03*
D33*
X127637500Y-70637500D03*
X127137500Y-70637500D03*
X126637500Y-70637500D03*
D32*
X125975000Y-70800000D03*
X125975000Y-71300000D03*
X125975000Y-71800000D03*
X125975000Y-72300000D03*
D33*
X126637500Y-72462500D03*
X127137500Y-72462500D03*
X127637500Y-72462500D03*
%TD*%
D13*
%TO.C,C15*%
X100600000Y-58450000D03*
X102500000Y-58450000D03*
%TD*%
D34*
%TO.C,D4*%
X133987500Y-51000000D03*
X132412500Y-51000000D03*
%TD*%
D35*
%TO.C,R12*%
X105500000Y-50175000D03*
X105500000Y-51825000D03*
%TD*%
D36*
%TO.C,D6*%
X100050000Y-75937500D03*
X101950000Y-75937500D03*
X101000000Y-74062500D03*
%TD*%
D15*
%TO.C,R9*%
X131025000Y-49400000D03*
X129375000Y-49400000D03*
%TD*%
D37*
%TO.C,U3*%
X106100000Y-78500000D03*
X103800000Y-78500000D03*
X101500000Y-78500000D03*
D38*
X103800000Y-84300000D03*
%TD*%
D13*
%TO.C,C20*%
X109550000Y-80000000D03*
X111450000Y-80000000D03*
%TD*%
D34*
%TO.C,D5*%
X133987500Y-49400000D03*
X132412500Y-49400000D03*
%TD*%
D19*
%TO.C,TX_SBUS1*%
X130700000Y-53200000D03*
%TD*%
M02*
