M48
; DRILL file {KiCad 9.0.3} date 2025-08-28T21:38:15+0800
; FORMAT={-:-/ absolute / metric / decimal}
; #@! TF.CreationDate,2025-08-28T21:38:15+08:00
; #@! TF.GenerationSoftware,Kicad,Pcbnew,9.0.3
; #@! TF.FileFunction,Plated,1,4,PTH
FMAT,2
METRIC
; #@! TA.AperFunction,Plated,PTH,ComponentDrill
T1C0.200
; #@! TA.AperFunction,Plated,PTH,ViaDrill
T2C0.300
; #@! TA.AperFunction,Plated,PTH,ComponentDrill
T3C0.650
; #@! TA.AperFunction,Plated,PTH,ComponentDrill
T4C0.700
%
G90
G05
T1
X113.35Y-57.17
X113.35Y-58.57
X114.05Y-56.47
X114.05Y-57.87
X114.05Y-59.27
X114.75Y-57.17
X114.75Y-58.57
X115.45Y-56.47
X115.45Y-57.87
X115.45Y-59.27
X116.15Y-57.17
X116.15Y-58.57
T2
X97.2Y-81.3
X97.2Y-82.1
X98.1Y-82.1
X98.2Y-81.3
X99.4Y-66.4
X99.5Y-68.95
X99.5Y-73.0
X99.85Y-86.674
X100.5Y-57.45
X100.5Y-62.5
X100.85Y-52.9
X101.0Y-61.5
X102.5Y-57.45
X103.0Y-76.0
X103.5Y-70.0
X103.5Y-82.5
X104.5Y-60.5
X105.0Y-57.45
X105.0Y-58.95
X105.0Y-79.0
X105.5Y-49.4
X105.55Y-54.973
X106.0Y-87.5
X108.0Y-70.5
X108.0Y-78.5
X108.5Y-73.0
X109.0Y-50.0
X109.0Y-53.5
X109.5Y-57.9
X109.9Y-64.0
X111.9Y-66.4
X112.3Y-61.1
X112.5Y-79.0
X115.1Y-66.5
X115.977Y-65.823
X116.0Y-65.096
X116.6Y-84.8
X117.8Y-84.9
X118.9Y-66.6
X119.65Y-84.95
X120.8Y-70.5
X120.8Y-84.8
X121.6Y-66.0
X122.0Y-64.9
X122.3Y-63.8
X125.9Y-74.2
X125.975Y-69.1
X126.45Y-59.75
X126.5Y-50.0
X126.7Y-61.1
X126.95Y-69.8
X126.975Y-67.42
X127.0Y-74.3
X127.3Y-56.5
X127.775Y-67.42
X127.8Y-73.7
X128.1Y-69.85
X128.85Y-80.95
X128.9Y-74.05
X131.6Y-84.3
X132.5Y-58.3
X132.5Y-72.15
X132.5Y-73.46
X132.505Y-70.92
X132.6Y-57.03
X133.6Y-84.4
X133.8Y-53.0
X133.8Y-53.9
X134.325Y-78.8
X134.7Y-53.8
X134.8Y-50.9
X134.8Y-53.0
X134.9Y-49.4
T3
X97.5Y-49.5
X97.5Y-50.77
X97.5Y-52.04
X97.5Y-54.5
X97.5Y-55.77
X97.5Y-57.04
X97.5Y-59.73
X97.5Y-61.0
X97.5Y-62.27
X97.5Y-73.0
X97.5Y-74.27
X97.5Y-75.54
X97.5Y-84.73
X97.5Y-86.0
X97.5Y-87.27
X109.95Y-86.7
X111.22Y-86.7
X112.49Y-86.7
X113.76Y-86.7
X115.03Y-86.7
X116.3Y-86.7
X119.59Y-86.7
X120.86Y-86.7
X122.13Y-86.7
X123.4Y-86.7
X127.29Y-86.7
X128.56Y-86.7
X129.83Y-86.7
X130.8Y-57.03
X130.8Y-58.3
X130.8Y-59.57
X130.8Y-60.84
X130.8Y-62.11
X130.8Y-63.38
X130.8Y-65.84
X130.8Y-67.11
X130.8Y-68.38
X130.8Y-69.65
X130.8Y-70.92
X130.8Y-72.19
X130.8Y-73.46
X131.1Y-86.7
X132.37Y-86.7
X133.64Y-86.7
X134.3Y-57.03
X134.3Y-58.3
X134.3Y-59.57
X134.3Y-60.84
X134.3Y-62.11
X134.3Y-63.38
X134.3Y-64.65
X134.3Y-67.07
X134.3Y-68.34
X134.3Y-69.61
X134.3Y-70.88
X134.3Y-72.15
X134.3Y-73.42
T3
G00X100.5Y-65.23
M15
G01X100.9Y-65.23
M16
G05
G00X100.5Y-70.07
M15
G01X100.9Y-70.07
M16
G05
T4
G00X97.45Y-64.92
M15
G01X97.95Y-64.92
M16
G05
G00X97.45Y-70.38
M15
G01X97.95Y-70.38
M16
G05
M30
