%TF.GenerationSoftware,KiCad,Pcbnew,9.0.3*%
%TF.CreationDate,2025-08-28T21:38:12+08:00*%
%TF.ProjectId,ESP32_Board,45535033-325f-4426-9f61-72642e6b6963,rev?*%
%TF.SameCoordinates,Original*%
%TF.FileFunction,Copper,L2,Inr*%
%TF.FilePolarity,Positive*%
%FSLAX46Y46*%
G04 Gerber Fmt 4.6, Leading zero omitted, Abs format (unit mm)*
G04 Created by KiCad (PCBNEW 9.0.3) date 2025-08-28 21:38:12*
%MOMM*%
%LPD*%
G01*
G04 APERTURE LIST*
%TA.AperFunction,ComponentPad*%
%ADD10R,1.000000X1.000000*%
%TD*%
%TA.AperFunction,ComponentPad*%
%ADD11C,1.000000*%
%TD*%
%TA.AperFunction,HeatsinkPad*%
%ADD12C,0.600000*%
%TD*%
%TA.AperFunction,HeatsinkPad*%
%ADD13O,1.700000X1.350000*%
%TD*%
%TA.AperFunction,HeatsinkPad*%
%ADD14O,1.500000X1.100000*%
%TD*%
%TA.AperFunction,ViaPad*%
%ADD15C,0.600000*%
%TD*%
%TA.AperFunction,Conductor*%
%ADD16C,0.200000*%
%TD*%
G04 APERTURE END LIST*
D10*
%TO.N,/ESP32/US2*%
%TO.C,J8*%
X97500000Y-59730000D03*
D11*
%TO.N,/ESP32/5V*%
X97500000Y-61000000D03*
%TO.N,GND*%
X97500000Y-62270000D03*
%TD*%
D10*
%TO.N,/ESP32/US1*%
%TO.C,J7*%
X97500000Y-84730000D03*
D11*
%TO.N,/ESP32/5V*%
X97500000Y-86000000D03*
%TO.N,GND*%
X97500000Y-87270000D03*
%TD*%
D10*
%TO.N,/ESP32/US5*%
%TO.C,J11*%
X97500000Y-54500000D03*
D11*
%TO.N,/ESP32/5V*%
X97500000Y-55770000D03*
%TO.N,GND*%
X97500000Y-57040000D03*
%TD*%
D10*
%TO.N,/ESP32/TX*%
%TO.C,J19*%
X123400000Y-86700000D03*
D11*
%TO.N,/ESP32/RX*%
X122130000Y-86700000D03*
%TO.N,/ESP32/3V3*%
X120860000Y-86700000D03*
%TO.N,GND*%
X119590000Y-86700000D03*
%TD*%
D12*
%TO.N,GND*%
%TO.C,U1*%
X113350000Y-57170000D03*
X113350000Y-58570000D03*
X114050000Y-56470000D03*
X114050000Y-57870000D03*
X114050000Y-59270000D03*
X114750000Y-57170000D03*
X114750000Y-58570000D03*
X115450000Y-56470000D03*
X115450000Y-57870000D03*
X115450000Y-59270000D03*
X116150000Y-57170000D03*
X116150000Y-58570000D03*
%TD*%
D10*
%TO.N,/ESP32/SDA2*%
%TO.C,J14*%
X130800000Y-63380000D03*
D11*
%TO.N,/ESP32/SCL2*%
X130800000Y-62110000D03*
%TO.N,/ESP32/RESET*%
X130800000Y-60840000D03*
%TO.N,/ESP32/PENA*%
X130800000Y-59570000D03*
%TO.N,/ESP32/3V3*%
X130800000Y-58300000D03*
%TO.N,GND*%
X130800000Y-57030000D03*
%TD*%
D10*
%TO.N,/ESP32/LPN*%
%TO.C,J13*%
X130800000Y-65840000D03*
D11*
%TO.N,/ESP32/SDA1*%
X130800000Y-67110000D03*
%TO.N,/ESP32/SCL1*%
X130800000Y-68380000D03*
%TO.N,/ESP32/RESET*%
X130800000Y-69650000D03*
%TO.N,/ESP32/PENA*%
X130800000Y-70920000D03*
%TO.N,/ESP32/3V3*%
X130800000Y-72190000D03*
%TO.N,GND*%
X130800000Y-73460000D03*
%TD*%
D13*
%TO.N,GND*%
%TO.C,J6*%
X97700000Y-64920000D03*
D14*
X100700000Y-65230000D03*
X100700000Y-70070000D03*
D13*
X97700000Y-70380000D03*
%TD*%
D10*
%TO.N,/ESP32/US4*%
%TO.C,J10*%
X97500000Y-49500000D03*
D11*
%TO.N,/ESP32/5V*%
X97500000Y-50770000D03*
%TO.N,GND*%
X97500000Y-52040000D03*
%TD*%
D10*
%TO.N,/ESP32/SDA1*%
%TO.C,J12*%
X134300000Y-67070000D03*
D11*
%TO.N,/ESP32/SCL1*%
X134300000Y-68340000D03*
%TO.N,/ESP32/RESET*%
X134300000Y-69610000D03*
%TO.N,/ESP32/PENA*%
X134300000Y-70880000D03*
%TO.N,/ESP32/3V3*%
X134300000Y-72150000D03*
%TO.N,GND*%
X134300000Y-73420000D03*
%TD*%
D10*
%TO.N,/ESP32/LPN*%
%TO.C,J15*%
X134300000Y-64650000D03*
D11*
%TO.N,/ESP32/SDA2*%
X134300000Y-63380000D03*
%TO.N,/ESP32/SCL2*%
X134300000Y-62110000D03*
%TO.N,/ESP32/RESET*%
X134300000Y-60840000D03*
%TO.N,/ESP32/PENA*%
X134300000Y-59570000D03*
%TO.N,/ESP32/3V3*%
X134300000Y-58300000D03*
%TO.N,GND*%
X134300000Y-57030000D03*
%TD*%
D10*
%TO.N,/ESP32/US3*%
%TO.C,J9*%
X97500000Y-73000000D03*
D11*
%TO.N,/ESP32/5V*%
X97500000Y-74270000D03*
%TO.N,GND*%
X97500000Y-75540000D03*
%TD*%
D10*
%TO.N,/ESP32/SDCS*%
%TO.C,J16*%
X127290000Y-86700000D03*
D11*
%TO.N,/ESP32/SDCLK*%
X128560000Y-86700000D03*
%TO.N,/ESP32/SDMOSI*%
X129830000Y-86700000D03*
%TO.N,/ESP32/SDMISO*%
X131100000Y-86700000D03*
%TO.N,/ESP32/3V3*%
X132370000Y-86700000D03*
%TO.N,GND*%
X133640000Y-86700000D03*
%TD*%
D10*
%TO.N,/ESP32/CS1*%
%TO.C,J17*%
X109950000Y-86700000D03*
D11*
%TO.N,/ESP32/MOSI1*%
X111220000Y-86700000D03*
%TO.N,/ESP32/CLK1*%
X112490000Y-86700000D03*
%TO.N,/ESP32/MISO1*%
X113760000Y-86700000D03*
%TO.N,/ESP32/3V3*%
X115030000Y-86700000D03*
%TO.N,GND*%
X116300000Y-86700000D03*
%TD*%
D15*
%TO.N,/ESP32/3V3*%
X128900000Y-74050000D03*
X128100000Y-69850000D03*
%TO.N,GND*%
X99850342Y-86673686D03*
X134325000Y-78800000D03*
X128850000Y-80950000D03*
X100850000Y-52900000D03*
X105000000Y-57450000D03*
X102500000Y-57450000D03*
%TO.N,/ESP32/3V3*%
X100500000Y-57450000D03*
%TO.N,GND*%
X117800000Y-84900000D03*
X127775000Y-67420000D03*
X132500000Y-73460000D03*
X134800000Y-50900000D03*
X134800000Y-53000000D03*
X106000000Y-87500000D03*
X105550000Y-54973000D03*
X133800000Y-53900000D03*
X134700000Y-53800000D03*
X99500000Y-68950000D03*
X112500000Y-79000000D03*
X101000000Y-61500000D03*
X126950000Y-69800000D03*
X134900000Y-49400000D03*
X98200000Y-81300000D03*
X132600000Y-57030000D03*
X108000000Y-70500000D03*
X108000000Y-78500000D03*
X119650000Y-84950000D03*
X97200000Y-82100000D03*
X97200000Y-81300000D03*
X109000000Y-50000000D03*
X103500000Y-70000000D03*
X126975000Y-67420000D03*
X133800000Y-53000000D03*
X126500000Y-50000000D03*
X98100000Y-82100000D03*
X133600000Y-84400000D03*
%TO.N,/ESP32/5V*%
X103500000Y-82500000D03*
X105000000Y-79000000D03*
%TO.N,/ESP32/3V3*%
X105000000Y-58950000D03*
X108500000Y-73000000D03*
X116600000Y-84800000D03*
X125975000Y-69100000D03*
X105500000Y-49400000D03*
X132500000Y-58300000D03*
X120800000Y-84800000D03*
X132500000Y-72150000D03*
X131600000Y-84300000D03*
%TO.N,/ESP32/US1*%
X115100000Y-66500000D03*
%TO.N,/ESP32/US3*%
X104500000Y-60500000D03*
X99500000Y-73000000D03*
%TO.N,/ESP32/US4*%
X109000000Y-53500000D03*
%TO.N,/ESP32/PENA*%
X132505000Y-70920000D03*
%TO.N,/ESP32/SCL1*%
X111900000Y-66400000D03*
%TO.N,/ESP32/SDA1*%
X109900000Y-64000000D03*
%TO.N,/ESP32/LPN*%
X127300000Y-56500000D03*
%TO.N,/ESP32/SDA2*%
X112300000Y-61100000D03*
X126700000Y-61100000D03*
%TO.N,/ESP32/SCL2*%
X126450000Y-59750000D03*
X109500000Y-57900000D03*
%TO.N,/ESP32/TX*%
X116000125Y-65096000D03*
%TO.N,/ESP32/RX*%
X115977354Y-65822646D03*
%TO.N,/ESP32/SDCS*%
X118900000Y-66600000D03*
%TO.N,/ESP32/AP_SCLK2*%
X127000000Y-74300000D03*
X122000000Y-64900000D03*
%TO.N,/ESP32/SDCLK*%
X120800000Y-70500000D03*
%TO.N,/ESP32/AP_SDI2*%
X122300000Y-63800000D03*
X127800000Y-73700000D03*
%TO.N,/ESP32/AP_CS2*%
X121600000Y-66000000D03*
X125900000Y-74200000D03*
%TO.N,/ESP32/5V_USB2*%
X99400000Y-66400000D03*
X103000000Y-76000000D03*
X100500000Y-62500000D03*
%TD*%
D16*
%TO.N,/ESP32/5V*%
X98771000Y-64500000D02*
X98771000Y-61271000D01*
X99000000Y-56500000D02*
X99000000Y-51500000D01*
X98771000Y-61271000D02*
X98500000Y-61000000D01*
X98550000Y-74550000D02*
X98778000Y-74322000D01*
X98230000Y-56500000D02*
X97500000Y-55770000D01*
X97780000Y-74550000D02*
X97500000Y-74270000D01*
X99000000Y-51500000D02*
X98270000Y-50770000D01*
X103500000Y-82500000D02*
X103500000Y-81500000D01*
X99000000Y-56500000D02*
X98230000Y-56500000D01*
X103500000Y-82500000D02*
X100500000Y-85500000D01*
X100500000Y-85500000D02*
X99500000Y-85500000D01*
X98270000Y-50770000D02*
X97500000Y-50770000D01*
X99000000Y-86000000D02*
X97500000Y-86000000D01*
X98550000Y-74550000D02*
X97780000Y-74550000D01*
X98778000Y-64507000D02*
X98771000Y-64500000D01*
X103000000Y-79000000D02*
X98550000Y-74550000D01*
X103500000Y-81500000D02*
X105000000Y-80000000D01*
X99500000Y-85500000D02*
X99000000Y-86000000D01*
X105000000Y-80000000D02*
X105000000Y-79000000D01*
X105000000Y-79000000D02*
X103000000Y-79000000D01*
X98778000Y-74322000D02*
X98778000Y-64507000D01*
X99000000Y-60500000D02*
X99000000Y-56500000D01*
X98500000Y-61000000D02*
X97500000Y-61000000D01*
X98500000Y-61000000D02*
X99000000Y-60500000D01*
%TD*%
%TA.AperFunction,Conductor*%
%TO.N,/ESP32/3V3*%
G36*
X134138473Y-48880185D02*
G01*
X134184228Y-48932989D01*
X134194172Y-49002147D01*
X134185995Y-49031952D01*
X134130264Y-49166498D01*
X134130261Y-49166510D01*
X134099500Y-49321153D01*
X134099500Y-49478846D01*
X134130261Y-49633489D01*
X134130264Y-49633501D01*
X134190602Y-49779172D01*
X134190609Y-49779185D01*
X134278210Y-49910288D01*
X134278213Y-49910292D01*
X134394018Y-50026097D01*
X134392702Y-50027412D01*
X134427147Y-50077970D01*
X134429023Y-50147814D01*
X134392841Y-50207585D01*
X134378042Y-50219189D01*
X134289711Y-50278210D01*
X134289707Y-50278213D01*
X134178213Y-50389707D01*
X134178210Y-50389711D01*
X134090609Y-50520814D01*
X134090602Y-50520827D01*
X134030264Y-50666498D01*
X134030261Y-50666510D01*
X133999500Y-50821153D01*
X133999500Y-50978846D01*
X134030261Y-51133489D01*
X134030264Y-51133501D01*
X134090602Y-51279172D01*
X134090609Y-51279185D01*
X134178210Y-51410288D01*
X134178213Y-51410292D01*
X134289707Y-51521786D01*
X134289711Y-51521789D01*
X134420814Y-51609390D01*
X134420827Y-51609397D01*
X134544828Y-51660759D01*
X134566503Y-51669737D01*
X134721153Y-51700499D01*
X134721156Y-51700500D01*
X134721158Y-51700500D01*
X134878844Y-51700500D01*
X134878845Y-51700499D01*
X135033497Y-51669737D01*
X135179179Y-51609394D01*
X135256609Y-51557657D01*
X135323286Y-51536779D01*
X135390666Y-51555263D01*
X135437357Y-51607242D01*
X135449500Y-51660759D01*
X135449500Y-52239240D01*
X135429815Y-52306279D01*
X135377011Y-52352034D01*
X135307853Y-52361978D01*
X135256610Y-52342342D01*
X135179190Y-52290612D01*
X135179172Y-52290602D01*
X135033501Y-52230264D01*
X135033489Y-52230261D01*
X134878845Y-52199500D01*
X134878842Y-52199500D01*
X134721158Y-52199500D01*
X134721155Y-52199500D01*
X134566510Y-52230261D01*
X134566498Y-52230264D01*
X134420827Y-52290602D01*
X134420814Y-52290609D01*
X134368891Y-52325304D01*
X134302214Y-52346182D01*
X134234833Y-52327698D01*
X134231109Y-52325304D01*
X134179185Y-52290609D01*
X134179172Y-52290602D01*
X134033501Y-52230264D01*
X134033489Y-52230261D01*
X133878845Y-52199500D01*
X133878842Y-52199500D01*
X133721158Y-52199500D01*
X133721155Y-52199500D01*
X133566510Y-52230261D01*
X133566498Y-52230264D01*
X133420827Y-52290602D01*
X133420814Y-52290609D01*
X133289711Y-52378210D01*
X133289707Y-52378213D01*
X133178213Y-52489707D01*
X133178210Y-52489711D01*
X133090609Y-52620814D01*
X133090602Y-52620827D01*
X133030264Y-52766498D01*
X133030261Y-52766510D01*
X132999500Y-52921153D01*
X132999500Y-53078846D01*
X133030261Y-53233489D01*
X133030264Y-53233501D01*
X133090604Y-53379177D01*
X133090605Y-53379179D01*
X133091899Y-53381115D01*
X133092264Y-53382282D01*
X133093476Y-53384549D01*
X133093045Y-53384778D01*
X133112773Y-53447794D01*
X133094285Y-53515173D01*
X133091899Y-53518885D01*
X133090605Y-53520820D01*
X133090604Y-53520822D01*
X133030264Y-53666498D01*
X133030261Y-53666510D01*
X132999500Y-53821153D01*
X132999500Y-53978846D01*
X133030261Y-54133489D01*
X133030264Y-54133501D01*
X133090602Y-54279172D01*
X133090609Y-54279185D01*
X133178210Y-54410288D01*
X133178213Y-54410292D01*
X133289707Y-54521786D01*
X133289711Y-54521789D01*
X133420814Y-54609390D01*
X133420827Y-54609397D01*
X133566498Y-54669735D01*
X133566503Y-54669737D01*
X133721153Y-54700499D01*
X133721156Y-54700500D01*
X133721158Y-54700500D01*
X133878844Y-54700500D01*
X133878845Y-54700499D01*
X134033497Y-54669737D01*
X134179179Y-54609394D01*
X134270662Y-54548267D01*
X134337339Y-54527389D01*
X134387004Y-54536807D01*
X134466503Y-54569737D01*
X134587581Y-54593821D01*
X134621153Y-54600499D01*
X134621156Y-54600500D01*
X134621158Y-54600500D01*
X134778844Y-54600500D01*
X134778845Y-54600499D01*
X134933497Y-54569737D01*
X135079179Y-54509394D01*
X135210289Y-54421789D01*
X135221790Y-54410288D01*
X135237819Y-54394260D01*
X135299142Y-54360775D01*
X135368834Y-54365759D01*
X135424767Y-54407631D01*
X135449184Y-54473095D01*
X135449500Y-54481941D01*
X135449500Y-56567315D01*
X135429815Y-56634354D01*
X135377011Y-56680109D01*
X135307853Y-56690053D01*
X135244297Y-56661028D01*
X135210939Y-56614768D01*
X135186633Y-56556088D01*
X135186628Y-56556079D01*
X135077139Y-56392218D01*
X135077136Y-56392214D01*
X134937785Y-56252863D01*
X134937781Y-56252860D01*
X134773920Y-56143371D01*
X134773907Y-56143364D01*
X134591839Y-56067950D01*
X134591829Y-56067947D01*
X134398543Y-56029500D01*
X134398541Y-56029500D01*
X134201459Y-56029500D01*
X134201457Y-56029500D01*
X134008170Y-56067947D01*
X134008160Y-56067950D01*
X133826092Y-56143364D01*
X133826079Y-56143371D01*
X133662218Y-56252860D01*
X133662214Y-56252863D01*
X133522863Y-56392214D01*
X133432832Y-56526954D01*
X133379219Y-56571758D01*
X133309894Y-56580465D01*
X133246867Y-56550310D01*
X133226627Y-56526951D01*
X133221790Y-56519712D01*
X133221786Y-56519707D01*
X133110292Y-56408213D01*
X133110288Y-56408210D01*
X132979185Y-56320609D01*
X132979172Y-56320602D01*
X132833501Y-56260264D01*
X132833489Y-56260261D01*
X132678845Y-56229500D01*
X132678842Y-56229500D01*
X132521158Y-56229500D01*
X132521155Y-56229500D01*
X132366510Y-56260261D01*
X132366498Y-56260264D01*
X132220827Y-56320602D01*
X132220814Y-56320609D01*
X132089711Y-56408210D01*
X132089707Y-56408213D01*
X131978213Y-56519707D01*
X131917798Y-56610124D01*
X131864185Y-56654928D01*
X131794860Y-56663635D01*
X131731833Y-56633480D01*
X131700135Y-56588684D01*
X131686635Y-56556092D01*
X131686628Y-56556079D01*
X131577139Y-56392218D01*
X131577136Y-56392214D01*
X131437785Y-56252863D01*
X131437781Y-56252860D01*
X131273920Y-56143371D01*
X131273907Y-56143364D01*
X131091839Y-56067950D01*
X131091829Y-56067947D01*
X130898543Y-56029500D01*
X130898541Y-56029500D01*
X130701459Y-56029500D01*
X130701457Y-56029500D01*
X130508170Y-56067947D01*
X130508160Y-56067950D01*
X130326092Y-56143364D01*
X130326079Y-56143371D01*
X130162218Y-56252860D01*
X130162214Y-56252863D01*
X130022863Y-56392214D01*
X130022860Y-56392218D01*
X129913371Y-56556079D01*
X129913364Y-56556092D01*
X129837950Y-56738160D01*
X129837947Y-56738170D01*
X129799500Y-56931456D01*
X129799500Y-56931459D01*
X129799500Y-57128541D01*
X129799500Y-57128543D01*
X129799499Y-57128543D01*
X129837947Y-57321829D01*
X129837950Y-57321839D01*
X129908716Y-57492684D01*
X129913368Y-57503914D01*
X129943613Y-57549179D01*
X129975271Y-57596559D01*
X129996148Y-57663236D01*
X129977663Y-57730616D01*
X129975271Y-57734339D01*
X129913809Y-57826325D01*
X129838430Y-58008306D01*
X129838427Y-58008318D01*
X129800000Y-58201504D01*
X129800000Y-58398495D01*
X129838427Y-58591681D01*
X129838430Y-58591693D01*
X129913807Y-58773671D01*
X129913814Y-58773684D01*
X129975270Y-58865659D01*
X129996148Y-58932337D01*
X129977663Y-58999717D01*
X129975271Y-59003440D01*
X129913370Y-59096082D01*
X129913364Y-59096093D01*
X129837950Y-59278160D01*
X129837947Y-59278170D01*
X129799500Y-59471456D01*
X129799500Y-59471459D01*
X129799500Y-59668541D01*
X129799500Y-59668543D01*
X129799499Y-59668543D01*
X129837947Y-59861829D01*
X129837950Y-59861839D01*
X129911638Y-60039738D01*
X129913368Y-60043914D01*
X129957352Y-60109740D01*
X129974971Y-60136110D01*
X129995848Y-60202787D01*
X129977363Y-60270167D01*
X129974971Y-60273890D01*
X129913366Y-60366089D01*
X129837950Y-60548160D01*
X129837947Y-60548170D01*
X129799500Y-60741456D01*
X129799500Y-60741459D01*
X129799500Y-60938541D01*
X129799500Y-60938543D01*
X129799499Y-60938543D01*
X129837947Y-61131829D01*
X129837950Y-61131839D01*
X129908716Y-61302684D01*
X129913368Y-61313914D01*
X129944201Y-61360059D01*
X129974971Y-61406110D01*
X129995848Y-61472787D01*
X129977363Y-61540167D01*
X129974971Y-61543890D01*
X129913366Y-61636089D01*
X129837950Y-61818160D01*
X129837947Y-61818170D01*
X129799500Y-62011456D01*
X129799500Y-62011459D01*
X129799500Y-62208541D01*
X129799500Y-62208543D01*
X129799499Y-62208543D01*
X129837947Y-62401828D01*
X129837949Y-62401836D01*
X129880318Y-62504124D01*
X129887787Y-62573593D01*
X129865026Y-62625884D01*
X129856203Y-62637670D01*
X129856202Y-62637671D01*
X129805908Y-62772517D01*
X129801317Y-62815225D01*
X129799501Y-62832123D01*
X129799500Y-62832135D01*
X129799500Y-63927870D01*
X129799501Y-63927876D01*
X129805908Y-63987483D01*
X129856202Y-64122328D01*
X129856206Y-64122335D01*
X129942452Y-64237544D01*
X129942455Y-64237547D01*
X130057664Y-64323793D01*
X130057671Y-64323797D01*
X130192517Y-64374091D01*
X130192516Y-64374091D01*
X130199444Y-64374835D01*
X130252127Y-64380500D01*
X131347872Y-64380499D01*
X131407483Y-64374091D01*
X131542331Y-64323796D01*
X131657546Y-64237546D01*
X131743796Y-64122331D01*
X131794091Y-63987483D01*
X131800500Y-63927873D01*
X131800499Y-62832128D01*
X131794091Y-62772517D01*
X131783002Y-62742787D01*
X131743797Y-62637671D01*
X131743795Y-62637668D01*
X131734976Y-62625887D01*
X131710558Y-62560423D01*
X131719679Y-62504128D01*
X131762051Y-62401835D01*
X131800330Y-62209396D01*
X131800500Y-62208543D01*
X131800500Y-62011456D01*
X131762052Y-61818170D01*
X131762051Y-61818169D01*
X131762051Y-61818165D01*
X131750635Y-61790603D01*
X131686635Y-61636092D01*
X131686633Y-61636088D01*
X131686632Y-61636086D01*
X131625029Y-61543891D01*
X131604151Y-61477214D01*
X131622635Y-61409834D01*
X131625029Y-61406109D01*
X131637872Y-61386887D01*
X131686632Y-61313914D01*
X131762051Y-61131835D01*
X131774632Y-61068582D01*
X131800500Y-60938543D01*
X131800500Y-60741456D01*
X131762052Y-60548170D01*
X131762051Y-60548169D01*
X131762051Y-60548165D01*
X131742123Y-60500053D01*
X131686635Y-60366092D01*
X131686633Y-60366088D01*
X131686632Y-60366086D01*
X131625029Y-60273891D01*
X131604151Y-60207214D01*
X131622635Y-60139834D01*
X131625029Y-60136109D01*
X131637872Y-60116887D01*
X131686632Y-60043914D01*
X131762051Y-59861835D01*
X131776219Y-59790609D01*
X131800500Y-59668543D01*
X131800500Y-59471456D01*
X131762052Y-59278170D01*
X131762051Y-59278169D01*
X131762051Y-59278165D01*
X131741627Y-59228857D01*
X131686635Y-59096092D01*
X131686628Y-59096079D01*
X131624728Y-59003440D01*
X131603850Y-58936763D01*
X131622334Y-58869383D01*
X131624729Y-58865657D01*
X131686189Y-58773676D01*
X131686191Y-58773673D01*
X131761569Y-58591693D01*
X131761572Y-58591681D01*
X131799999Y-58398495D01*
X131800000Y-58398492D01*
X131800000Y-58201508D01*
X131799999Y-58201504D01*
X131761572Y-58008318D01*
X131761569Y-58008306D01*
X131686192Y-57826328D01*
X131686188Y-57826321D01*
X131624728Y-57734341D01*
X131619739Y-57718409D01*
X131610208Y-57704706D01*
X131609515Y-57685756D01*
X131603850Y-57667663D01*
X131608246Y-57651030D01*
X131607656Y-57634883D01*
X131619602Y-57608064D01*
X131621136Y-57602264D01*
X131622845Y-57599377D01*
X131686632Y-57503914D01*
X131703509Y-57463168D01*
X131708002Y-57455582D01*
X131727364Y-57437524D01*
X131743975Y-57416912D01*
X131752514Y-57414069D01*
X131759099Y-57407929D01*
X131785150Y-57403206D01*
X131810269Y-57394846D01*
X131818992Y-57397072D01*
X131827849Y-57395467D01*
X131852312Y-57405576D01*
X131877968Y-57412124D01*
X131885551Y-57419311D01*
X131892422Y-57422151D01*
X131899919Y-57432930D01*
X131917798Y-57449876D01*
X131978210Y-57540288D01*
X131978213Y-57540292D01*
X132089707Y-57651786D01*
X132089711Y-57651789D01*
X132220814Y-57739390D01*
X132220827Y-57739397D01*
X132366498Y-57799735D01*
X132366503Y-57799737D01*
X132514482Y-57829172D01*
X132521153Y-57830499D01*
X132521156Y-57830500D01*
X132521158Y-57830500D01*
X132678844Y-57830500D01*
X132678845Y-57830499D01*
X132833497Y-57799737D01*
X132979179Y-57739394D01*
X133110289Y-57651789D01*
X133221789Y-57540289D01*
X133226625Y-57533050D01*
X133251797Y-57512011D01*
X133276213Y-57490080D01*
X133278476Y-57489713D01*
X133280234Y-57488244D01*
X133312786Y-57484153D01*
X133345183Y-57478904D01*
X133347284Y-57479818D01*
X133349558Y-57479533D01*
X133379158Y-57493692D01*
X133409246Y-57506789D01*
X133411287Y-57509062D01*
X133412588Y-57509684D01*
X133432832Y-57533046D01*
X133475270Y-57596558D01*
X133496148Y-57663235D01*
X133477664Y-57730615D01*
X133475271Y-57734339D01*
X133413809Y-57826325D01*
X133338430Y-58008306D01*
X133338427Y-58008318D01*
X133300000Y-58201504D01*
X133300000Y-58398495D01*
X133338427Y-58591681D01*
X133338430Y-58591693D01*
X133413807Y-58773671D01*
X133413814Y-58773684D01*
X133475270Y-58865659D01*
X133496148Y-58932337D01*
X133477663Y-58999717D01*
X133475271Y-59003440D01*
X133413370Y-59096082D01*
X133413364Y-59096093D01*
X133337950Y-59278160D01*
X133337947Y-59278170D01*
X133299500Y-59471456D01*
X133299500Y-59471459D01*
X133299500Y-59668541D01*
X133299500Y-59668543D01*
X133299499Y-59668543D01*
X133337947Y-59861829D01*
X133337950Y-59861839D01*
X133411638Y-60039738D01*
X133413368Y-60043914D01*
X133457352Y-60109740D01*
X133474971Y-60136110D01*
X133495848Y-60202787D01*
X133477363Y-60270167D01*
X133474971Y-60273890D01*
X133413366Y-60366089D01*
X133337950Y-60548160D01*
X133337947Y-60548170D01*
X133299500Y-60741456D01*
X133299500Y-60741459D01*
X133299500Y-60938541D01*
X133299500Y-60938543D01*
X133299499Y-60938543D01*
X133337947Y-61131829D01*
X133337950Y-61131839D01*
X133408716Y-61302684D01*
X133413368Y-61313914D01*
X133444201Y-61360059D01*
X133474971Y-61406110D01*
X133495848Y-61472787D01*
X133477363Y-61540167D01*
X133474971Y-61543890D01*
X133413366Y-61636089D01*
X133337950Y-61818160D01*
X133337947Y-61818170D01*
X133299500Y-62011456D01*
X133299500Y-62011459D01*
X133299500Y-62208541D01*
X133299500Y-62208543D01*
X133299499Y-62208543D01*
X133337947Y-62401829D01*
X133337950Y-62401839D01*
X133413365Y-62583907D01*
X133413368Y-62583914D01*
X133449285Y-62637668D01*
X133474971Y-62676110D01*
X133495848Y-62742787D01*
X133477363Y-62810167D01*
X133474971Y-62813890D01*
X133413366Y-62906089D01*
X133337950Y-63088160D01*
X133337947Y-63088170D01*
X133299500Y-63281456D01*
X133299500Y-63281459D01*
X133299500Y-63478541D01*
X133299500Y-63478543D01*
X133299499Y-63478543D01*
X133337947Y-63671828D01*
X133337949Y-63671836D01*
X133380318Y-63774124D01*
X133387787Y-63843593D01*
X133365026Y-63895884D01*
X133356203Y-63907670D01*
X133356202Y-63907671D01*
X133305908Y-64042517D01*
X133299501Y-64102116D01*
X133299500Y-64102135D01*
X133299500Y-65197870D01*
X133299501Y-65197876D01*
X133305908Y-65257483D01*
X133356202Y-65392328D01*
X133356206Y-65392335D01*
X133442452Y-65507544D01*
X133442455Y-65507547D01*
X133557664Y-65593793D01*
X133557671Y-65593797D01*
X133692517Y-65644091D01*
X133692516Y-65644091D01*
X133699444Y-65644835D01*
X133752127Y-65650500D01*
X134847872Y-65650499D01*
X134907483Y-65644091D01*
X135042331Y-65593796D01*
X135157546Y-65507546D01*
X135226234Y-65415789D01*
X135282167Y-65373920D01*
X135351859Y-65368936D01*
X135413182Y-65402421D01*
X135446666Y-65463745D01*
X135449500Y-65490102D01*
X135449500Y-66229897D01*
X135429815Y-66296936D01*
X135377011Y-66342691D01*
X135307853Y-66352635D01*
X135244297Y-66323610D01*
X135226234Y-66304208D01*
X135157547Y-66212455D01*
X135157544Y-66212452D01*
X135042335Y-66126206D01*
X135042328Y-66126202D01*
X134907482Y-66075908D01*
X134907483Y-66075908D01*
X134847883Y-66069501D01*
X134847881Y-66069500D01*
X134847873Y-66069500D01*
X134847864Y-66069500D01*
X133752129Y-66069500D01*
X133752123Y-66069501D01*
X133692516Y-66075908D01*
X133557671Y-66126202D01*
X133557664Y-66126206D01*
X133442455Y-66212452D01*
X133442452Y-66212455D01*
X133356206Y-66327664D01*
X133356202Y-66327671D01*
X133305908Y-66462517D01*
X133299501Y-66522116D01*
X133299500Y-66522135D01*
X133299500Y-67617870D01*
X133299501Y-67617876D01*
X133305908Y-67677483D01*
X133356202Y-67812328D01*
X133356206Y-67812335D01*
X133365023Y-67824113D01*
X133389440Y-67889578D01*
X133380318Y-67945874D01*
X133337948Y-68048168D01*
X133337947Y-68048171D01*
X133299500Y-68241456D01*
X133299500Y-68241459D01*
X133299500Y-68438541D01*
X133299500Y-68438543D01*
X133299499Y-68438543D01*
X133337947Y-68631829D01*
X133337950Y-68631839D01*
X133389061Y-68755232D01*
X133413368Y-68813914D01*
X133451614Y-68871153D01*
X133474971Y-68906110D01*
X133495848Y-68972787D01*
X133477363Y-69040167D01*
X133474971Y-69043890D01*
X133413366Y-69136089D01*
X133337950Y-69318160D01*
X133337947Y-69318170D01*
X133299500Y-69511456D01*
X133299500Y-69511459D01*
X133299500Y-69708541D01*
X133299500Y-69708543D01*
X133299499Y-69708543D01*
X133337947Y-69901829D01*
X133337950Y-69901839D01*
X133413365Y-70083907D01*
X133413368Y-70083914D01*
X133440095Y-70123914D01*
X133474971Y-70176110D01*
X133479663Y-70191096D01*
X133488838Y-70203841D01*
X133489889Y-70223755D01*
X133495848Y-70242787D01*
X133491741Y-70258849D01*
X133492521Y-70273614D01*
X133481501Y-70298902D01*
X133479573Y-70306447D01*
X133477402Y-70310250D01*
X133413368Y-70406086D01*
X133388562Y-70465972D01*
X133384694Y-70472753D01*
X133364926Y-70491796D01*
X133347709Y-70513162D01*
X133340130Y-70515684D01*
X133334376Y-70521228D01*
X133307451Y-70526561D01*
X133281415Y-70535227D01*
X133273674Y-70533251D01*
X133265837Y-70534804D01*
X133240304Y-70524734D01*
X133213716Y-70517948D01*
X133207030Y-70511611D01*
X133200840Y-70509170D01*
X133193075Y-70498384D01*
X133173887Y-70480197D01*
X133126789Y-70409711D01*
X133126786Y-70409707D01*
X133015292Y-70298213D01*
X133015288Y-70298210D01*
X132884185Y-70210609D01*
X132884172Y-70210602D01*
X132738501Y-70150264D01*
X132738489Y-70150261D01*
X132583845Y-70119500D01*
X132583842Y-70119500D01*
X132426158Y-70119500D01*
X132426155Y-70119500D01*
X132271510Y-70150261D01*
X132271498Y-70150264D01*
X132125827Y-70210602D01*
X132125814Y-70210609D01*
X131994711Y-70298210D01*
X131994707Y-70298213D01*
X131883213Y-70409707D01*
X131883209Y-70409712D01*
X131875868Y-70420699D01*
X131850699Y-70441731D01*
X131826285Y-70463662D01*
X131824015Y-70464029D01*
X131822254Y-70465502D01*
X131789702Y-70469589D01*
X131757315Y-70474838D01*
X131755209Y-70473921D01*
X131752929Y-70474208D01*
X131723332Y-70460046D01*
X131693251Y-70446953D01*
X131691203Y-70444673D01*
X131689903Y-70444051D01*
X131669669Y-70420699D01*
X131625027Y-70353888D01*
X131604150Y-70287214D01*
X131622634Y-70219834D01*
X131625029Y-70216108D01*
X131628704Y-70210609D01*
X131686632Y-70123914D01*
X131762051Y-69941835D01*
X131792133Y-69790606D01*
X131800500Y-69748543D01*
X131800500Y-69551456D01*
X131762052Y-69358170D01*
X131762051Y-69358169D01*
X131762051Y-69358165D01*
X131734069Y-69290609D01*
X131686635Y-69176092D01*
X131686633Y-69176088D01*
X131686632Y-69176086D01*
X131625029Y-69083891D01*
X131604151Y-69017214D01*
X131622635Y-68949834D01*
X131625029Y-68946109D01*
X131658845Y-68895500D01*
X131686632Y-68853914D01*
X131762051Y-68671835D01*
X131800500Y-68478541D01*
X131800500Y-68281459D01*
X131800500Y-68281456D01*
X131762052Y-68088170D01*
X131762051Y-68088169D01*
X131762051Y-68088165D01*
X131742842Y-68041789D01*
X131686635Y-67906092D01*
X131686633Y-67906088D01*
X131686632Y-67906086D01*
X131625029Y-67813891D01*
X131604151Y-67747214D01*
X131622635Y-67679834D01*
X131625029Y-67676109D01*
X131663941Y-67617873D01*
X131686632Y-67583914D01*
X131762051Y-67401835D01*
X131795841Y-67231963D01*
X131800500Y-67208543D01*
X131800500Y-67011456D01*
X131762052Y-66818170D01*
X131762051Y-66818169D01*
X131762051Y-66818165D01*
X131719680Y-66715873D01*
X131712212Y-66646407D01*
X131734977Y-66594111D01*
X131743796Y-66582331D01*
X131794091Y-66447483D01*
X131800500Y-66387873D01*
X131800499Y-65292128D01*
X131794091Y-65232517D01*
X131781169Y-65197872D01*
X131743797Y-65097671D01*
X131743793Y-65097664D01*
X131657547Y-64982455D01*
X131657544Y-64982452D01*
X131542335Y-64896206D01*
X131542328Y-64896202D01*
X131407482Y-64845908D01*
X131407483Y-64845908D01*
X131347883Y-64839501D01*
X131347881Y-64839500D01*
X131347873Y-64839500D01*
X131347864Y-64839500D01*
X130252129Y-64839500D01*
X130252123Y-64839501D01*
X130192516Y-64845908D01*
X130057671Y-64896202D01*
X130057664Y-64896206D01*
X129942455Y-64982452D01*
X129942452Y-64982455D01*
X129856206Y-65097664D01*
X129856202Y-65097671D01*
X129805908Y-65232517D01*
X129799501Y-65292116D01*
X129799501Y-65292123D01*
X129799500Y-65292135D01*
X129799500Y-66387870D01*
X129799501Y-66387876D01*
X129805908Y-66447483D01*
X129856202Y-66582328D01*
X129856206Y-66582335D01*
X129865023Y-66594113D01*
X129889440Y-66659578D01*
X129880318Y-66715874D01*
X129877384Y-66722958D01*
X129837950Y-66818164D01*
X129837948Y-66818168D01*
X129837947Y-66818171D01*
X129799500Y-67011456D01*
X129799500Y-67011459D01*
X129799500Y-67208541D01*
X129799500Y-67208543D01*
X129799499Y-67208543D01*
X129837947Y-67401829D01*
X129837950Y-67401839D01*
X129913365Y-67583907D01*
X129913368Y-67583914D01*
X129936057Y-67617870D01*
X129974971Y-67676110D01*
X129995848Y-67742787D01*
X129977363Y-67810167D01*
X129974971Y-67813890D01*
X129913366Y-67906089D01*
X129837950Y-68088160D01*
X129837947Y-68088170D01*
X129799500Y-68281456D01*
X129799500Y-68281459D01*
X129799500Y-68478541D01*
X129799500Y-68478543D01*
X129799499Y-68478543D01*
X129837947Y-68671829D01*
X129837950Y-68671839D01*
X129913365Y-68853907D01*
X129913368Y-68853914D01*
X129957352Y-68919740D01*
X129974971Y-68946110D01*
X129995848Y-69012787D01*
X129977363Y-69080167D01*
X129974971Y-69083890D01*
X129913366Y-69176089D01*
X129837950Y-69358160D01*
X129837947Y-69358170D01*
X129799500Y-69551456D01*
X129799500Y-69551459D01*
X129799500Y-69748541D01*
X129799500Y-69748543D01*
X129799499Y-69748543D01*
X129837947Y-69941829D01*
X129837950Y-69941839D01*
X129912089Y-70120827D01*
X129913368Y-70123914D01*
X129957352Y-70189740D01*
X129974971Y-70216110D01*
X129995848Y-70282787D01*
X129977363Y-70350167D01*
X129974971Y-70353890D01*
X129913366Y-70446089D01*
X129837950Y-70628160D01*
X129837947Y-70628170D01*
X129799500Y-70821456D01*
X129799500Y-70821459D01*
X129799500Y-71018541D01*
X129799500Y-71018543D01*
X129799499Y-71018543D01*
X129837947Y-71211829D01*
X129837950Y-71211839D01*
X129905326Y-71374499D01*
X129913368Y-71393914D01*
X129937675Y-71430292D01*
X129975271Y-71486559D01*
X129996148Y-71553236D01*
X129977663Y-71620616D01*
X129975271Y-71624339D01*
X129913809Y-71716325D01*
X129838430Y-71898306D01*
X129838427Y-71898318D01*
X129800000Y-72091504D01*
X129800000Y-72288495D01*
X129838427Y-72481681D01*
X129838430Y-72481693D01*
X129913807Y-72663671D01*
X129913814Y-72663684D01*
X129975270Y-72755659D01*
X129996148Y-72822337D01*
X129977663Y-72889717D01*
X129975271Y-72893440D01*
X129913370Y-72986082D01*
X129913364Y-72986093D01*
X129837950Y-73168160D01*
X129837947Y-73168170D01*
X129799500Y-73361456D01*
X129799500Y-73361459D01*
X129799500Y-73558541D01*
X129799500Y-73558543D01*
X129799499Y-73558543D01*
X129837947Y-73751829D01*
X129837950Y-73751839D01*
X129913364Y-73933907D01*
X129913371Y-73933920D01*
X130022860Y-74097781D01*
X130022863Y-74097785D01*
X130162214Y-74237136D01*
X130162218Y-74237139D01*
X130326079Y-74346628D01*
X130326092Y-74346635D01*
X130508160Y-74422049D01*
X130508165Y-74422051D01*
X130508169Y-74422051D01*
X130508170Y-74422052D01*
X130701456Y-74460500D01*
X130701459Y-74460500D01*
X130898543Y-74460500D01*
X131034333Y-74433489D01*
X131091835Y-74422051D01*
X131273914Y-74346632D01*
X131437782Y-74237139D01*
X131577139Y-74097782D01*
X131667168Y-73963042D01*
X131720777Y-73918241D01*
X131790102Y-73909533D01*
X131853130Y-73939687D01*
X131873369Y-73963043D01*
X131878211Y-73970290D01*
X131989707Y-74081786D01*
X131989711Y-74081789D01*
X132120814Y-74169390D01*
X132120827Y-74169397D01*
X132219558Y-74210292D01*
X132266503Y-74229737D01*
X132421153Y-74260499D01*
X132421156Y-74260500D01*
X132421158Y-74260500D01*
X132578844Y-74260500D01*
X132578845Y-74260499D01*
X132733497Y-74229737D01*
X132879179Y-74169394D01*
X133010289Y-74081789D01*
X133121789Y-73970289D01*
X133192430Y-73864567D01*
X133246040Y-73819763D01*
X133315365Y-73811056D01*
X133378393Y-73841210D01*
X133410091Y-73886005D01*
X133413363Y-73893905D01*
X133413371Y-73893920D01*
X133522860Y-74057781D01*
X133522863Y-74057785D01*
X133662214Y-74197136D01*
X133662218Y-74197139D01*
X133826079Y-74306628D01*
X133826092Y-74306635D01*
X134008160Y-74382049D01*
X134008165Y-74382051D01*
X134008169Y-74382051D01*
X134008170Y-74382052D01*
X134201456Y-74420500D01*
X134201459Y-74420500D01*
X134398543Y-74420500D01*
X134528582Y-74394632D01*
X134591835Y-74382051D01*
X134732655Y-74323721D01*
X134773907Y-74306635D01*
X134773907Y-74306634D01*
X134773914Y-74306632D01*
X134937782Y-74197139D01*
X135077139Y-74057782D01*
X135186632Y-73893914D01*
X135210939Y-73835232D01*
X135254779Y-73780828D01*
X135321073Y-73758763D01*
X135388773Y-73776042D01*
X135436384Y-73827179D01*
X135449500Y-73882684D01*
X135449500Y-87735500D01*
X135429815Y-87802539D01*
X135377011Y-87848294D01*
X135325500Y-87859500D01*
X134078542Y-87859500D01*
X134011503Y-87839815D01*
X133965748Y-87787011D01*
X133955804Y-87717853D01*
X133984829Y-87654297D01*
X134031090Y-87620939D01*
X134113907Y-87586635D01*
X134113907Y-87586634D01*
X134113914Y-87586632D01*
X134277782Y-87477139D01*
X134417139Y-87337782D01*
X134526632Y-87173914D01*
X134602051Y-86991835D01*
X134624652Y-86878213D01*
X134640500Y-86798543D01*
X134640500Y-86601456D01*
X134602052Y-86408170D01*
X134602051Y-86408169D01*
X134602051Y-86408165D01*
X134588314Y-86375000D01*
X134526635Y-86226092D01*
X134526628Y-86226079D01*
X134417139Y-86062218D01*
X134417136Y-86062214D01*
X134277785Y-85922863D01*
X134277781Y-85922860D01*
X134113920Y-85813371D01*
X134113907Y-85813364D01*
X133931839Y-85737950D01*
X133931829Y-85737947D01*
X133738543Y-85699500D01*
X133738541Y-85699500D01*
X133541459Y-85699500D01*
X133541457Y-85699500D01*
X133348170Y-85737947D01*
X133348160Y-85737950D01*
X133166093Y-85813364D01*
X133166082Y-85813370D01*
X133073440Y-85875271D01*
X133006762Y-85896148D01*
X132939382Y-85877663D01*
X132935659Y-85875270D01*
X132843684Y-85813814D01*
X132843671Y-85813807D01*
X132661693Y-85738430D01*
X132661681Y-85738427D01*
X132468495Y-85700000D01*
X132271504Y-85700000D01*
X132078318Y-85738427D01*
X132078306Y-85738430D01*
X131896325Y-85813809D01*
X131804339Y-85875271D01*
X131737661Y-85896148D01*
X131670281Y-85877663D01*
X131666559Y-85875271D01*
X131595631Y-85827879D01*
X131573914Y-85813368D01*
X131573911Y-85813366D01*
X131573910Y-85813366D01*
X131391839Y-85737950D01*
X131391829Y-85737947D01*
X131198543Y-85699500D01*
X131198541Y-85699500D01*
X131001459Y-85699500D01*
X131001457Y-85699500D01*
X130808170Y-85737947D01*
X130808160Y-85737950D01*
X130626089Y-85813366D01*
X130533890Y-85874971D01*
X130467213Y-85895848D01*
X130399833Y-85877363D01*
X130396110Y-85874971D01*
X130325631Y-85827879D01*
X130303914Y-85813368D01*
X130303911Y-85813366D01*
X130303910Y-85813366D01*
X130121839Y-85737950D01*
X130121829Y-85737947D01*
X129928543Y-85699500D01*
X129928541Y-85699500D01*
X129731459Y-85699500D01*
X129731457Y-85699500D01*
X129538170Y-85737947D01*
X129538160Y-85737950D01*
X129356089Y-85813366D01*
X129263890Y-85874971D01*
X129197213Y-85895848D01*
X129129833Y-85877363D01*
X129126110Y-85874971D01*
X129055631Y-85827879D01*
X129033914Y-85813368D01*
X129033911Y-85813366D01*
X129033910Y-85813366D01*
X128851839Y-85737950D01*
X128851829Y-85737947D01*
X128658543Y-85699500D01*
X128658541Y-85699500D01*
X128461459Y-85699500D01*
X128461457Y-85699500D01*
X128268171Y-85737947D01*
X128268168Y-85737948D01*
X128268166Y-85737948D01*
X128268165Y-85737949D01*
X128267004Y-85738430D01*
X128165874Y-85780318D01*
X128096404Y-85787785D01*
X128044113Y-85765023D01*
X128032335Y-85756206D01*
X128032328Y-85756202D01*
X127897482Y-85705908D01*
X127897483Y-85705908D01*
X127837883Y-85699501D01*
X127837881Y-85699500D01*
X127837873Y-85699500D01*
X127837864Y-85699500D01*
X126742129Y-85699500D01*
X126742123Y-85699501D01*
X126682516Y-85705908D01*
X126547671Y-85756202D01*
X126547664Y-85756206D01*
X126432455Y-85842452D01*
X126432452Y-85842455D01*
X126346206Y-85957664D01*
X126346202Y-85957671D01*
X126295908Y-86092517D01*
X126292029Y-86128604D01*
X126289501Y-86152123D01*
X126289500Y-86152135D01*
X126289500Y-87247870D01*
X126289501Y-87247876D01*
X126295908Y-87307483D01*
X126346202Y-87442328D01*
X126346206Y-87442335D01*
X126432452Y-87557544D01*
X126432453Y-87557544D01*
X126432454Y-87557546D01*
X126471308Y-87586632D01*
X126537567Y-87636234D01*
X126579437Y-87692168D01*
X126584421Y-87761859D01*
X126550935Y-87823182D01*
X126489612Y-87856666D01*
X126463255Y-87859500D01*
X124226745Y-87859500D01*
X124159706Y-87839815D01*
X124113951Y-87787011D01*
X124104007Y-87717853D01*
X124133032Y-87654297D01*
X124152433Y-87636234D01*
X124176000Y-87618590D01*
X124257546Y-87557546D01*
X124343796Y-87442331D01*
X124394091Y-87307483D01*
X124400500Y-87247873D01*
X124400499Y-86152128D01*
X124394091Y-86092517D01*
X124382790Y-86062218D01*
X124343797Y-85957671D01*
X124343793Y-85957664D01*
X124257547Y-85842455D01*
X124257544Y-85842452D01*
X124142335Y-85756206D01*
X124142328Y-85756202D01*
X124007482Y-85705908D01*
X124007483Y-85705908D01*
X123947883Y-85699501D01*
X123947881Y-85699500D01*
X123947873Y-85699500D01*
X123947864Y-85699500D01*
X122852129Y-85699500D01*
X122852123Y-85699501D01*
X122792516Y-85705908D01*
X122657671Y-85756202D01*
X122657670Y-85756203D01*
X122645884Y-85765026D01*
X122580419Y-85789441D01*
X122524124Y-85780318D01*
X122421836Y-85737949D01*
X122421828Y-85737947D01*
X122228543Y-85699500D01*
X122228541Y-85699500D01*
X122031459Y-85699500D01*
X122031457Y-85699500D01*
X121838170Y-85737947D01*
X121838160Y-85737950D01*
X121656093Y-85813364D01*
X121656082Y-85813370D01*
X121563440Y-85875271D01*
X121496762Y-85896148D01*
X121429382Y-85877663D01*
X121425659Y-85875270D01*
X121333684Y-85813814D01*
X121333671Y-85813807D01*
X121151693Y-85738430D01*
X121151681Y-85738427D01*
X120958495Y-85700000D01*
X120761504Y-85700000D01*
X120568318Y-85738427D01*
X120568306Y-85738430D01*
X120386325Y-85813809D01*
X120294339Y-85875271D01*
X120275262Y-85881243D01*
X120258255Y-85891750D01*
X120242600Y-85891470D01*
X120227661Y-85896148D01*
X120208384Y-85890859D01*
X120188397Y-85890503D01*
X120163276Y-85878484D01*
X120160281Y-85877663D01*
X120156559Y-85875271D01*
X120085631Y-85827879D01*
X120040825Y-85774267D01*
X120032118Y-85704942D01*
X120062272Y-85641914D01*
X120085626Y-85621677D01*
X120160289Y-85571789D01*
X120271789Y-85460289D01*
X120359394Y-85329179D01*
X120419737Y-85183497D01*
X120450500Y-85028842D01*
X120450500Y-84871158D01*
X120450500Y-84871155D01*
X120450499Y-84871153D01*
X120432204Y-84779179D01*
X120419737Y-84716503D01*
X120419735Y-84716498D01*
X120359397Y-84570827D01*
X120359390Y-84570814D01*
X120271789Y-84439711D01*
X120271786Y-84439707D01*
X120160292Y-84328213D01*
X120160288Y-84328210D01*
X120149727Y-84321153D01*
X132799500Y-84321153D01*
X132799500Y-84478846D01*
X132830261Y-84633489D01*
X132830264Y-84633501D01*
X132890602Y-84779172D01*
X132890609Y-84779185D01*
X132978210Y-84910288D01*
X132978213Y-84910292D01*
X133089707Y-85021786D01*
X133089711Y-85021789D01*
X133220814Y-85109390D01*
X133220827Y-85109397D01*
X133366498Y-85169735D01*
X133366503Y-85169737D01*
X133521153Y-85200499D01*
X133521156Y-85200500D01*
X133521158Y-85200500D01*
X133678844Y-85200500D01*
X133678845Y-85200499D01*
X133833497Y-85169737D01*
X133979179Y-85109394D01*
X134110289Y-85021789D01*
X134221789Y-84910289D01*
X134309394Y-84779179D01*
X134369737Y-84633497D01*
X134400500Y-84478842D01*
X134400500Y-84321158D01*
X134400500Y-84321155D01*
X134400499Y-84321153D01*
X134391957Y-84278210D01*
X134369737Y-84166503D01*
X134362694Y-84149500D01*
X134309397Y-84020827D01*
X134309390Y-84020814D01*
X134221789Y-83889711D01*
X134221786Y-83889707D01*
X134110292Y-83778213D01*
X134110288Y-83778210D01*
X133979185Y-83690609D01*
X133979172Y-83690602D01*
X133833501Y-83630264D01*
X133833489Y-83630261D01*
X133678845Y-83599500D01*
X133678842Y-83599500D01*
X133521158Y-83599500D01*
X133521155Y-83599500D01*
X133366510Y-83630261D01*
X133366498Y-83630264D01*
X133220827Y-83690602D01*
X133220814Y-83690609D01*
X133089711Y-83778210D01*
X133089707Y-83778213D01*
X132978213Y-83889707D01*
X132978210Y-83889711D01*
X132890609Y-84020814D01*
X132890602Y-84020827D01*
X132830264Y-84166498D01*
X132830261Y-84166510D01*
X132799500Y-84321153D01*
X120149727Y-84321153D01*
X120029185Y-84240609D01*
X120029172Y-84240602D01*
X119883501Y-84180264D01*
X119883489Y-84180261D01*
X119728845Y-84149500D01*
X119728842Y-84149500D01*
X119571158Y-84149500D01*
X119571155Y-84149500D01*
X119416510Y-84180261D01*
X119416498Y-84180264D01*
X119270827Y-84240602D01*
X119270814Y-84240609D01*
X119139711Y-84328210D01*
X119139707Y-84328213D01*
X119028213Y-84439707D01*
X119028210Y-84439711D01*
X118940609Y-84570814D01*
X118940602Y-84570827D01*
X118880264Y-84716498D01*
X118880261Y-84716510D01*
X118849500Y-84871153D01*
X118849500Y-85028846D01*
X118880261Y-85183489D01*
X118880264Y-85183501D01*
X118940602Y-85329172D01*
X118940609Y-85329185D01*
X119028210Y-85460288D01*
X119028213Y-85460292D01*
X119139707Y-85571786D01*
X119139712Y-85571790D01*
X119160967Y-85585992D01*
X119205773Y-85639604D01*
X119214482Y-85708928D01*
X119184328Y-85771956D01*
X119139533Y-85803655D01*
X119116091Y-85813365D01*
X119116079Y-85813371D01*
X118952218Y-85922860D01*
X118952214Y-85922863D01*
X118812863Y-86062214D01*
X118812860Y-86062218D01*
X118703371Y-86226079D01*
X118703364Y-86226092D01*
X118627950Y-86408160D01*
X118627947Y-86408170D01*
X118589500Y-86601456D01*
X118589500Y-86601459D01*
X118589500Y-86798541D01*
X118589500Y-86798543D01*
X118589499Y-86798543D01*
X118627947Y-86991829D01*
X118627950Y-86991839D01*
X118703364Y-87173907D01*
X118703371Y-87173920D01*
X118812860Y-87337781D01*
X118812863Y-87337785D01*
X118952214Y-87477136D01*
X118952218Y-87477139D01*
X119116079Y-87586628D01*
X119116092Y-87586635D01*
X119198910Y-87620939D01*
X119253314Y-87664780D01*
X119275379Y-87731074D01*
X119258100Y-87798773D01*
X119206963Y-87846384D01*
X119151458Y-87859500D01*
X116738542Y-87859500D01*
X116671503Y-87839815D01*
X116625748Y-87787011D01*
X116615804Y-87717853D01*
X116644829Y-87654297D01*
X116691090Y-87620939D01*
X116773907Y-87586635D01*
X116773907Y-87586634D01*
X116773914Y-87586632D01*
X116937782Y-87477139D01*
X117077139Y-87337782D01*
X117186632Y-87173914D01*
X117262051Y-86991835D01*
X117284652Y-86878213D01*
X117300500Y-86798543D01*
X117300500Y-86601456D01*
X117262052Y-86408170D01*
X117262051Y-86408169D01*
X117262051Y-86408165D01*
X117248314Y-86375000D01*
X117186635Y-86226092D01*
X117186628Y-86226079D01*
X117077139Y-86062218D01*
X117077136Y-86062214D01*
X116937785Y-85922863D01*
X116937781Y-85922860D01*
X116773920Y-85813371D01*
X116773907Y-85813364D01*
X116591839Y-85737950D01*
X116591829Y-85737947D01*
X116398543Y-85699500D01*
X116398541Y-85699500D01*
X116201459Y-85699500D01*
X116201457Y-85699500D01*
X116008170Y-85737947D01*
X116008160Y-85737950D01*
X115826093Y-85813364D01*
X115826082Y-85813370D01*
X115733440Y-85875271D01*
X115666762Y-85896148D01*
X115599382Y-85877663D01*
X115595659Y-85875270D01*
X115503684Y-85813814D01*
X115503671Y-85813807D01*
X115321693Y-85738430D01*
X115321681Y-85738427D01*
X115128495Y-85700000D01*
X114931504Y-85700000D01*
X114738318Y-85738427D01*
X114738306Y-85738430D01*
X114556325Y-85813809D01*
X114464339Y-85875271D01*
X114397661Y-85896148D01*
X114330281Y-85877663D01*
X114326559Y-85875271D01*
X114255631Y-85827879D01*
X114233914Y-85813368D01*
X114233911Y-85813366D01*
X114233910Y-85813366D01*
X114051839Y-85737950D01*
X114051829Y-85737947D01*
X113858543Y-85699500D01*
X113858541Y-85699500D01*
X113661459Y-85699500D01*
X113661457Y-85699500D01*
X113468170Y-85737947D01*
X113468160Y-85737950D01*
X113286089Y-85813366D01*
X113193890Y-85874971D01*
X113127213Y-85895848D01*
X113059833Y-85877363D01*
X113056110Y-85874971D01*
X112985631Y-85827879D01*
X112963914Y-85813368D01*
X112963911Y-85813366D01*
X112963910Y-85813366D01*
X112781839Y-85737950D01*
X112781829Y-85737947D01*
X112588543Y-85699500D01*
X112588541Y-85699500D01*
X112391459Y-85699500D01*
X112391457Y-85699500D01*
X112198170Y-85737947D01*
X112198160Y-85737950D01*
X112016089Y-85813366D01*
X111923890Y-85874971D01*
X111857213Y-85895848D01*
X111789833Y-85877363D01*
X111786110Y-85874971D01*
X111715631Y-85827879D01*
X111693914Y-85813368D01*
X111693911Y-85813366D01*
X111693910Y-85813366D01*
X111511839Y-85737950D01*
X111511829Y-85737947D01*
X111318543Y-85699500D01*
X111318541Y-85699500D01*
X111121459Y-85699500D01*
X111121457Y-85699500D01*
X110928171Y-85737947D01*
X110928168Y-85737948D01*
X110928166Y-85737948D01*
X110928165Y-85737949D01*
X110927004Y-85738430D01*
X110825874Y-85780318D01*
X110756404Y-85787785D01*
X110704113Y-85765023D01*
X110692335Y-85756206D01*
X110692328Y-85756202D01*
X110557482Y-85705908D01*
X110557483Y-85705908D01*
X110497883Y-85699501D01*
X110497881Y-85699500D01*
X110497873Y-85699500D01*
X110497864Y-85699500D01*
X109402129Y-85699500D01*
X109402123Y-85699501D01*
X109342516Y-85705908D01*
X109207671Y-85756202D01*
X109207664Y-85756206D01*
X109092455Y-85842452D01*
X109092452Y-85842455D01*
X109006206Y-85957664D01*
X109006202Y-85957671D01*
X108955908Y-86092517D01*
X108952029Y-86128604D01*
X108949501Y-86152123D01*
X108949500Y-86152135D01*
X108949500Y-87247870D01*
X108949501Y-87247876D01*
X108955908Y-87307483D01*
X109006202Y-87442328D01*
X109006206Y-87442335D01*
X109092452Y-87557544D01*
X109092453Y-87557544D01*
X109092454Y-87557546D01*
X109131308Y-87586632D01*
X109197567Y-87636234D01*
X109239437Y-87692168D01*
X109244421Y-87761859D01*
X109210935Y-87823182D01*
X109149612Y-87856666D01*
X109123255Y-87859500D01*
X106895768Y-87859500D01*
X106828729Y-87839815D01*
X106782974Y-87787011D01*
X106773030Y-87717853D01*
X106774151Y-87711308D01*
X106800500Y-87578844D01*
X106800500Y-87421155D01*
X106800499Y-87421153D01*
X106769738Y-87266510D01*
X106769737Y-87266503D01*
X106769735Y-87266498D01*
X106709397Y-87120827D01*
X106709390Y-87120814D01*
X106621789Y-86989711D01*
X106621786Y-86989707D01*
X106510292Y-86878213D01*
X106510288Y-86878210D01*
X106379185Y-86790609D01*
X106379172Y-86790602D01*
X106233501Y-86730264D01*
X106233489Y-86730261D01*
X106078845Y-86699500D01*
X106078842Y-86699500D01*
X105921158Y-86699500D01*
X105921155Y-86699500D01*
X105766510Y-86730261D01*
X105766498Y-86730264D01*
X105620827Y-86790602D01*
X105620814Y-86790609D01*
X105489711Y-86878210D01*
X105489707Y-86878213D01*
X105378213Y-86989707D01*
X105378210Y-86989711D01*
X105290609Y-87120814D01*
X105290602Y-87120827D01*
X105230264Y-87266498D01*
X105230261Y-87266510D01*
X105199500Y-87421153D01*
X105199500Y-87421158D01*
X105199500Y-87578842D01*
X105199500Y-87578844D01*
X105199499Y-87578844D01*
X105225849Y-87711308D01*
X105219622Y-87780900D01*
X105176759Y-87836077D01*
X105110869Y-87859322D01*
X105104232Y-87859500D01*
X98524334Y-87859500D01*
X98457295Y-87839815D01*
X98411540Y-87787011D01*
X98401596Y-87717853D01*
X98409773Y-87688048D01*
X98449283Y-87592660D01*
X98462051Y-87561835D01*
X98490034Y-87421158D01*
X98500500Y-87368543D01*
X98500500Y-87171456D01*
X98462052Y-86978170D01*
X98462051Y-86978169D01*
X98462051Y-86978165D01*
X98387649Y-86798541D01*
X98386635Y-86796092D01*
X98386629Y-86796081D01*
X98384831Y-86793390D01*
X98384322Y-86791764D01*
X98383759Y-86790711D01*
X98383958Y-86790604D01*
X98363954Y-86726713D01*
X98382439Y-86659333D01*
X98434418Y-86612643D01*
X98487934Y-86600500D01*
X98913341Y-86600500D01*
X98920941Y-86600500D01*
X98920943Y-86600501D01*
X98925852Y-86600501D01*
X98963037Y-86611422D01*
X98992881Y-86620186D01*
X98992883Y-86620189D01*
X98992890Y-86620191D01*
X99018112Y-86649304D01*
X99038636Y-86672990D01*
X99038637Y-86672995D01*
X99038640Y-86672999D01*
X99038643Y-86673026D01*
X99049842Y-86724501D01*
X99049842Y-86752532D01*
X99080603Y-86907175D01*
X99080606Y-86907187D01*
X99140944Y-87052858D01*
X99140951Y-87052871D01*
X99228552Y-87183974D01*
X99228555Y-87183978D01*
X99340049Y-87295472D01*
X99340053Y-87295475D01*
X99471156Y-87383076D01*
X99471169Y-87383083D01*
X99614218Y-87442335D01*
X99616845Y-87443423D01*
X99771495Y-87474185D01*
X99771498Y-87474186D01*
X99771500Y-87474186D01*
X99929186Y-87474186D01*
X99929187Y-87474185D01*
X100083839Y-87443423D01*
X100229521Y-87383080D01*
X100360631Y-87295475D01*
X100472131Y-87183975D01*
X100559736Y-87052865D01*
X100620079Y-86907183D01*
X100650842Y-86752528D01*
X100650842Y-86594844D01*
X100650842Y-86594841D01*
X100650841Y-86594839D01*
X100620080Y-86440196D01*
X100620079Y-86440189D01*
X100619974Y-86439936D01*
X100559739Y-86294513D01*
X100559733Y-86294502D01*
X100548860Y-86278229D01*
X100541900Y-86256002D01*
X100530763Y-86235543D01*
X100531655Y-86223280D01*
X100527983Y-86211551D01*
X100534144Y-86189091D01*
X100535836Y-86165858D01*
X100543215Y-86156026D01*
X100546468Y-86144171D01*
X100563797Y-86128604D01*
X100577779Y-86109978D01*
X100592464Y-86102855D01*
X100598447Y-86097482D01*
X100608777Y-86093102D01*
X100614227Y-86091077D01*
X100731785Y-86059577D01*
X100781904Y-86030639D01*
X100868716Y-85980520D01*
X100980520Y-85868716D01*
X100980520Y-85868714D01*
X100990728Y-85858507D01*
X100990729Y-85858504D01*
X102028081Y-84821153D01*
X116999500Y-84821153D01*
X116999500Y-84978846D01*
X117030261Y-85133489D01*
X117030264Y-85133501D01*
X117090602Y-85279172D01*
X117090609Y-85279185D01*
X117178210Y-85410288D01*
X117178213Y-85410292D01*
X117289707Y-85521786D01*
X117289711Y-85521789D01*
X117420814Y-85609390D01*
X117420827Y-85609397D01*
X117566498Y-85669735D01*
X117566503Y-85669737D01*
X117716131Y-85699500D01*
X117721153Y-85700499D01*
X117721156Y-85700500D01*
X117721158Y-85700500D01*
X117878844Y-85700500D01*
X117878845Y-85700499D01*
X118033497Y-85669737D01*
X118179179Y-85609394D01*
X118310289Y-85521789D01*
X118421789Y-85410289D01*
X118509394Y-85279179D01*
X118569737Y-85133497D01*
X118600500Y-84978842D01*
X118600500Y-84821158D01*
X118600500Y-84821155D01*
X118600499Y-84821153D01*
X118579684Y-84716510D01*
X118569737Y-84666503D01*
X118530102Y-84570814D01*
X118509397Y-84520827D01*
X118509390Y-84520814D01*
X118421789Y-84389711D01*
X118421786Y-84389707D01*
X118310292Y-84278213D01*
X118310288Y-84278210D01*
X118179185Y-84190609D01*
X118179172Y-84190602D01*
X118033501Y-84130264D01*
X118033489Y-84130261D01*
X117878845Y-84099500D01*
X117878842Y-84099500D01*
X117721158Y-84099500D01*
X117721155Y-84099500D01*
X117566510Y-84130261D01*
X117566498Y-84130264D01*
X117420827Y-84190602D01*
X117420814Y-84190609D01*
X117289711Y-84278210D01*
X117289707Y-84278213D01*
X117178213Y-84389707D01*
X117178210Y-84389711D01*
X117090609Y-84520814D01*
X117090602Y-84520827D01*
X117030264Y-84666498D01*
X117030261Y-84666510D01*
X116999500Y-84821153D01*
X102028081Y-84821153D01*
X103514664Y-83334571D01*
X103575985Y-83301088D01*
X103578152Y-83300637D01*
X103578841Y-83300500D01*
X103578842Y-83300500D01*
X103733497Y-83269737D01*
X103879179Y-83209394D01*
X104010289Y-83121789D01*
X104121789Y-83010289D01*
X104209394Y-82879179D01*
X104269737Y-82733497D01*
X104300500Y-82578842D01*
X104300500Y-82421158D01*
X104300500Y-82421155D01*
X104300499Y-82421153D01*
X104269738Y-82266510D01*
X104269738Y-82266508D01*
X104269737Y-82266503D01*
X104233427Y-82178842D01*
X104209397Y-82120827D01*
X104209390Y-82120814D01*
X104121398Y-81989125D01*
X104115747Y-81971078D01*
X104105523Y-81955169D01*
X104101071Y-81924207D01*
X104100520Y-81922447D01*
X104100500Y-81920234D01*
X104100500Y-81800096D01*
X104120185Y-81733057D01*
X104136814Y-81712420D01*
X104978080Y-80871153D01*
X128049500Y-80871153D01*
X128049500Y-81028846D01*
X128080261Y-81183489D01*
X128080264Y-81183501D01*
X128140602Y-81329172D01*
X128140609Y-81329185D01*
X128228210Y-81460288D01*
X128228213Y-81460292D01*
X128339707Y-81571786D01*
X128339711Y-81571789D01*
X128470814Y-81659390D01*
X128470827Y-81659397D01*
X128568853Y-81700000D01*
X128616503Y-81719737D01*
X128762285Y-81748735D01*
X128771153Y-81750499D01*
X128771156Y-81750500D01*
X128771158Y-81750500D01*
X128928844Y-81750500D01*
X128928845Y-81750499D01*
X129083497Y-81719737D01*
X129229179Y-81659394D01*
X129360289Y-81571789D01*
X129471789Y-81460289D01*
X129559394Y-81329179D01*
X129619737Y-81183497D01*
X129650500Y-81028842D01*
X129650500Y-80871158D01*
X129650500Y-80871155D01*
X129650499Y-80871153D01*
X129631847Y-80777385D01*
X129619737Y-80716503D01*
X129615279Y-80705740D01*
X129559397Y-80570827D01*
X129559390Y-80570814D01*
X129471789Y-80439711D01*
X129471786Y-80439707D01*
X129360292Y-80328213D01*
X129360288Y-80328210D01*
X129229185Y-80240609D01*
X129229172Y-80240602D01*
X129083501Y-80180264D01*
X129083489Y-80180261D01*
X128928845Y-80149500D01*
X128928842Y-80149500D01*
X128771158Y-80149500D01*
X128771155Y-80149500D01*
X128616510Y-80180261D01*
X128616498Y-80180264D01*
X128470827Y-80240602D01*
X128470814Y-80240609D01*
X128339711Y-80328210D01*
X128339707Y-80328213D01*
X128228213Y-80439707D01*
X128228210Y-80439711D01*
X128140609Y-80570814D01*
X128140602Y-80570827D01*
X128080264Y-80716498D01*
X128080261Y-80716510D01*
X128049500Y-80871153D01*
X104978080Y-80871153D01*
X105358506Y-80490727D01*
X105358511Y-80490724D01*
X105368714Y-80480520D01*
X105368716Y-80480520D01*
X105480520Y-80368716D01*
X105559577Y-80231784D01*
X105600500Y-80079057D01*
X105600500Y-79579765D01*
X105620185Y-79512726D01*
X105621398Y-79510874D01*
X105709390Y-79379185D01*
X105709390Y-79379184D01*
X105709394Y-79379179D01*
X105769737Y-79233497D01*
X105800500Y-79078842D01*
X105800500Y-78921158D01*
X105800500Y-78921155D01*
X105800499Y-78921153D01*
X105792148Y-78879172D01*
X105769737Y-78766503D01*
X105750955Y-78721158D01*
X105709397Y-78620827D01*
X105709390Y-78620814D01*
X105621790Y-78489712D01*
X105621784Y-78489705D01*
X105553232Y-78421153D01*
X107199500Y-78421153D01*
X107199500Y-78578846D01*
X107230261Y-78733489D01*
X107230264Y-78733501D01*
X107290602Y-78879172D01*
X107290609Y-78879185D01*
X107378210Y-79010288D01*
X107378213Y-79010292D01*
X107489707Y-79121786D01*
X107489711Y-79121789D01*
X107620814Y-79209390D01*
X107620827Y-79209397D01*
X107766498Y-79269735D01*
X107766503Y-79269737D01*
X107921153Y-79300499D01*
X107921156Y-79300500D01*
X107921158Y-79300500D01*
X108078844Y-79300500D01*
X108078845Y-79300499D01*
X108233497Y-79269737D01*
X108379179Y-79209394D01*
X108510289Y-79121789D01*
X108621789Y-79010289D01*
X108681348Y-78921153D01*
X111699500Y-78921153D01*
X111699500Y-79078846D01*
X111730261Y-79233489D01*
X111730264Y-79233501D01*
X111790602Y-79379172D01*
X111790609Y-79379185D01*
X111878210Y-79510288D01*
X111878213Y-79510292D01*
X111989707Y-79621786D01*
X111989711Y-79621789D01*
X112120814Y-79709390D01*
X112120827Y-79709397D01*
X112199894Y-79742147D01*
X112266503Y-79769737D01*
X112421153Y-79800499D01*
X112421156Y-79800500D01*
X112421158Y-79800500D01*
X112578844Y-79800500D01*
X112578845Y-79800499D01*
X112733497Y-79769737D01*
X112879179Y-79709394D01*
X113010289Y-79621789D01*
X113121789Y-79510289D01*
X113209394Y-79379179D01*
X113269737Y-79233497D01*
X113300500Y-79078842D01*
X113300500Y-78921158D01*
X113300500Y-78921155D01*
X113300499Y-78921153D01*
X113292148Y-78879172D01*
X113269737Y-78766503D01*
X113250955Y-78721158D01*
X113250953Y-78721153D01*
X133524500Y-78721153D01*
X133524500Y-78878846D01*
X133555261Y-79033489D01*
X133555264Y-79033501D01*
X133615602Y-79179172D01*
X133615609Y-79179185D01*
X133703210Y-79310288D01*
X133703213Y-79310292D01*
X133814707Y-79421786D01*
X133814711Y-79421789D01*
X133945814Y-79509390D01*
X133945827Y-79509397D01*
X134066972Y-79559576D01*
X134091503Y-79569737D01*
X134191029Y-79589534D01*
X134246153Y-79600499D01*
X134246156Y-79600500D01*
X134246158Y-79600500D01*
X134403844Y-79600500D01*
X134403845Y-79600499D01*
X134558497Y-79569737D01*
X134704179Y-79509394D01*
X134835289Y-79421789D01*
X134946789Y-79310289D01*
X135034394Y-79179179D01*
X135094737Y-79033497D01*
X135125500Y-78878842D01*
X135125500Y-78721158D01*
X135125500Y-78721155D01*
X135125499Y-78721153D01*
X135105543Y-78620827D01*
X135094737Y-78566503D01*
X135094735Y-78566498D01*
X135034397Y-78420827D01*
X135034390Y-78420814D01*
X134946789Y-78289711D01*
X134946786Y-78289707D01*
X134835292Y-78178213D01*
X134835288Y-78178210D01*
X134704185Y-78090609D01*
X134704172Y-78090602D01*
X134558501Y-78030264D01*
X134558489Y-78030261D01*
X134403845Y-77999500D01*
X134403842Y-77999500D01*
X134246158Y-77999500D01*
X134246155Y-77999500D01*
X134091510Y-78030261D01*
X134091498Y-78030264D01*
X133945827Y-78090602D01*
X133945814Y-78090609D01*
X133814711Y-78178210D01*
X133814707Y-78178213D01*
X133703213Y-78289707D01*
X133703210Y-78289711D01*
X133615609Y-78420814D01*
X133615602Y-78420827D01*
X133555264Y-78566498D01*
X133555261Y-78566510D01*
X133524500Y-78721153D01*
X113250953Y-78721153D01*
X113209397Y-78620827D01*
X113209390Y-78620814D01*
X113121789Y-78489711D01*
X113121786Y-78489707D01*
X113010292Y-78378213D01*
X113010288Y-78378210D01*
X112879185Y-78290609D01*
X112879172Y-78290602D01*
X112733501Y-78230264D01*
X112733489Y-78230261D01*
X112578845Y-78199500D01*
X112578842Y-78199500D01*
X112421158Y-78199500D01*
X112421155Y-78199500D01*
X112266510Y-78230261D01*
X112266498Y-78230264D01*
X112120827Y-78290602D01*
X112120814Y-78290609D01*
X111989711Y-78378210D01*
X111989707Y-78378213D01*
X111878213Y-78489707D01*
X111878210Y-78489711D01*
X111790609Y-78620814D01*
X111790602Y-78620827D01*
X111730264Y-78766498D01*
X111730261Y-78766510D01*
X111699500Y-78921153D01*
X108681348Y-78921153D01*
X108709394Y-78879179D01*
X108769737Y-78733497D01*
X108800500Y-78578842D01*
X108800500Y-78421158D01*
X108800500Y-78421155D01*
X108800499Y-78421153D01*
X108791957Y-78378210D01*
X108769737Y-78266503D01*
X108769735Y-78266498D01*
X108709397Y-78120827D01*
X108709390Y-78120814D01*
X108621789Y-77989711D01*
X108621786Y-77989707D01*
X108510292Y-77878213D01*
X108510288Y-77878210D01*
X108379185Y-77790609D01*
X108379172Y-77790602D01*
X108233501Y-77730264D01*
X108233489Y-77730261D01*
X108078845Y-77699500D01*
X108078842Y-77699500D01*
X107921158Y-77699500D01*
X107921155Y-77699500D01*
X107766510Y-77730261D01*
X107766498Y-77730264D01*
X107620827Y-77790602D01*
X107620814Y-77790609D01*
X107489711Y-77878210D01*
X107489707Y-77878213D01*
X107378213Y-77989707D01*
X107378210Y-77989711D01*
X107290609Y-78120814D01*
X107290602Y-78120827D01*
X107230264Y-78266498D01*
X107230261Y-78266510D01*
X107199500Y-78421153D01*
X105553232Y-78421153D01*
X105510292Y-78378213D01*
X105510288Y-78378210D01*
X105379185Y-78290609D01*
X105379172Y-78290602D01*
X105233501Y-78230264D01*
X105233489Y-78230261D01*
X105078845Y-78199500D01*
X105078842Y-78199500D01*
X104921158Y-78199500D01*
X104921155Y-78199500D01*
X104766510Y-78230261D01*
X104766498Y-78230264D01*
X104620827Y-78290602D01*
X104620814Y-78290609D01*
X104489125Y-78378602D01*
X104422447Y-78399480D01*
X104420234Y-78399500D01*
X103300097Y-78399500D01*
X103233058Y-78379815D01*
X103212416Y-78363181D01*
X100770388Y-75921153D01*
X102199500Y-75921153D01*
X102199500Y-76078846D01*
X102230261Y-76233489D01*
X102230264Y-76233501D01*
X102290602Y-76379172D01*
X102290609Y-76379185D01*
X102378210Y-76510288D01*
X102378213Y-76510292D01*
X102489707Y-76621786D01*
X102489711Y-76621789D01*
X102620814Y-76709390D01*
X102620827Y-76709397D01*
X102766498Y-76769735D01*
X102766503Y-76769737D01*
X102921153Y-76800499D01*
X102921156Y-76800500D01*
X102921158Y-76800500D01*
X103078844Y-76800500D01*
X103078845Y-76800499D01*
X103233497Y-76769737D01*
X103379179Y-76709394D01*
X103510289Y-76621789D01*
X103621789Y-76510289D01*
X103709394Y-76379179D01*
X103769737Y-76233497D01*
X103800500Y-76078842D01*
X103800500Y-75921158D01*
X103800500Y-75921155D01*
X103800499Y-75921153D01*
X103769738Y-75766510D01*
X103769737Y-75766503D01*
X103716734Y-75638541D01*
X103709397Y-75620827D01*
X103709390Y-75620814D01*
X103621789Y-75489711D01*
X103621786Y-75489707D01*
X103510292Y-75378213D01*
X103510288Y-75378210D01*
X103379185Y-75290609D01*
X103379172Y-75290602D01*
X103233501Y-75230264D01*
X103233489Y-75230261D01*
X103078845Y-75199500D01*
X103078842Y-75199500D01*
X102921158Y-75199500D01*
X102921155Y-75199500D01*
X102766510Y-75230261D01*
X102766498Y-75230264D01*
X102620827Y-75290602D01*
X102620814Y-75290609D01*
X102489711Y-75378210D01*
X102489707Y-75378213D01*
X102378213Y-75489707D01*
X102378210Y-75489711D01*
X102290609Y-75620814D01*
X102290602Y-75620827D01*
X102230264Y-75766498D01*
X102230261Y-75766510D01*
X102199500Y-75921153D01*
X100770388Y-75921153D01*
X99402029Y-74552794D01*
X99368544Y-74491471D01*
X99365902Y-74458222D01*
X99366614Y-74445413D01*
X99378501Y-74401057D01*
X99378501Y-74242942D01*
X99378500Y-74242938D01*
X99378500Y-74121153D01*
X125099500Y-74121153D01*
X125099500Y-74278846D01*
X125130261Y-74433489D01*
X125130264Y-74433501D01*
X125190602Y-74579172D01*
X125190609Y-74579185D01*
X125278210Y-74710288D01*
X125278213Y-74710292D01*
X125389707Y-74821786D01*
X125389711Y-74821789D01*
X125520814Y-74909390D01*
X125520827Y-74909397D01*
X125666498Y-74969735D01*
X125666503Y-74969737D01*
X125821153Y-75000499D01*
X125821156Y-75000500D01*
X125821158Y-75000500D01*
X125978844Y-75000500D01*
X125978845Y-75000499D01*
X126133497Y-74969737D01*
X126279179Y-74909394D01*
X126313341Y-74886567D01*
X126380013Y-74865690D01*
X126447393Y-74884173D01*
X126469910Y-74901989D01*
X126489707Y-74921786D01*
X126489711Y-74921789D01*
X126620814Y-75009390D01*
X126620827Y-75009397D01*
X126766498Y-75069735D01*
X126766503Y-75069737D01*
X126921153Y-75100499D01*
X126921156Y-75100500D01*
X126921158Y-75100500D01*
X127078844Y-75100500D01*
X127078845Y-75100499D01*
X127233497Y-75069737D01*
X127379179Y-75009394D01*
X127510289Y-74921789D01*
X127621789Y-74810289D01*
X127709394Y-74679179D01*
X127751698Y-74577048D01*
X127795538Y-74522644D01*
X127861833Y-74500579D01*
X127866259Y-74500500D01*
X127878844Y-74500500D01*
X127878845Y-74500499D01*
X128033497Y-74469737D01*
X128179179Y-74409394D01*
X128310289Y-74321789D01*
X128421789Y-74210289D01*
X128509394Y-74079179D01*
X128569737Y-73933497D01*
X128600500Y-73778842D01*
X128600500Y-73621158D01*
X128600500Y-73621155D01*
X128600499Y-73621153D01*
X128588045Y-73558543D01*
X128569737Y-73466503D01*
X128569735Y-73466498D01*
X128509397Y-73320827D01*
X128509390Y-73320814D01*
X128421789Y-73189711D01*
X128421786Y-73189707D01*
X128310292Y-73078213D01*
X128310288Y-73078210D01*
X128179185Y-72990609D01*
X128179172Y-72990602D01*
X128033501Y-72930264D01*
X128033489Y-72930261D01*
X127878845Y-72899500D01*
X127878842Y-72899500D01*
X127721158Y-72899500D01*
X127721155Y-72899500D01*
X127566510Y-72930261D01*
X127566498Y-72930264D01*
X127420827Y-72990602D01*
X127420814Y-72990609D01*
X127289711Y-73078210D01*
X127289707Y-73078213D01*
X127178213Y-73189707D01*
X127178210Y-73189711D01*
X127090609Y-73320814D01*
X127090602Y-73320827D01*
X127048302Y-73422952D01*
X127004462Y-73477356D01*
X126938167Y-73499421D01*
X126933741Y-73499500D01*
X126921155Y-73499500D01*
X126766510Y-73530261D01*
X126766498Y-73530264D01*
X126620828Y-73590602D01*
X126620814Y-73590610D01*
X126586657Y-73613432D01*
X126519979Y-73634308D01*
X126452599Y-73615822D01*
X126430088Y-73598009D01*
X126410292Y-73578213D01*
X126410288Y-73578210D01*
X126279185Y-73490609D01*
X126279172Y-73490602D01*
X126133501Y-73430264D01*
X126133489Y-73430261D01*
X125978845Y-73399500D01*
X125978842Y-73399500D01*
X125821158Y-73399500D01*
X125821155Y-73399500D01*
X125666510Y-73430261D01*
X125666498Y-73430264D01*
X125520827Y-73490602D01*
X125520814Y-73490609D01*
X125389711Y-73578210D01*
X125389707Y-73578213D01*
X125278213Y-73689707D01*
X125278210Y-73689711D01*
X125190609Y-73820814D01*
X125190602Y-73820827D01*
X125130264Y-73966498D01*
X125130261Y-73966510D01*
X125099500Y-74121153D01*
X99378500Y-74121153D01*
X99378500Y-73924500D01*
X99398185Y-73857461D01*
X99450989Y-73811706D01*
X99502500Y-73800500D01*
X99578844Y-73800500D01*
X99578845Y-73800499D01*
X99733497Y-73769737D01*
X99879179Y-73709394D01*
X100010289Y-73621789D01*
X100121789Y-73510289D01*
X100209394Y-73379179D01*
X100269737Y-73233497D01*
X100300500Y-73078842D01*
X100300500Y-72921158D01*
X100300500Y-72921155D01*
X100300499Y-72921153D01*
X100294987Y-72893441D01*
X100269737Y-72766503D01*
X100265245Y-72755659D01*
X100209397Y-72620827D01*
X100209390Y-72620814D01*
X100121789Y-72489711D01*
X100121786Y-72489707D01*
X100010292Y-72378213D01*
X100010288Y-72378210D01*
X99879185Y-72290609D01*
X99879172Y-72290602D01*
X99733501Y-72230264D01*
X99733489Y-72230261D01*
X99578845Y-72199500D01*
X99578842Y-72199500D01*
X99502500Y-72199500D01*
X99435461Y-72179815D01*
X99389706Y-72127011D01*
X99378500Y-72075500D01*
X99378500Y-70691180D01*
X99398185Y-70624141D01*
X99450989Y-70578386D01*
X99520147Y-70568442D01*
X99583703Y-70597467D01*
X99605603Y-70622290D01*
X99684024Y-70739657D01*
X99830342Y-70885975D01*
X99830345Y-70885977D01*
X100002402Y-71000941D01*
X100193580Y-71080130D01*
X100396530Y-71120499D01*
X100396534Y-71120500D01*
X100396535Y-71120500D01*
X101003466Y-71120500D01*
X101003467Y-71120499D01*
X101206420Y-71080130D01*
X101397598Y-71000941D01*
X101569655Y-70885977D01*
X101715977Y-70739655D01*
X101830941Y-70567598D01*
X101910130Y-70376420D01*
X101950500Y-70173465D01*
X101950500Y-69966535D01*
X101945074Y-69939256D01*
X101945074Y-69939253D01*
X101941474Y-69921153D01*
X102699500Y-69921153D01*
X102699500Y-70078846D01*
X102730261Y-70233489D01*
X102730264Y-70233501D01*
X102790602Y-70379172D01*
X102790609Y-70379185D01*
X102878210Y-70510288D01*
X102878213Y-70510292D01*
X102989707Y-70621786D01*
X102989711Y-70621789D01*
X103120814Y-70709390D01*
X103120827Y-70709397D01*
X103266498Y-70769735D01*
X103266503Y-70769737D01*
X103421153Y-70800499D01*
X103421156Y-70800500D01*
X103421158Y-70800500D01*
X103578844Y-70800500D01*
X103578845Y-70800499D01*
X103733497Y-70769737D01*
X103879179Y-70709394D01*
X104010289Y-70621789D01*
X104121789Y-70510289D01*
X104181348Y-70421153D01*
X107199500Y-70421153D01*
X107199500Y-70578846D01*
X107230261Y-70733489D01*
X107230264Y-70733501D01*
X107290602Y-70879172D01*
X107290609Y-70879185D01*
X107378210Y-71010288D01*
X107378213Y-71010292D01*
X107489707Y-71121786D01*
X107489711Y-71121789D01*
X107620814Y-71209390D01*
X107620827Y-71209397D01*
X107748744Y-71262381D01*
X107766503Y-71269737D01*
X107870478Y-71290419D01*
X107921153Y-71300499D01*
X107921156Y-71300500D01*
X107921158Y-71300500D01*
X108078844Y-71300500D01*
X108078845Y-71300499D01*
X108233497Y-71269737D01*
X108373286Y-71211835D01*
X108379172Y-71209397D01*
X108379172Y-71209396D01*
X108379179Y-71209394D01*
X108510289Y-71121789D01*
X108621789Y-71010289D01*
X108709394Y-70879179D01*
X108769737Y-70733497D01*
X108800500Y-70578842D01*
X108800500Y-70421158D01*
X108800500Y-70421155D01*
X108800499Y-70421153D01*
X119999500Y-70421153D01*
X119999500Y-70578846D01*
X120030261Y-70733489D01*
X120030264Y-70733501D01*
X120090602Y-70879172D01*
X120090609Y-70879185D01*
X120178210Y-71010288D01*
X120178213Y-71010292D01*
X120289707Y-71121786D01*
X120289711Y-71121789D01*
X120420814Y-71209390D01*
X120420827Y-71209397D01*
X120548744Y-71262381D01*
X120566503Y-71269737D01*
X120670478Y-71290419D01*
X120721153Y-71300499D01*
X120721156Y-71300500D01*
X120721158Y-71300500D01*
X120878844Y-71300500D01*
X120878845Y-71300499D01*
X121033497Y-71269737D01*
X121173286Y-71211835D01*
X121179172Y-71209397D01*
X121179172Y-71209396D01*
X121179179Y-71209394D01*
X121310289Y-71121789D01*
X121421789Y-71010289D01*
X121509394Y-70879179D01*
X121569737Y-70733497D01*
X121600500Y-70578842D01*
X121600500Y-70421158D01*
X121600500Y-70421155D01*
X121600499Y-70421153D01*
X121589849Y-70367611D01*
X121569737Y-70266503D01*
X121556062Y-70233489D01*
X121509397Y-70120827D01*
X121509390Y-70120814D01*
X121421789Y-69989711D01*
X121421786Y-69989707D01*
X121310292Y-69878213D01*
X121310288Y-69878210D01*
X121220429Y-69818168D01*
X121179185Y-69790609D01*
X121179172Y-69790602D01*
X121033501Y-69730264D01*
X121033489Y-69730261D01*
X120987701Y-69721153D01*
X126149500Y-69721153D01*
X126149500Y-69878846D01*
X126180261Y-70033489D01*
X126180264Y-70033501D01*
X126240602Y-70179172D01*
X126240609Y-70179185D01*
X126328210Y-70310288D01*
X126328213Y-70310292D01*
X126439707Y-70421786D01*
X126439711Y-70421789D01*
X126570814Y-70509390D01*
X126570827Y-70509397D01*
X126716498Y-70569735D01*
X126716503Y-70569737D01*
X126855910Y-70597467D01*
X126871153Y-70600499D01*
X126871156Y-70600500D01*
X126871158Y-70600500D01*
X127028844Y-70600500D01*
X127028845Y-70600499D01*
X127183497Y-70569737D01*
X127308528Y-70517948D01*
X127329172Y-70509397D01*
X127329172Y-70509396D01*
X127329179Y-70509394D01*
X127460289Y-70421789D01*
X127571789Y-70310289D01*
X127659394Y-70179179D01*
X127719737Y-70033497D01*
X127750500Y-69878842D01*
X127750500Y-69721158D01*
X127750500Y-69721155D01*
X127750499Y-69721153D01*
X127730543Y-69620827D01*
X127719737Y-69566503D01*
X127692844Y-69501576D01*
X127659397Y-69420827D01*
X127659390Y-69420814D01*
X127571789Y-69289711D01*
X127571786Y-69289707D01*
X127460292Y-69178213D01*
X127460288Y-69178210D01*
X127329185Y-69090609D01*
X127329172Y-69090602D01*
X127183501Y-69030264D01*
X127183489Y-69030261D01*
X127028845Y-68999500D01*
X127028842Y-68999500D01*
X126871158Y-68999500D01*
X126871155Y-68999500D01*
X126716510Y-69030261D01*
X126716498Y-69030264D01*
X126570827Y-69090602D01*
X126570814Y-69090609D01*
X126439711Y-69178210D01*
X126439707Y-69178213D01*
X126328213Y-69289707D01*
X126328210Y-69289711D01*
X126240609Y-69420814D01*
X126240602Y-69420827D01*
X126180264Y-69566498D01*
X126180261Y-69566510D01*
X126149500Y-69721153D01*
X120987701Y-69721153D01*
X120878845Y-69699500D01*
X120878842Y-69699500D01*
X120721158Y-69699500D01*
X120721155Y-69699500D01*
X120566510Y-69730261D01*
X120566498Y-69730264D01*
X120420827Y-69790602D01*
X120420814Y-69790609D01*
X120289711Y-69878210D01*
X120289707Y-69878213D01*
X120178213Y-69989707D01*
X120178210Y-69989711D01*
X120090609Y-70120814D01*
X120090602Y-70120827D01*
X120030264Y-70266498D01*
X120030261Y-70266510D01*
X119999500Y-70421153D01*
X108800499Y-70421153D01*
X108789849Y-70367611D01*
X108769737Y-70266503D01*
X108756062Y-70233489D01*
X108709397Y-70120827D01*
X108709390Y-70120814D01*
X108621789Y-69989711D01*
X108621786Y-69989707D01*
X108510292Y-69878213D01*
X108510288Y-69878210D01*
X108379185Y-69790609D01*
X108379172Y-69790602D01*
X108233501Y-69730264D01*
X108233489Y-69730261D01*
X108078845Y-69699500D01*
X108078842Y-69699500D01*
X107921158Y-69699500D01*
X107921155Y-69699500D01*
X107766510Y-69730261D01*
X107766498Y-69730264D01*
X107620827Y-69790602D01*
X107620814Y-69790609D01*
X107489711Y-69878210D01*
X107489707Y-69878213D01*
X107378213Y-69989707D01*
X107378210Y-69989711D01*
X107290609Y-70120814D01*
X107290602Y-70120827D01*
X107230264Y-70266498D01*
X107230261Y-70266510D01*
X107199500Y-70421153D01*
X104181348Y-70421153D01*
X104209394Y-70379179D01*
X104269737Y-70233497D01*
X104300500Y-70078842D01*
X104300500Y-69921158D01*
X104300500Y-69921155D01*
X104300499Y-69921153D01*
X104296204Y-69899563D01*
X104269737Y-69766503D01*
X104269735Y-69766498D01*
X104209397Y-69620827D01*
X104209390Y-69620814D01*
X104121789Y-69489711D01*
X104121786Y-69489707D01*
X104010292Y-69378213D01*
X104010288Y-69378210D01*
X103879185Y-69290609D01*
X103879172Y-69290602D01*
X103733501Y-69230264D01*
X103733489Y-69230261D01*
X103578845Y-69199500D01*
X103578842Y-69199500D01*
X103421158Y-69199500D01*
X103421155Y-69199500D01*
X103266510Y-69230261D01*
X103266498Y-69230264D01*
X103120827Y-69290602D01*
X103120814Y-69290609D01*
X102989711Y-69378210D01*
X102989707Y-69378213D01*
X102878213Y-69489707D01*
X102878210Y-69489711D01*
X102790609Y-69620814D01*
X102790602Y-69620827D01*
X102730264Y-69766498D01*
X102730261Y-69766510D01*
X102699500Y-69921153D01*
X101941474Y-69921153D01*
X101915505Y-69790602D01*
X101910130Y-69763580D01*
X101830941Y-69572402D01*
X101715977Y-69400345D01*
X101715975Y-69400342D01*
X101569657Y-69254024D01*
X101464994Y-69184091D01*
X101397598Y-69139059D01*
X101264411Y-69083891D01*
X101206420Y-69059870D01*
X101206412Y-69059868D01*
X101003469Y-69019500D01*
X101003465Y-69019500D01*
X100424500Y-69019500D01*
X100357461Y-68999815D01*
X100311706Y-68947011D01*
X100300500Y-68895500D01*
X100300500Y-68871155D01*
X100300499Y-68871153D01*
X100297069Y-68853910D01*
X100269737Y-68716503D01*
X100251233Y-68671829D01*
X100209397Y-68570827D01*
X100209390Y-68570814D01*
X100121789Y-68439711D01*
X100121786Y-68439707D01*
X100010292Y-68328213D01*
X100010288Y-68328210D01*
X99879185Y-68240609D01*
X99879172Y-68240602D01*
X99733501Y-68180264D01*
X99733489Y-68180261D01*
X99578845Y-68149500D01*
X99578842Y-68149500D01*
X99502500Y-68149500D01*
X99435461Y-68129815D01*
X99389706Y-68077011D01*
X99378500Y-68025500D01*
X99378500Y-67322223D01*
X99398185Y-67255184D01*
X99450989Y-67209429D01*
X99478309Y-67200606D01*
X99478842Y-67200500D01*
X99633497Y-67169737D01*
X99779179Y-67109394D01*
X99910289Y-67021789D01*
X100021789Y-66910289D01*
X100109394Y-66779179D01*
X100169737Y-66633497D01*
X100200500Y-66478842D01*
X100200500Y-66392600D01*
X100220185Y-66325561D01*
X100225272Y-66321153D01*
X111099500Y-66321153D01*
X111099500Y-66478846D01*
X111130261Y-66633489D01*
X111130264Y-66633501D01*
X111190602Y-66779172D01*
X111190609Y-66779185D01*
X111278210Y-66910288D01*
X111278213Y-66910292D01*
X111389707Y-67021786D01*
X111389711Y-67021789D01*
X111520814Y-67109390D01*
X111520827Y-67109397D01*
X111666498Y-67169735D01*
X111666503Y-67169737D01*
X111821153Y-67200499D01*
X111821156Y-67200500D01*
X111821158Y-67200500D01*
X111978844Y-67200500D01*
X111978845Y-67200499D01*
X112133497Y-67169737D01*
X112279179Y-67109394D01*
X112410289Y-67021789D01*
X112521789Y-66910289D01*
X112609394Y-66779179D01*
X112669737Y-66633497D01*
X112700500Y-66478842D01*
X112700500Y-66421153D01*
X114299500Y-66421153D01*
X114299500Y-66578846D01*
X114330261Y-66733489D01*
X114330264Y-66733501D01*
X114390602Y-66879172D01*
X114390609Y-66879185D01*
X114478210Y-67010288D01*
X114478213Y-67010292D01*
X114589707Y-67121786D01*
X114589711Y-67121789D01*
X114720814Y-67209390D01*
X114720827Y-67209397D01*
X114866498Y-67269735D01*
X114866503Y-67269737D01*
X115021153Y-67300499D01*
X115021156Y-67300500D01*
X115021158Y-67300500D01*
X115178844Y-67300500D01*
X115178845Y-67300499D01*
X115333497Y-67269737D01*
X115479179Y-67209394D01*
X115610289Y-67121789D01*
X115721789Y-67010289D01*
X115809394Y-66879179D01*
X115869737Y-66733497D01*
X115871833Y-66722956D01*
X115904217Y-66661046D01*
X115964931Y-66626470D01*
X115993451Y-66623146D01*
X116056198Y-66623146D01*
X116056199Y-66623145D01*
X116210851Y-66592383D01*
X116356533Y-66532040D01*
X116372827Y-66521153D01*
X118099500Y-66521153D01*
X118099500Y-66678846D01*
X118130261Y-66833489D01*
X118130264Y-66833501D01*
X118190602Y-66979172D01*
X118190609Y-66979185D01*
X118278210Y-67110288D01*
X118278213Y-67110292D01*
X118389707Y-67221786D01*
X118389711Y-67221789D01*
X118520814Y-67309390D01*
X118520827Y-67309397D01*
X118666498Y-67369735D01*
X118666503Y-67369737D01*
X118821153Y-67400499D01*
X118821156Y-67400500D01*
X118821158Y-67400500D01*
X118978844Y-67400500D01*
X118978845Y-67400499D01*
X119133497Y-67369737D01*
X119202505Y-67341153D01*
X126174500Y-67341153D01*
X126174500Y-67498846D01*
X126205261Y-67653489D01*
X126205264Y-67653501D01*
X126265602Y-67799172D01*
X126265609Y-67799185D01*
X126353210Y-67930288D01*
X126353213Y-67930292D01*
X126464707Y-68041786D01*
X126464711Y-68041789D01*
X126595814Y-68129390D01*
X126595827Y-68129397D01*
X126718633Y-68180264D01*
X126741503Y-68189737D01*
X126896153Y-68220499D01*
X126896156Y-68220500D01*
X126896158Y-68220500D01*
X127053844Y-68220500D01*
X127053845Y-68220499D01*
X127208497Y-68189737D01*
X127289251Y-68156287D01*
X127327548Y-68140425D01*
X127397017Y-68132956D01*
X127422452Y-68140425D01*
X127518633Y-68180264D01*
X127541503Y-68189737D01*
X127696153Y-68220499D01*
X127696156Y-68220500D01*
X127696158Y-68220500D01*
X127853844Y-68220500D01*
X127853845Y-68220499D01*
X128008497Y-68189737D01*
X128154179Y-68129394D01*
X128285289Y-68041789D01*
X128396789Y-67930289D01*
X128484394Y-67799179D01*
X128544737Y-67653497D01*
X128575500Y-67498842D01*
X128575500Y-67341158D01*
X128575500Y-67341155D01*
X128575499Y-67341153D01*
X128569181Y-67309390D01*
X128544737Y-67186503D01*
X128513170Y-67110292D01*
X128484397Y-67040827D01*
X128484390Y-67040814D01*
X128396789Y-66909711D01*
X128396786Y-66909707D01*
X128285292Y-66798213D01*
X128285288Y-66798210D01*
X128154185Y-66710609D01*
X128154172Y-66710602D01*
X128008501Y-66650264D01*
X128008489Y-66650261D01*
X127853845Y-66619500D01*
X127853842Y-66619500D01*
X127696158Y-66619500D01*
X127696155Y-66619500D01*
X127541510Y-66650261D01*
X127541498Y-66650264D01*
X127422452Y-66699574D01*
X127352982Y-66707043D01*
X127327548Y-66699574D01*
X127208501Y-66650264D01*
X127208489Y-66650261D01*
X127053845Y-66619500D01*
X127053842Y-66619500D01*
X126896158Y-66619500D01*
X126896155Y-66619500D01*
X126741510Y-66650261D01*
X126741498Y-66650264D01*
X126595827Y-66710602D01*
X126595814Y-66710609D01*
X126464711Y-66798210D01*
X126464707Y-66798213D01*
X126353213Y-66909707D01*
X126353210Y-66909711D01*
X126265609Y-67040814D01*
X126265602Y-67040827D01*
X126205264Y-67186498D01*
X126205261Y-67186510D01*
X126174500Y-67341153D01*
X119202505Y-67341153D01*
X119279179Y-67309394D01*
X119292491Y-67300499D01*
X119395062Y-67231964D01*
X119395062Y-67231963D01*
X119410289Y-67221789D01*
X119521789Y-67110289D01*
X119609394Y-66979179D01*
X119669737Y-66833497D01*
X119700500Y-66678842D01*
X119700500Y-66521158D01*
X119700500Y-66521155D01*
X119700499Y-66521153D01*
X119698338Y-66510288D01*
X119669737Y-66366503D01*
X119655833Y-66332935D01*
X119609397Y-66220827D01*
X119609390Y-66220814D01*
X119521789Y-66089711D01*
X119521786Y-66089707D01*
X119410292Y-65978213D01*
X119410288Y-65978210D01*
X119324897Y-65921153D01*
X120799500Y-65921153D01*
X120799500Y-66078846D01*
X120830261Y-66233489D01*
X120830264Y-66233501D01*
X120890602Y-66379172D01*
X120890609Y-66379185D01*
X120978210Y-66510288D01*
X120978213Y-66510292D01*
X121089707Y-66621786D01*
X121089711Y-66621789D01*
X121220814Y-66709390D01*
X121220827Y-66709397D01*
X121366498Y-66769735D01*
X121366503Y-66769737D01*
X121509661Y-66798213D01*
X121521153Y-66800499D01*
X121521156Y-66800500D01*
X121521158Y-66800500D01*
X121678844Y-66800500D01*
X121678845Y-66800499D01*
X121833497Y-66769737D01*
X121979179Y-66709394D01*
X122110289Y-66621789D01*
X122221789Y-66510289D01*
X122309394Y-66379179D01*
X122369737Y-66233497D01*
X122400500Y-66078842D01*
X122400500Y-65921158D01*
X122400500Y-65921155D01*
X122400499Y-65921153D01*
X122379706Y-65816621D01*
X122369737Y-65766503D01*
X122359756Y-65742408D01*
X122352288Y-65672941D01*
X122383563Y-65610462D01*
X122405422Y-65591858D01*
X122510289Y-65521789D01*
X122621789Y-65410289D01*
X122709394Y-65279179D01*
X122769737Y-65133497D01*
X122800500Y-64978842D01*
X122800500Y-64821158D01*
X122800500Y-64821155D01*
X122800499Y-64821153D01*
X122781677Y-64726530D01*
X122769737Y-64666503D01*
X122738080Y-64590075D01*
X122730611Y-64520606D01*
X122761886Y-64458127D01*
X122783749Y-64439521D01*
X122810289Y-64421789D01*
X122921789Y-64310289D01*
X123009394Y-64179179D01*
X123019867Y-64153896D01*
X123050954Y-64078844D01*
X123069737Y-64033497D01*
X123100500Y-63878842D01*
X123100500Y-63721158D01*
X123100500Y-63721155D01*
X123100499Y-63721153D01*
X123090689Y-63671835D01*
X123069737Y-63566503D01*
X123037929Y-63489711D01*
X123009397Y-63420827D01*
X123009390Y-63420814D01*
X122921789Y-63289711D01*
X122921786Y-63289707D01*
X122810292Y-63178213D01*
X122810288Y-63178210D01*
X122679185Y-63090609D01*
X122679172Y-63090602D01*
X122533501Y-63030264D01*
X122533489Y-63030261D01*
X122378845Y-62999500D01*
X122378842Y-62999500D01*
X122221158Y-62999500D01*
X122221155Y-62999500D01*
X122066510Y-63030261D01*
X122066498Y-63030264D01*
X121920827Y-63090602D01*
X121920814Y-63090609D01*
X121789711Y-63178210D01*
X121789707Y-63178213D01*
X121678213Y-63289707D01*
X121678210Y-63289711D01*
X121590609Y-63420814D01*
X121590602Y-63420827D01*
X121530264Y-63566498D01*
X121530261Y-63566510D01*
X121499500Y-63721153D01*
X121499500Y-63878846D01*
X121530261Y-64033489D01*
X121530264Y-64033501D01*
X121561919Y-64109924D01*
X121569388Y-64179394D01*
X121538112Y-64241873D01*
X121516252Y-64260476D01*
X121489709Y-64278212D01*
X121489704Y-64278217D01*
X121378213Y-64389707D01*
X121378210Y-64389711D01*
X121290609Y-64520814D01*
X121290602Y-64520827D01*
X121230264Y-64666498D01*
X121230261Y-64666510D01*
X121199500Y-64821153D01*
X121199500Y-64978846D01*
X121230261Y-65133489D01*
X121230263Y-65133496D01*
X121240243Y-65157591D01*
X121247711Y-65227060D01*
X121216435Y-65289539D01*
X121194572Y-65308144D01*
X121089711Y-65378210D01*
X121089707Y-65378213D01*
X120978213Y-65489707D01*
X120978210Y-65489711D01*
X120890609Y-65620814D01*
X120890602Y-65620827D01*
X120830264Y-65766498D01*
X120830261Y-65766510D01*
X120799500Y-65921153D01*
X119324897Y-65921153D01*
X119279185Y-65890609D01*
X119279172Y-65890602D01*
X119133501Y-65830264D01*
X119133489Y-65830261D01*
X118978845Y-65799500D01*
X118978842Y-65799500D01*
X118821158Y-65799500D01*
X118821155Y-65799500D01*
X118666510Y-65830261D01*
X118666498Y-65830264D01*
X118520827Y-65890602D01*
X118520814Y-65890609D01*
X118389711Y-65978210D01*
X118389707Y-65978213D01*
X118278213Y-66089707D01*
X118278210Y-66089711D01*
X118190609Y-66220814D01*
X118190602Y-66220827D01*
X118130264Y-66366498D01*
X118130261Y-66366510D01*
X118099500Y-66521153D01*
X116372827Y-66521153D01*
X116487643Y-66444435D01*
X116487646Y-66444432D01*
X116504694Y-66427385D01*
X116599140Y-66332938D01*
X116599143Y-66332935D01*
X116686748Y-66201825D01*
X116747091Y-66056143D01*
X116777854Y-65901488D01*
X116777854Y-65743804D01*
X116777854Y-65743801D01*
X116777853Y-65743799D01*
X116775161Y-65730264D01*
X116747091Y-65589149D01*
X116724355Y-65534262D01*
X116716887Y-65464794D01*
X116724353Y-65439364D01*
X116769862Y-65329497D01*
X116800625Y-65174842D01*
X116800625Y-65017158D01*
X116800625Y-65017155D01*
X116800624Y-65017153D01*
X116793722Y-64982454D01*
X116769862Y-64862503D01*
X116760334Y-64839500D01*
X116709522Y-64716827D01*
X116709515Y-64716814D01*
X116621914Y-64585711D01*
X116621911Y-64585707D01*
X116510417Y-64474213D01*
X116510413Y-64474210D01*
X116379310Y-64386609D01*
X116379297Y-64386602D01*
X116233626Y-64326264D01*
X116233614Y-64326261D01*
X116078970Y-64295500D01*
X116078967Y-64295500D01*
X115921283Y-64295500D01*
X115921280Y-64295500D01*
X115766635Y-64326261D01*
X115766623Y-64326264D01*
X115620952Y-64386602D01*
X115620939Y-64386609D01*
X115489836Y-64474210D01*
X115489832Y-64474213D01*
X115378338Y-64585707D01*
X115378335Y-64585711D01*
X115290734Y-64716814D01*
X115290727Y-64716827D01*
X115230389Y-64862498D01*
X115230386Y-64862510D01*
X115199625Y-65017153D01*
X115199625Y-65174846D01*
X115230386Y-65329489D01*
X115230389Y-65329501D01*
X115253122Y-65384383D01*
X115256216Y-65413167D01*
X115262184Y-65441491D01*
X115260166Y-65449905D01*
X115260591Y-65453852D01*
X115254456Y-65475929D01*
X115253803Y-65477644D01*
X115207617Y-65589149D01*
X115203493Y-65609878D01*
X115199797Y-65619594D01*
X115184703Y-65639483D01*
X115173132Y-65661604D01*
X115163950Y-65666832D01*
X115157561Y-65675252D01*
X115134109Y-65683824D01*
X115112416Y-65696177D01*
X115094651Y-65698247D01*
X115091938Y-65699239D01*
X115089956Y-65698794D01*
X115083902Y-65699500D01*
X115021155Y-65699500D01*
X114866510Y-65730261D01*
X114866498Y-65730264D01*
X114720827Y-65790602D01*
X114720814Y-65790609D01*
X114589711Y-65878210D01*
X114589707Y-65878213D01*
X114478213Y-65989707D01*
X114478210Y-65989711D01*
X114390609Y-66120814D01*
X114390602Y-66120827D01*
X114330264Y-66266498D01*
X114330261Y-66266510D01*
X114299500Y-66421153D01*
X112700500Y-66421153D01*
X112700500Y-66321158D01*
X112700500Y-66321155D01*
X112700499Y-66321153D01*
X112695682Y-66296936D01*
X112669737Y-66166503D01*
X112637929Y-66089711D01*
X112609397Y-66020827D01*
X112609390Y-66020814D01*
X112521789Y-65889711D01*
X112521786Y-65889707D01*
X112410292Y-65778213D01*
X112410288Y-65778210D01*
X112279185Y-65690609D01*
X112279172Y-65690602D01*
X112133501Y-65630264D01*
X112133489Y-65630261D01*
X111978845Y-65599500D01*
X111978842Y-65599500D01*
X111821158Y-65599500D01*
X111821155Y-65599500D01*
X111666510Y-65630261D01*
X111666498Y-65630264D01*
X111520827Y-65690602D01*
X111520814Y-65690609D01*
X111389711Y-65778210D01*
X111389707Y-65778213D01*
X111278213Y-65889707D01*
X111278210Y-65889711D01*
X111190609Y-66020814D01*
X111190602Y-66020827D01*
X111130264Y-66166498D01*
X111130261Y-66166510D01*
X111099500Y-66321153D01*
X100225272Y-66321153D01*
X100272989Y-66279806D01*
X100342147Y-66269862D01*
X100348667Y-66270978D01*
X100396535Y-66280500D01*
X101003466Y-66280500D01*
X101003467Y-66280499D01*
X101206420Y-66240130D01*
X101289650Y-66205655D01*
X101302083Y-66200505D01*
X101397596Y-66160942D01*
X101397596Y-66160941D01*
X101397598Y-66160941D01*
X101569655Y-66045977D01*
X101715977Y-65899655D01*
X101830941Y-65727598D01*
X101910130Y-65536420D01*
X101950500Y-65333465D01*
X101950500Y-65126535D01*
X101910130Y-64923580D01*
X101830941Y-64732402D01*
X101715977Y-64560345D01*
X101715976Y-64560344D01*
X101715975Y-64560342D01*
X101569657Y-64414024D01*
X101414405Y-64310289D01*
X101397598Y-64299059D01*
X101347281Y-64278217D01*
X101206420Y-64219870D01*
X101206412Y-64219868D01*
X101003469Y-64179500D01*
X101003465Y-64179500D01*
X100396535Y-64179500D01*
X100396530Y-64179500D01*
X100193587Y-64219868D01*
X100193579Y-64219870D01*
X100002403Y-64299058D01*
X99830342Y-64414024D01*
X99684022Y-64560344D01*
X99605602Y-64677710D01*
X99580873Y-64698376D01*
X99557119Y-64720142D01*
X99554235Y-64720638D01*
X99551990Y-64722515D01*
X99520022Y-64726530D01*
X99488263Y-64731999D01*
X99485567Y-64730857D01*
X99482665Y-64731222D01*
X99453594Y-64717313D01*
X99423927Y-64704747D01*
X99422277Y-64702331D01*
X99419638Y-64701068D01*
X99402700Y-64673649D01*
X99384537Y-64647039D01*
X99383944Y-64643286D01*
X99382918Y-64641625D01*
X99378548Y-64612257D01*
X99378500Y-64610526D01*
X99378500Y-64427943D01*
X99376624Y-64420943D01*
X99372850Y-64406857D01*
X99372460Y-64392795D01*
X99371500Y-64385493D01*
X99371500Y-63921153D01*
X109099500Y-63921153D01*
X109099500Y-64078846D01*
X109130261Y-64233489D01*
X109130264Y-64233501D01*
X109190602Y-64379172D01*
X109190609Y-64379185D01*
X109278210Y-64510288D01*
X109278213Y-64510292D01*
X109389707Y-64621786D01*
X109389711Y-64621789D01*
X109520814Y-64709390D01*
X109520827Y-64709397D01*
X109666498Y-64769735D01*
X109666503Y-64769737D01*
X109821153Y-64800499D01*
X109821156Y-64800500D01*
X109821158Y-64800500D01*
X109978844Y-64800500D01*
X109978845Y-64800499D01*
X110133497Y-64769737D01*
X110261234Y-64716827D01*
X110279172Y-64709397D01*
X110279172Y-64709396D01*
X110279179Y-64709394D01*
X110410289Y-64621789D01*
X110521789Y-64510289D01*
X110609394Y-64379179D01*
X110669737Y-64233497D01*
X110700500Y-64078842D01*
X110700500Y-63921158D01*
X110700500Y-63921155D01*
X110700499Y-63921153D01*
X110695473Y-63895884D01*
X110669737Y-63766503D01*
X110664642Y-63754202D01*
X110609397Y-63620827D01*
X110609390Y-63620814D01*
X110521789Y-63489711D01*
X110521786Y-63489707D01*
X110410292Y-63378213D01*
X110410288Y-63378210D01*
X110279185Y-63290609D01*
X110279172Y-63290602D01*
X110133501Y-63230264D01*
X110133489Y-63230261D01*
X109978845Y-63199500D01*
X109978842Y-63199500D01*
X109821158Y-63199500D01*
X109821155Y-63199500D01*
X109666510Y-63230261D01*
X109666498Y-63230264D01*
X109520827Y-63290602D01*
X109520814Y-63290609D01*
X109389711Y-63378210D01*
X109389707Y-63378213D01*
X109278213Y-63489707D01*
X109278210Y-63489711D01*
X109190609Y-63620814D01*
X109190602Y-63620827D01*
X109130264Y-63766498D01*
X109130261Y-63766510D01*
X109099500Y-63921153D01*
X99371500Y-63921153D01*
X99371500Y-62421153D01*
X99699500Y-62421153D01*
X99699500Y-62578846D01*
X99730261Y-62733489D01*
X99730264Y-62733501D01*
X99790602Y-62879172D01*
X99790609Y-62879185D01*
X99878210Y-63010288D01*
X99878213Y-63010292D01*
X99989707Y-63121786D01*
X99989711Y-63121789D01*
X100120814Y-63209390D01*
X100120827Y-63209397D01*
X100266498Y-63269735D01*
X100266503Y-63269737D01*
X100421153Y-63300499D01*
X100421156Y-63300500D01*
X100421158Y-63300500D01*
X100578844Y-63300500D01*
X100578845Y-63300499D01*
X100733497Y-63269737D01*
X100879179Y-63209394D01*
X101010289Y-63121789D01*
X101121789Y-63010289D01*
X101209394Y-62879179D01*
X101269737Y-62733497D01*
X101300500Y-62578842D01*
X101300500Y-62421158D01*
X101300500Y-62421155D01*
X101287426Y-62355431D01*
X101293653Y-62285840D01*
X101336515Y-62230662D01*
X101361589Y-62216679D01*
X101379179Y-62209394D01*
X101510289Y-62121789D01*
X101621789Y-62010289D01*
X101709394Y-61879179D01*
X101769737Y-61733497D01*
X101800500Y-61578842D01*
X101800500Y-61421158D01*
X101800500Y-61421155D01*
X101800499Y-61421153D01*
X101769737Y-61266503D01*
X101769735Y-61266498D01*
X101709397Y-61120827D01*
X101709390Y-61120814D01*
X101621789Y-60989711D01*
X101621786Y-60989707D01*
X101510292Y-60878213D01*
X101510288Y-60878210D01*
X101379185Y-60790609D01*
X101379172Y-60790602D01*
X101233501Y-60730264D01*
X101233489Y-60730261D01*
X101078845Y-60699500D01*
X101078842Y-60699500D01*
X100921158Y-60699500D01*
X100921155Y-60699500D01*
X100766510Y-60730261D01*
X100766498Y-60730264D01*
X100620827Y-60790602D01*
X100620814Y-60790609D01*
X100489711Y-60878210D01*
X100489707Y-60878213D01*
X100378213Y-60989707D01*
X100378210Y-60989711D01*
X100290609Y-61120814D01*
X100290602Y-61120827D01*
X100230264Y-61266498D01*
X100230261Y-61266510D01*
X100199500Y-61421153D01*
X100199500Y-61578846D01*
X100212573Y-61644568D01*
X100206346Y-61714159D01*
X100163483Y-61769337D01*
X100138411Y-61783319D01*
X100120826Y-61790603D01*
X100120814Y-61790609D01*
X99989711Y-61878210D01*
X99989707Y-61878213D01*
X99878213Y-61989707D01*
X99878210Y-61989711D01*
X99790609Y-62120814D01*
X99790602Y-62120827D01*
X99730264Y-62266498D01*
X99730261Y-62266510D01*
X99699500Y-62421153D01*
X99371500Y-62421153D01*
X99371500Y-61360059D01*
X99371501Y-61360046D01*
X99371501Y-61191946D01*
X99371501Y-61191943D01*
X99344761Y-61092150D01*
X99346424Y-61022305D01*
X99376854Y-60972379D01*
X99480520Y-60868716D01*
X99559577Y-60731784D01*
X99600501Y-60579057D01*
X99600501Y-60421153D01*
X103699500Y-60421153D01*
X103699500Y-60578846D01*
X103730261Y-60733489D01*
X103730264Y-60733501D01*
X103790602Y-60879172D01*
X103790609Y-60879185D01*
X103878210Y-61010288D01*
X103878213Y-61010292D01*
X103989707Y-61121786D01*
X103989711Y-61121789D01*
X104120814Y-61209390D01*
X104120827Y-61209397D01*
X104258683Y-61266498D01*
X104266503Y-61269737D01*
X104421153Y-61300499D01*
X104421156Y-61300500D01*
X104421158Y-61300500D01*
X104578844Y-61300500D01*
X104578845Y-61300499D01*
X104733497Y-61269737D01*
X104879179Y-61209394D01*
X105010289Y-61121789D01*
X105110925Y-61021153D01*
X111499500Y-61021153D01*
X111499500Y-61178846D01*
X111530261Y-61333489D01*
X111530264Y-61333501D01*
X111590602Y-61479172D01*
X111590609Y-61479185D01*
X111678210Y-61610288D01*
X111678213Y-61610292D01*
X111789707Y-61721786D01*
X111789711Y-61721789D01*
X111920814Y-61809390D01*
X111920827Y-61809397D01*
X112066498Y-61869735D01*
X112066503Y-61869737D01*
X112221153Y-61900499D01*
X112221156Y-61900500D01*
X112221158Y-61900500D01*
X112378844Y-61900500D01*
X112378845Y-61900499D01*
X112533497Y-61869737D01*
X112679179Y-61809394D01*
X112810289Y-61721789D01*
X112921789Y-61610289D01*
X113009394Y-61479179D01*
X113069737Y-61333497D01*
X113100500Y-61178842D01*
X113100500Y-61021158D01*
X113100500Y-61021155D01*
X113100499Y-61021153D01*
X113076690Y-60901459D01*
X113069737Y-60866503D01*
X113038298Y-60790602D01*
X113009397Y-60720827D01*
X113009390Y-60720814D01*
X112921789Y-60589711D01*
X112921786Y-60589707D01*
X112810292Y-60478213D01*
X112810288Y-60478210D01*
X112679185Y-60390609D01*
X112679172Y-60390602D01*
X112533501Y-60330264D01*
X112533489Y-60330261D01*
X112378845Y-60299500D01*
X112378842Y-60299500D01*
X112221158Y-60299500D01*
X112221155Y-60299500D01*
X112066510Y-60330261D01*
X112066498Y-60330264D01*
X111920827Y-60390602D01*
X111920814Y-60390609D01*
X111789711Y-60478210D01*
X111789707Y-60478213D01*
X111678213Y-60589707D01*
X111678210Y-60589711D01*
X111590609Y-60720814D01*
X111590602Y-60720827D01*
X111530264Y-60866498D01*
X111530261Y-60866510D01*
X111499500Y-61021153D01*
X105110925Y-61021153D01*
X105121789Y-61010289D01*
X105169729Y-60938543D01*
X105209390Y-60879185D01*
X105209390Y-60879184D01*
X105209394Y-60879179D01*
X105269737Y-60733497D01*
X105300500Y-60578842D01*
X105300500Y-60421158D01*
X105300500Y-60421155D01*
X105300499Y-60421153D01*
X105290679Y-60371786D01*
X105269737Y-60266503D01*
X105241343Y-60197953D01*
X105209397Y-60120827D01*
X105209390Y-60120814D01*
X105121789Y-59989711D01*
X105121786Y-59989707D01*
X105010292Y-59878213D01*
X105010288Y-59878210D01*
X104879185Y-59790609D01*
X104879172Y-59790602D01*
X104733501Y-59730264D01*
X104733489Y-59730261D01*
X104578845Y-59699500D01*
X104578842Y-59699500D01*
X104421158Y-59699500D01*
X104421155Y-59699500D01*
X104266510Y-59730261D01*
X104266498Y-59730264D01*
X104120827Y-59790602D01*
X104120814Y-59790609D01*
X103989711Y-59878210D01*
X103989707Y-59878213D01*
X103878213Y-59989707D01*
X103878210Y-59989711D01*
X103790609Y-60120814D01*
X103790602Y-60120827D01*
X103730264Y-60266498D01*
X103730261Y-60266510D01*
X103699500Y-60421153D01*
X99600501Y-60421153D01*
X99600501Y-60420942D01*
X99600501Y-60415137D01*
X99600500Y-60413400D01*
X99600501Y-60413396D01*
X99600501Y-60413347D01*
X99600500Y-60413329D01*
X99600500Y-57371153D01*
X101699500Y-57371153D01*
X101699500Y-57528846D01*
X101730261Y-57683489D01*
X101730264Y-57683501D01*
X101790602Y-57829172D01*
X101790609Y-57829185D01*
X101878210Y-57960288D01*
X101878213Y-57960292D01*
X101989707Y-58071786D01*
X101989711Y-58071789D01*
X102120814Y-58159390D01*
X102120827Y-58159397D01*
X102266498Y-58219735D01*
X102266503Y-58219737D01*
X102421153Y-58250499D01*
X102421156Y-58250500D01*
X102421158Y-58250500D01*
X102578844Y-58250500D01*
X102578845Y-58250499D01*
X102733497Y-58219737D01*
X102879179Y-58159394D01*
X103010289Y-58071789D01*
X103121789Y-57960289D01*
X103209394Y-57829179D01*
X103212719Y-57821153D01*
X103234895Y-57767613D01*
X103269737Y-57683497D01*
X103300500Y-57528842D01*
X103300500Y-57371158D01*
X103300500Y-57371155D01*
X103300499Y-57371153D01*
X104199500Y-57371153D01*
X104199500Y-57528846D01*
X104230261Y-57683489D01*
X104230264Y-57683501D01*
X104290602Y-57829172D01*
X104290609Y-57829185D01*
X104378210Y-57960288D01*
X104378213Y-57960292D01*
X104489707Y-58071786D01*
X104489711Y-58071789D01*
X104620814Y-58159390D01*
X104620827Y-58159397D01*
X104766498Y-58219735D01*
X104766503Y-58219737D01*
X104921153Y-58250499D01*
X104921156Y-58250500D01*
X104921158Y-58250500D01*
X105078844Y-58250500D01*
X105078845Y-58250499D01*
X105233497Y-58219737D01*
X105379179Y-58159394D01*
X105510289Y-58071789D01*
X105621789Y-57960289D01*
X105709394Y-57829179D01*
X105709395Y-57829176D01*
X105709397Y-57829173D01*
X105712719Y-57821153D01*
X108699500Y-57821153D01*
X108699500Y-57978846D01*
X108730261Y-58133489D01*
X108730264Y-58133501D01*
X108790602Y-58279172D01*
X108790609Y-58279185D01*
X108878210Y-58410288D01*
X108878213Y-58410292D01*
X108989707Y-58521786D01*
X108989711Y-58521789D01*
X109120814Y-58609390D01*
X109120827Y-58609397D01*
X109241844Y-58659523D01*
X109266503Y-58669737D01*
X109421153Y-58700499D01*
X109421156Y-58700500D01*
X109421158Y-58700500D01*
X109578844Y-58700500D01*
X109578845Y-58700499D01*
X109733497Y-58669737D01*
X109879179Y-58609394D01*
X110010289Y-58521789D01*
X110121789Y-58410289D01*
X110209394Y-58279179D01*
X110269737Y-58133497D01*
X110300500Y-57978842D01*
X110300500Y-57821158D01*
X110300500Y-57821155D01*
X110300499Y-57821153D01*
X110289748Y-57767103D01*
X110269737Y-57666503D01*
X110256640Y-57634883D01*
X110209396Y-57520825D01*
X110209390Y-57520814D01*
X110121789Y-57389711D01*
X110121786Y-57389707D01*
X110010292Y-57278213D01*
X110010288Y-57278210D01*
X109879183Y-57190608D01*
X109879172Y-57190602D01*
X109733501Y-57130264D01*
X109733489Y-57130261D01*
X109578845Y-57099500D01*
X109578842Y-57099500D01*
X109421158Y-57099500D01*
X109421155Y-57099500D01*
X109266510Y-57130261D01*
X109266498Y-57130264D01*
X109120827Y-57190602D01*
X109120814Y-57190609D01*
X108989711Y-57278210D01*
X108989707Y-57278213D01*
X108878213Y-57389707D01*
X108878210Y-57389711D01*
X108790609Y-57520814D01*
X108790604Y-57520825D01*
X108730264Y-57666498D01*
X108730261Y-57666510D01*
X108699500Y-57821153D01*
X105712719Y-57821153D01*
X105734895Y-57767614D01*
X105734895Y-57767613D01*
X105769737Y-57683497D01*
X105800500Y-57528842D01*
X105800500Y-57371158D01*
X105800500Y-57371155D01*
X105800499Y-57371153D01*
X105782012Y-57278213D01*
X105769737Y-57216503D01*
X105766791Y-57209390D01*
X105717816Y-57091153D01*
X112549500Y-57091153D01*
X112549500Y-57248846D01*
X112580261Y-57403489D01*
X112580264Y-57403501D01*
X112640602Y-57549172D01*
X112640609Y-57549185D01*
X112728210Y-57680288D01*
X112728213Y-57680292D01*
X112830240Y-57782319D01*
X112863725Y-57843642D01*
X112858741Y-57913334D01*
X112830240Y-57957681D01*
X112728213Y-58059707D01*
X112728210Y-58059711D01*
X112640609Y-58190814D01*
X112640602Y-58190827D01*
X112580264Y-58336498D01*
X112580261Y-58336510D01*
X112549500Y-58491153D01*
X112549500Y-58648846D01*
X112580261Y-58803489D01*
X112580264Y-58803501D01*
X112640602Y-58949172D01*
X112640609Y-58949185D01*
X112728210Y-59080288D01*
X112728213Y-59080292D01*
X112839707Y-59191786D01*
X112839711Y-59191789D01*
X112970814Y-59279390D01*
X112970827Y-59279397D01*
X113080082Y-59324651D01*
X113116503Y-59339737D01*
X113171831Y-59350742D01*
X113233740Y-59383126D01*
X113268315Y-59443841D01*
X113269256Y-59448166D01*
X113280261Y-59503492D01*
X113280264Y-59503501D01*
X113340602Y-59649172D01*
X113340609Y-59649185D01*
X113428210Y-59780288D01*
X113428213Y-59780292D01*
X113539707Y-59891786D01*
X113539711Y-59891789D01*
X113670814Y-59979390D01*
X113670827Y-59979397D01*
X113799475Y-60032684D01*
X113816503Y-60039737D01*
X113971153Y-60070499D01*
X113971156Y-60070500D01*
X113971158Y-60070500D01*
X114128844Y-60070500D01*
X114128845Y-60070499D01*
X114283497Y-60039737D01*
X114419264Y-59983501D01*
X114429172Y-59979397D01*
X114429172Y-59979396D01*
X114429179Y-59979394D01*
X114560289Y-59891789D01*
X114590249Y-59861829D01*
X114662319Y-59789760D01*
X114723642Y-59756275D01*
X114793334Y-59761259D01*
X114837681Y-59789760D01*
X114939707Y-59891786D01*
X114939711Y-59891789D01*
X115070814Y-59979390D01*
X115070827Y-59979397D01*
X115199475Y-60032684D01*
X115216503Y-60039737D01*
X115371153Y-60070499D01*
X115371156Y-60070500D01*
X115371158Y-60070500D01*
X115528844Y-60070500D01*
X115528845Y-60070499D01*
X115683497Y-60039737D01*
X115819264Y-59983501D01*
X115829172Y-59979397D01*
X115829172Y-59979396D01*
X115829179Y-59979394D01*
X115960289Y-59891789D01*
X116071789Y-59780289D01*
X116144711Y-59671153D01*
X125649500Y-59671153D01*
X125649500Y-59828846D01*
X125680261Y-59983489D01*
X125680264Y-59983501D01*
X125740602Y-60129172D01*
X125740609Y-60129185D01*
X125828210Y-60260288D01*
X125828213Y-60260292D01*
X125939707Y-60371786D01*
X125939715Y-60371792D01*
X126033025Y-60434140D01*
X126077831Y-60487752D01*
X126086538Y-60557077D01*
X126067237Y-60606132D01*
X125990612Y-60720809D01*
X125990602Y-60720827D01*
X125930264Y-60866498D01*
X125930261Y-60866510D01*
X125899500Y-61021153D01*
X125899500Y-61178846D01*
X125930261Y-61333489D01*
X125930264Y-61333501D01*
X125990602Y-61479172D01*
X125990609Y-61479185D01*
X126078210Y-61610288D01*
X126078213Y-61610292D01*
X126189707Y-61721786D01*
X126189711Y-61721789D01*
X126320814Y-61809390D01*
X126320827Y-61809397D01*
X126466498Y-61869735D01*
X126466503Y-61869737D01*
X126621153Y-61900499D01*
X126621156Y-61900500D01*
X126621158Y-61900500D01*
X126778844Y-61900500D01*
X126778845Y-61900499D01*
X126933497Y-61869737D01*
X127079179Y-61809394D01*
X127210289Y-61721789D01*
X127321789Y-61610289D01*
X127409394Y-61479179D01*
X127469737Y-61333497D01*
X127500500Y-61178842D01*
X127500500Y-61021158D01*
X127500500Y-61021155D01*
X127500499Y-61021153D01*
X127476690Y-60901459D01*
X127469737Y-60866503D01*
X127438298Y-60790602D01*
X127409397Y-60720827D01*
X127409390Y-60720814D01*
X127321789Y-60589711D01*
X127321786Y-60589707D01*
X127210289Y-60478210D01*
X127116973Y-60415859D01*
X127072168Y-60362247D01*
X127063461Y-60292922D01*
X127082761Y-60243867D01*
X127159394Y-60129179D01*
X127162854Y-60120827D01*
X127183700Y-60070499D01*
X127219737Y-59983497D01*
X127250500Y-59828842D01*
X127250500Y-59671158D01*
X127250500Y-59671155D01*
X127250499Y-59671153D01*
X127219738Y-59516510D01*
X127219737Y-59516503D01*
X127219735Y-59516498D01*
X127159397Y-59370827D01*
X127159390Y-59370814D01*
X127071789Y-59239711D01*
X127071786Y-59239707D01*
X126960292Y-59128213D01*
X126960288Y-59128210D01*
X126829185Y-59040609D01*
X126829172Y-59040602D01*
X126683501Y-58980264D01*
X126683489Y-58980261D01*
X126528845Y-58949500D01*
X126528842Y-58949500D01*
X126371158Y-58949500D01*
X126371155Y-58949500D01*
X126216510Y-58980261D01*
X126216498Y-58980264D01*
X126070827Y-59040602D01*
X126070814Y-59040609D01*
X125939711Y-59128210D01*
X125939707Y-59128213D01*
X125828213Y-59239707D01*
X125828210Y-59239711D01*
X125740609Y-59370814D01*
X125740602Y-59370827D01*
X125680264Y-59516498D01*
X125680261Y-59516510D01*
X125649500Y-59671153D01*
X116144711Y-59671153D01*
X116159394Y-59649179D01*
X116219737Y-59503497D01*
X116232323Y-59440218D01*
X116234924Y-59432548D01*
X116250534Y-59410328D01*
X116263125Y-59386258D01*
X116270326Y-59382156D01*
X116275090Y-59375377D01*
X116300239Y-59365122D01*
X116323841Y-59351683D01*
X116328118Y-59350752D01*
X116383497Y-59339737D01*
X116529179Y-59279394D01*
X116660289Y-59191789D01*
X116771789Y-59080289D01*
X116859394Y-58949179D01*
X116868363Y-58927527D01*
X116884551Y-58888444D01*
X116919737Y-58803497D01*
X116950500Y-58648842D01*
X116950500Y-58491158D01*
X116950500Y-58491155D01*
X116950499Y-58491153D01*
X116937429Y-58425445D01*
X116919737Y-58336503D01*
X116919735Y-58336498D01*
X116859397Y-58190827D01*
X116859390Y-58190814D01*
X116771789Y-58059711D01*
X116771786Y-58059707D01*
X116669760Y-57957681D01*
X116636275Y-57896358D01*
X116641259Y-57826666D01*
X116669760Y-57782319D01*
X116771786Y-57680292D01*
X116771789Y-57680289D01*
X116859394Y-57549179D01*
X116866077Y-57533046D01*
X116898163Y-57455582D01*
X116919737Y-57403497D01*
X116950500Y-57248842D01*
X116950500Y-57091158D01*
X116950500Y-57091155D01*
X116950499Y-57091153D01*
X116946453Y-57070814D01*
X116919737Y-56936503D01*
X116917648Y-56931459D01*
X116859397Y-56790827D01*
X116859390Y-56790814D01*
X116771789Y-56659711D01*
X116771786Y-56659707D01*
X116660292Y-56548213D01*
X116660288Y-56548210D01*
X116615327Y-56518168D01*
X116529185Y-56460609D01*
X116529172Y-56460602D01*
X116433932Y-56421153D01*
X126499500Y-56421153D01*
X126499500Y-56578846D01*
X126530261Y-56733489D01*
X126530264Y-56733501D01*
X126590602Y-56879172D01*
X126590609Y-56879185D01*
X126678210Y-57010288D01*
X126678213Y-57010292D01*
X126789707Y-57121786D01*
X126789711Y-57121789D01*
X126920814Y-57209390D01*
X126920827Y-57209397D01*
X127016062Y-57248844D01*
X127066503Y-57269737D01*
X127221153Y-57300499D01*
X127221156Y-57300500D01*
X127221158Y-57300500D01*
X127378844Y-57300500D01*
X127378845Y-57300499D01*
X127533497Y-57269737D01*
X127679179Y-57209394D01*
X127810289Y-57121789D01*
X127921789Y-57010289D01*
X128009394Y-56879179D01*
X128069737Y-56733497D01*
X128100500Y-56578842D01*
X128100500Y-56421158D01*
X128100500Y-56421155D01*
X128100499Y-56421153D01*
X128074775Y-56291833D01*
X128069737Y-56266503D01*
X128067152Y-56260263D01*
X128009397Y-56120827D01*
X128009390Y-56120814D01*
X127921789Y-55989711D01*
X127921786Y-55989707D01*
X127810292Y-55878213D01*
X127810288Y-55878210D01*
X127679185Y-55790609D01*
X127679172Y-55790602D01*
X127533501Y-55730264D01*
X127533489Y-55730261D01*
X127378845Y-55699500D01*
X127378842Y-55699500D01*
X127221158Y-55699500D01*
X127221155Y-55699500D01*
X127066510Y-55730261D01*
X127066498Y-55730264D01*
X126920827Y-55790602D01*
X126920814Y-55790609D01*
X126789711Y-55878210D01*
X126789707Y-55878213D01*
X126678213Y-55989707D01*
X126678210Y-55989711D01*
X126590609Y-56120814D01*
X126590602Y-56120827D01*
X126530264Y-56266498D01*
X126530261Y-56266510D01*
X126499500Y-56421153D01*
X116433932Y-56421153D01*
X116383501Y-56400264D01*
X116383492Y-56400261D01*
X116328166Y-56389256D01*
X116266256Y-56356870D01*
X116231682Y-56296154D01*
X116230750Y-56291874D01*
X116219737Y-56236503D01*
X116171823Y-56120827D01*
X116159397Y-56090827D01*
X116159390Y-56090814D01*
X116071789Y-55959711D01*
X116071786Y-55959707D01*
X115960292Y-55848213D01*
X115960288Y-55848210D01*
X115829185Y-55760609D01*
X115829172Y-55760602D01*
X115683501Y-55700264D01*
X115683489Y-55700261D01*
X115528845Y-55669500D01*
X115528842Y-55669500D01*
X115371158Y-55669500D01*
X115371155Y-55669500D01*
X115216510Y-55700261D01*
X115216498Y-55700264D01*
X115070827Y-55760602D01*
X115070814Y-55760609D01*
X114939711Y-55848210D01*
X114939707Y-55848213D01*
X114837681Y-55950240D01*
X114776358Y-55983725D01*
X114706666Y-55978741D01*
X114662319Y-55950240D01*
X114560292Y-55848213D01*
X114560288Y-55848210D01*
X114429185Y-55760609D01*
X114429172Y-55760602D01*
X114283501Y-55700264D01*
X114283489Y-55700261D01*
X114128845Y-55669500D01*
X114128842Y-55669500D01*
X113971158Y-55669500D01*
X113971155Y-55669500D01*
X113816510Y-55700261D01*
X113816498Y-55700264D01*
X113670827Y-55760602D01*
X113670814Y-55760609D01*
X113539711Y-55848210D01*
X113539707Y-55848213D01*
X113428213Y-55959707D01*
X113428210Y-55959711D01*
X113340609Y-56090814D01*
X113340602Y-56090827D01*
X113280264Y-56236498D01*
X113280262Y-56236505D01*
X113269256Y-56291833D01*
X113236870Y-56353743D01*
X113176153Y-56388316D01*
X113171833Y-56389256D01*
X113116505Y-56400262D01*
X113116498Y-56400264D01*
X112970827Y-56460602D01*
X112970814Y-56460609D01*
X112839711Y-56548210D01*
X112839707Y-56548213D01*
X112728213Y-56659707D01*
X112728210Y-56659711D01*
X112640609Y-56790814D01*
X112640602Y-56790827D01*
X112580264Y-56936498D01*
X112580261Y-56936510D01*
X112549500Y-57091153D01*
X105717816Y-57091153D01*
X105709397Y-57070827D01*
X105709390Y-57070814D01*
X105621789Y-56939711D01*
X105621786Y-56939707D01*
X105510292Y-56828213D01*
X105510288Y-56828210D01*
X105379185Y-56740609D01*
X105379172Y-56740602D01*
X105233501Y-56680264D01*
X105233489Y-56680261D01*
X105078845Y-56649500D01*
X105078842Y-56649500D01*
X104921158Y-56649500D01*
X104921155Y-56649500D01*
X104766510Y-56680261D01*
X104766498Y-56680264D01*
X104620827Y-56740602D01*
X104620814Y-56740609D01*
X104489711Y-56828210D01*
X104489707Y-56828213D01*
X104378213Y-56939707D01*
X104378210Y-56939711D01*
X104290609Y-57070814D01*
X104290602Y-57070827D01*
X104230264Y-57216498D01*
X104230261Y-57216510D01*
X104199500Y-57371153D01*
X103300499Y-57371153D01*
X103282012Y-57278213D01*
X103269737Y-57216503D01*
X103266791Y-57209390D01*
X103209397Y-57070827D01*
X103209390Y-57070814D01*
X103121789Y-56939711D01*
X103121786Y-56939707D01*
X103010292Y-56828213D01*
X103010288Y-56828210D01*
X102879185Y-56740609D01*
X102879172Y-56740602D01*
X102733501Y-56680264D01*
X102733489Y-56680261D01*
X102578845Y-56649500D01*
X102578842Y-56649500D01*
X102421158Y-56649500D01*
X102421155Y-56649500D01*
X102266510Y-56680261D01*
X102266498Y-56680264D01*
X102120827Y-56740602D01*
X102120814Y-56740609D01*
X101989711Y-56828210D01*
X101989707Y-56828213D01*
X101878213Y-56939707D01*
X101878210Y-56939711D01*
X101790609Y-57070814D01*
X101790602Y-57070827D01*
X101730264Y-57216498D01*
X101730261Y-57216510D01*
X101699500Y-57371153D01*
X99600500Y-57371153D01*
X99600500Y-54894153D01*
X104749500Y-54894153D01*
X104749500Y-55051846D01*
X104780261Y-55206489D01*
X104780264Y-55206501D01*
X104840602Y-55352172D01*
X104840609Y-55352185D01*
X104928210Y-55483288D01*
X104928213Y-55483292D01*
X105039707Y-55594786D01*
X105039711Y-55594789D01*
X105170814Y-55682390D01*
X105170827Y-55682397D01*
X105286390Y-55730264D01*
X105316503Y-55742737D01*
X105471153Y-55773499D01*
X105471156Y-55773500D01*
X105471158Y-55773500D01*
X105628844Y-55773500D01*
X105628845Y-55773499D01*
X105783497Y-55742737D01*
X105929179Y-55682394D01*
X106060289Y-55594789D01*
X106171789Y-55483289D01*
X106259394Y-55352179D01*
X106319737Y-55206497D01*
X106350500Y-55051842D01*
X106350500Y-54894158D01*
X106350500Y-54894155D01*
X106350499Y-54894153D01*
X106319738Y-54739510D01*
X106319737Y-54739503D01*
X106290839Y-54669737D01*
X106259397Y-54593827D01*
X106259390Y-54593814D01*
X106171789Y-54462711D01*
X106171786Y-54462707D01*
X106060292Y-54351213D01*
X106060288Y-54351210D01*
X105929185Y-54263609D01*
X105929172Y-54263602D01*
X105783501Y-54203264D01*
X105783489Y-54203261D01*
X105628845Y-54172500D01*
X105628842Y-54172500D01*
X105471158Y-54172500D01*
X105471155Y-54172500D01*
X105316510Y-54203261D01*
X105316498Y-54203264D01*
X105170827Y-54263602D01*
X105170814Y-54263609D01*
X105039711Y-54351210D01*
X105039707Y-54351213D01*
X104928213Y-54462707D01*
X104928210Y-54462711D01*
X104840609Y-54593814D01*
X104840602Y-54593827D01*
X104780264Y-54739498D01*
X104780261Y-54739510D01*
X104749500Y-54894153D01*
X99600500Y-54894153D01*
X99600500Y-52821153D01*
X100049500Y-52821153D01*
X100049500Y-52978846D01*
X100080261Y-53133489D01*
X100080264Y-53133501D01*
X100140602Y-53279172D01*
X100140609Y-53279185D01*
X100228210Y-53410288D01*
X100228213Y-53410292D01*
X100339707Y-53521786D01*
X100339711Y-53521789D01*
X100470814Y-53609390D01*
X100470827Y-53609397D01*
X100562238Y-53647260D01*
X100616503Y-53669737D01*
X100761088Y-53698497D01*
X100771153Y-53700499D01*
X100771156Y-53700500D01*
X100771158Y-53700500D01*
X100928844Y-53700500D01*
X100928845Y-53700499D01*
X101083497Y-53669737D01*
X101229179Y-53609394D01*
X101360289Y-53521789D01*
X101460925Y-53421153D01*
X108199500Y-53421153D01*
X108199500Y-53578846D01*
X108230261Y-53733489D01*
X108230264Y-53733501D01*
X108290602Y-53879172D01*
X108290609Y-53879185D01*
X108378210Y-54010288D01*
X108378213Y-54010292D01*
X108489707Y-54121786D01*
X108489711Y-54121789D01*
X108620814Y-54209390D01*
X108620827Y-54209397D01*
X108766498Y-54269735D01*
X108766503Y-54269737D01*
X108921153Y-54300499D01*
X108921156Y-54300500D01*
X108921158Y-54300500D01*
X109078844Y-54300500D01*
X109078845Y-54300499D01*
X109233497Y-54269737D01*
X109379179Y-54209394D01*
X109510289Y-54121789D01*
X109621789Y-54010289D01*
X109709394Y-53879179D01*
X109769737Y-53733497D01*
X109800500Y-53578842D01*
X109800500Y-53421158D01*
X109800500Y-53421155D01*
X109800499Y-53421153D01*
X109798338Y-53410288D01*
X109769737Y-53266503D01*
X109756062Y-53233489D01*
X109709397Y-53120827D01*
X109709390Y-53120814D01*
X109621789Y-52989711D01*
X109621786Y-52989707D01*
X109510292Y-52878213D01*
X109510288Y-52878210D01*
X109379185Y-52790609D01*
X109379172Y-52790602D01*
X109233501Y-52730264D01*
X109233489Y-52730261D01*
X109078845Y-52699500D01*
X109078842Y-52699500D01*
X108921158Y-52699500D01*
X108921155Y-52699500D01*
X108766510Y-52730261D01*
X108766498Y-52730264D01*
X108620827Y-52790602D01*
X108620814Y-52790609D01*
X108489711Y-52878210D01*
X108489707Y-52878213D01*
X108378213Y-52989707D01*
X108378210Y-52989711D01*
X108290609Y-53120814D01*
X108290602Y-53120827D01*
X108230264Y-53266498D01*
X108230261Y-53266510D01*
X108199500Y-53421153D01*
X101460925Y-53421153D01*
X101471789Y-53410289D01*
X101559394Y-53279179D01*
X101619737Y-53133497D01*
X101650500Y-52978842D01*
X101650500Y-52821158D01*
X101650500Y-52821155D01*
X101650499Y-52821153D01*
X101632419Y-52730261D01*
X101619737Y-52666503D01*
X101600812Y-52620814D01*
X101559397Y-52520827D01*
X101559390Y-52520814D01*
X101471789Y-52389711D01*
X101471786Y-52389707D01*
X101360292Y-52278213D01*
X101360288Y-52278210D01*
X101229185Y-52190609D01*
X101229172Y-52190602D01*
X101083501Y-52130264D01*
X101083489Y-52130261D01*
X100928845Y-52099500D01*
X100928842Y-52099500D01*
X100771158Y-52099500D01*
X100771155Y-52099500D01*
X100616510Y-52130261D01*
X100616498Y-52130264D01*
X100470827Y-52190602D01*
X100470814Y-52190609D01*
X100339711Y-52278210D01*
X100339707Y-52278213D01*
X100228213Y-52389707D01*
X100228210Y-52389711D01*
X100140609Y-52520814D01*
X100140602Y-52520827D01*
X100080264Y-52666498D01*
X100080261Y-52666510D01*
X100049500Y-52821153D01*
X99600500Y-52821153D01*
X99600500Y-51589059D01*
X99600501Y-51589046D01*
X99600501Y-51420945D01*
X99600501Y-51420943D01*
X99559577Y-51268215D01*
X99524885Y-51208127D01*
X99480520Y-51131284D01*
X99368716Y-51019480D01*
X99368715Y-51019479D01*
X99364385Y-51015149D01*
X99364374Y-51015139D01*
X98757590Y-50408355D01*
X98757588Y-50408352D01*
X98638717Y-50289481D01*
X98638716Y-50289480D01*
X98553499Y-50240280D01*
X98505285Y-50189715D01*
X98491606Y-50127775D01*
X98492239Y-50112447D01*
X98494091Y-50107483D01*
X98500500Y-50047873D01*
X98500500Y-49921153D01*
X108199500Y-49921153D01*
X108199500Y-50078846D01*
X108230261Y-50233489D01*
X108230264Y-50233501D01*
X108290602Y-50379172D01*
X108290609Y-50379185D01*
X108378210Y-50510288D01*
X108378213Y-50510292D01*
X108489707Y-50621786D01*
X108489711Y-50621789D01*
X108620814Y-50709390D01*
X108620827Y-50709397D01*
X108766498Y-50769735D01*
X108766503Y-50769737D01*
X108921153Y-50800499D01*
X108921156Y-50800500D01*
X108921158Y-50800500D01*
X109078844Y-50800500D01*
X109078845Y-50800499D01*
X109233497Y-50769737D01*
X109379179Y-50709394D01*
X109510289Y-50621789D01*
X109621789Y-50510289D01*
X109709394Y-50379179D01*
X109769737Y-50233497D01*
X109800500Y-50078842D01*
X109800500Y-49921158D01*
X109800500Y-49921155D01*
X109800499Y-49921153D01*
X125699500Y-49921153D01*
X125699500Y-50078846D01*
X125730261Y-50233489D01*
X125730264Y-50233501D01*
X125790602Y-50379172D01*
X125790609Y-50379185D01*
X125878210Y-50510288D01*
X125878213Y-50510292D01*
X125989707Y-50621786D01*
X125989711Y-50621789D01*
X126120814Y-50709390D01*
X126120827Y-50709397D01*
X126266498Y-50769735D01*
X126266503Y-50769737D01*
X126421153Y-50800499D01*
X126421156Y-50800500D01*
X126421158Y-50800500D01*
X126578844Y-50800500D01*
X126578845Y-50800499D01*
X126733497Y-50769737D01*
X126879179Y-50709394D01*
X127010289Y-50621789D01*
X127121789Y-50510289D01*
X127209394Y-50379179D01*
X127269737Y-50233497D01*
X127300500Y-50078842D01*
X127300500Y-49921158D01*
X127300500Y-49921155D01*
X127300499Y-49921153D01*
X127298338Y-49910288D01*
X127269737Y-49766503D01*
X127269735Y-49766498D01*
X127209397Y-49620827D01*
X127209390Y-49620814D01*
X127121789Y-49489711D01*
X127121786Y-49489707D01*
X127010292Y-49378213D01*
X127010288Y-49378210D01*
X126879185Y-49290609D01*
X126879172Y-49290602D01*
X126733501Y-49230264D01*
X126733489Y-49230261D01*
X126578845Y-49199500D01*
X126578842Y-49199500D01*
X126421158Y-49199500D01*
X126421155Y-49199500D01*
X126266510Y-49230261D01*
X126266498Y-49230264D01*
X126120827Y-49290602D01*
X126120814Y-49290609D01*
X125989711Y-49378210D01*
X125989707Y-49378213D01*
X125878213Y-49489707D01*
X125878210Y-49489711D01*
X125790609Y-49620814D01*
X125790602Y-49620827D01*
X125730264Y-49766498D01*
X125730261Y-49766510D01*
X125699500Y-49921153D01*
X109800499Y-49921153D01*
X109798338Y-49910288D01*
X109769737Y-49766503D01*
X109769735Y-49766498D01*
X109709397Y-49620827D01*
X109709390Y-49620814D01*
X109621789Y-49489711D01*
X109621786Y-49489707D01*
X109510292Y-49378213D01*
X109510288Y-49378210D01*
X109379185Y-49290609D01*
X109379172Y-49290602D01*
X109233501Y-49230264D01*
X109233489Y-49230261D01*
X109078845Y-49199500D01*
X109078842Y-49199500D01*
X108921158Y-49199500D01*
X108921155Y-49199500D01*
X108766510Y-49230261D01*
X108766498Y-49230264D01*
X108620827Y-49290602D01*
X108620814Y-49290609D01*
X108489711Y-49378210D01*
X108489707Y-49378213D01*
X108378213Y-49489707D01*
X108378210Y-49489711D01*
X108290609Y-49620814D01*
X108290602Y-49620827D01*
X108230264Y-49766498D01*
X108230261Y-49766510D01*
X108199500Y-49921153D01*
X98500500Y-49921153D01*
X98500499Y-48984499D01*
X98520183Y-48917461D01*
X98572987Y-48871706D01*
X98624499Y-48860500D01*
X134071434Y-48860500D01*
X134138473Y-48880185D01*
G37*
%TD.AperFunction*%
%TA.AperFunction,Conductor*%
G36*
X133316410Y-71275785D02*
G01*
X133317280Y-71275676D01*
X133348097Y-71290419D01*
X133379047Y-71304714D01*
X133379794Y-71305584D01*
X133380308Y-71305830D01*
X133381720Y-71307825D01*
X133402046Y-71331486D01*
X133407862Y-71340621D01*
X133413368Y-71353914D01*
X133476018Y-71447677D01*
X133476769Y-71448856D01*
X133486103Y-71481157D01*
X133496148Y-71513236D01*
X133495771Y-71514608D01*
X133496167Y-71515978D01*
X133486556Y-71548199D01*
X133477663Y-71580616D01*
X133476603Y-71581568D01*
X133476196Y-71582933D01*
X133475271Y-71584339D01*
X133413809Y-71676325D01*
X133338430Y-71858306D01*
X133338427Y-71858318D01*
X133300000Y-72051504D01*
X133300000Y-72248495D01*
X133338427Y-72441681D01*
X133338430Y-72441693D01*
X133413807Y-72623671D01*
X133413814Y-72623684D01*
X133475270Y-72715659D01*
X133479907Y-72730471D01*
X133489014Y-72743041D01*
X133490135Y-72763134D01*
X133496148Y-72782337D01*
X133492096Y-72798282D01*
X133492907Y-72812802D01*
X133482053Y-72837810D01*
X133480056Y-72845674D01*
X133477797Y-72849660D01*
X133413368Y-72946086D01*
X133386722Y-73010413D01*
X133382963Y-73017050D01*
X133363128Y-73036273D01*
X133345794Y-73057783D01*
X133338392Y-73060246D01*
X133332790Y-73065676D01*
X133305709Y-73071124D01*
X133279500Y-73079847D01*
X133271940Y-73077917D01*
X133264293Y-73079456D01*
X133238566Y-73069398D01*
X133211801Y-73062567D01*
X133205280Y-73056386D01*
X133199219Y-73054017D01*
X133191415Y-73043244D01*
X133171973Y-73024817D01*
X133121789Y-72949711D01*
X133121787Y-72949708D01*
X133010292Y-72838213D01*
X133010288Y-72838210D01*
X132879185Y-72750609D01*
X132879172Y-72750602D01*
X132733501Y-72690264D01*
X132733489Y-72690261D01*
X132578845Y-72659500D01*
X132578842Y-72659500D01*
X132421158Y-72659500D01*
X132421155Y-72659500D01*
X132266510Y-72690261D01*
X132266498Y-72690264D01*
X132120827Y-72750602D01*
X132120814Y-72750609D01*
X131989711Y-72838210D01*
X131989707Y-72838213D01*
X131878213Y-72949707D01*
X131878207Y-72949715D01*
X131873368Y-72956957D01*
X131848196Y-72977991D01*
X131823787Y-72999918D01*
X131821518Y-73000285D01*
X131819754Y-73001760D01*
X131787183Y-73005849D01*
X131754817Y-73011095D01*
X131752711Y-73010178D01*
X131750429Y-73010465D01*
X131720823Y-72996298D01*
X131690753Y-72983210D01*
X131688704Y-72980929D01*
X131687403Y-72980307D01*
X131667167Y-72956954D01*
X131649331Y-72930261D01*
X131624727Y-72893439D01*
X131603850Y-72826764D01*
X131622334Y-72759383D01*
X131624729Y-72755657D01*
X131686189Y-72663676D01*
X131686191Y-72663673D01*
X131761569Y-72481693D01*
X131761572Y-72481681D01*
X131799999Y-72288495D01*
X131800000Y-72288492D01*
X131800000Y-72091508D01*
X131799999Y-72091504D01*
X131761572Y-71898318D01*
X131761569Y-71898306D01*
X131686192Y-71716328D01*
X131686188Y-71716321D01*
X131624728Y-71624341D01*
X131618753Y-71605261D01*
X131608248Y-71588253D01*
X131608527Y-71572601D01*
X131603850Y-71557663D01*
X131609138Y-71538383D01*
X131609496Y-71518395D01*
X131621511Y-71493282D01*
X131622334Y-71490283D01*
X131624704Y-71486595D01*
X131662328Y-71430288D01*
X131669668Y-71419303D01*
X131723281Y-71374499D01*
X131792606Y-71365792D01*
X131855633Y-71395947D01*
X131875872Y-71419305D01*
X131883212Y-71430291D01*
X131994707Y-71541786D01*
X131994711Y-71541789D01*
X132125814Y-71629390D01*
X132125827Y-71629397D01*
X132239123Y-71676325D01*
X132271503Y-71689737D01*
X132405149Y-71716321D01*
X132426153Y-71720499D01*
X132426156Y-71720500D01*
X132426158Y-71720500D01*
X132583844Y-71720500D01*
X132583845Y-71720499D01*
X132738497Y-71689737D01*
X132884179Y-71629394D01*
X133015289Y-71541789D01*
X133126789Y-71430289D01*
X133194343Y-71329188D01*
X133220558Y-71307279D01*
X133246416Y-71285066D01*
X133247282Y-71284945D01*
X133247955Y-71284383D01*
X133281837Y-71280127D01*
X133315616Y-71275418D01*
X133316410Y-71275785D01*
G37*
%TD.AperFunction*%
%TD*%
M02*
